<svg xmlns="http://www.w3.org/2000/svg" width="1280" height="1280" viewBox="0 0 1280 1280" version="1.1"><path d="M 1074.994 7.885 C 1068.020 10.144, 1058 17.654, 1058 20.620 C 1058 21.287, 1057.542 21.986, 1056.982 22.173 C 1056.423 22.359, 1054.386 27.234, 1052.456 33.006 C 1050.526 38.778, 1048.537 44.400, 1048.036 45.500 C 1047.222 47.289, 1045.893 51.232, 1045.424 53.250 C 1045.328 53.663, 1045.138 54.225, 1045 54.500 C 1044.862 54.775, 1044.653 55.337, 1044.535 55.750 C 1044.416 56.163, 1043.568 58.185, 1042.649 60.243 C 1041.730 62.302, 1040.885 65.115, 1040.771 66.493 C 1040.657 67.872, 1040.261 69, 1039.890 69 C 1039.317 69, 1038.841 70.223, 1037.457 75.250 C 1037.343 75.662, 1037.138 76.225, 1037 76.500 C 1036.862 76.775, 1036.656 77.338, 1036.541 77.750 C 1036.426 78.162, 1035.789 79.850, 1035.125 81.500 C 1034.460 83.150, 1033.211 86.525, 1032.348 89 C 1031.485 91.475, 1030.537 94.175, 1030.240 95 C 1029.943 95.825, 1029.533 97.365, 1029.330 98.422 C 1029.127 99.478, 1028.528 100.864, 1028 101.500 C 1027.472 102.136, 1026.872 103.522, 1026.666 104.578 C 1026.460 105.635, 1025.551 108.173, 1024.646 110.218 C 1023.741 112.263, 1023 114.358, 1023 114.873 C 1023 116.924, 1018.349 124.346, 1014.786 127.981 C 1012.711 130.098, 1008.873 132.632, 1006.257 133.613 C 1003.640 134.595, 1001.169 135.870, 1000.765 136.449 C 1000.361 137.027, 1000.024 137.193, 1000.015 136.819 C 999.999 136.113, 985.267 140.729, 983.500 141.994 C 982.950 142.387, 980.362 143.323, 977.750 144.073 C 975.138 144.823, 973 145.676, 972.999 145.968 C 972.999 146.261, 971.986 146.559, 970.749 146.630 C 969.512 146.702, 966.700 147.561, 964.500 148.540 C 959.889 150.591, 959.539 150.707, 957.441 150.875 C 956.531 150.948, 956.179 151.481, 956.595 152.155 C 957.042 152.877, 956.869 153.037, 956.135 152.583 C 954.846 151.787, 948.323 153.604, 946.096 155.380 C 945.324 155.996, 943.813 156.351, 942.737 156.169 C 941.544 155.967, 941.039 156.255, 941.443 156.907 C 941.849 157.565, 941.506 157.748, 940.552 157.382 C 939.698 157.054, 939 157.270, 939 157.862 C 939 158.453, 938.325 158.678, 937.500 158.362 C 936.675 158.045, 936 158.270, 936 158.862 C 936 159.453, 935.325 159.678, 934.500 159.362 C 933.675 159.045, 933 159.311, 933 159.952 C 933 160.593, 932.559 160.846, 932.021 160.513 C 931.482 160.180, 930.020 160.469, 928.771 161.155 C 927.522 161.841, 925.635 162.546, 924.578 162.721 C 923.522 162.896, 922.059 163.536, 921.328 164.142 C 920.598 164.749, 920 164.895, 920 164.467 C 920 164.040, 919.023 164.547, 917.828 165.595 C 916.634 166.643, 916.028 166.868, 916.483 166.095 C 917.096 165.053, 916.947 164.917, 915.905 165.567 C 915.132 166.049, 914.050 166.524, 913.500 166.623 C 910.732 167.118, 907 169.077, 907 170.034 C 907 170.630, 906.623 170.885, 906.163 170.600 C 905.702 170.316, 903.586 171.864, 901.460 174.041 C 899.334 176.219, 897.906 178, 898.287 178 C 898.669 178, 898.306 178.787, 897.482 179.750 C 896.658 180.713, 895.949 181.950, 895.907 182.500 C 895.865 183.050, 895.377 184.046, 894.824 184.713 C 892.132 187.955, 893.282 208, 896.159 208 C 896.686 208, 896.885 208.377, 896.600 208.838 C 895.564 210.515, 906.403 220.830, 911 222.543 C 913.475 223.465, 916.850 224.790, 918.500 225.489 C 922.502 227.183, 935.241 231.462, 936.500 231.535 C 937.050 231.566, 938.400 232.088, 939.500 232.694 C 940.600 233.300, 942.625 233.954, 944 234.148 C 945.375 234.341, 946.725 234.725, 947 235 C 947.465 235.465, 953.237 237.787, 955.500 238.419 C 956.050 238.572, 957.175 238.977, 958 239.318 C 962.261 241.081, 985.308 248.906, 985.859 248.778 C 986.212 248.696, 988.300 249.424, 990.500 250.395 C 992.700 251.367, 995.175 252.314, 996 252.500 C 996.825 252.686, 999.300 253.602, 1001.500 254.537 C 1003.700 255.471, 1005.500 256.106, 1005.500 255.948 C 1005.500 255.354, 1013.859 260.962, 1014.485 261.976 C 1014.844 262.557, 1015.627 262.731, 1016.224 262.362 C 1016.821 261.993, 1017.039 262.129, 1016.708 262.663 C 1016.377 263.198, 1017.095 264.747, 1018.304 266.105 C 1019.512 267.463, 1020.649 269.228, 1020.830 270.027 C 1021.012 270.827, 1021.613 271.761, 1022.166 272.102 C 1022.718 272.444, 1023.050 272.898, 1022.903 273.112 C 1022.671 273.449, 1023.395 276.236, 1024.563 279.500 C 1024.760 280.050, 1026.028 283.650, 1027.381 287.500 C 1028.734 291.350, 1030.395 295.850, 1031.073 297.500 C 1031.751 299.150, 1032.450 301.228, 1032.626 302.118 C 1032.803 303.007, 1034.309 307.272, 1035.974 311.595 C 1037.638 315.918, 1039 320.027, 1039 320.727 C 1039 321.427, 1039.477 322, 1040.059 322 C 1040.641 322, 1040.919 322.337, 1040.676 322.750 C 1040.434 323.162, 1040.699 324.625, 1041.266 326 C 1041.833 327.375, 1042.429 329.156, 1042.591 329.957 C 1042.752 330.759, 1043.312 332.334, 1043.836 333.457 C 1044.360 334.581, 1045.492 337.525, 1046.353 340 C 1047.213 342.475, 1048.455 345.850, 1049.112 347.500 C 1049.769 349.150, 1050.430 351.109, 1050.580 351.853 C 1051.351 355.674, 1055.485 366, 1056.244 366 C 1056.725 366, 1056.866 366.408, 1056.557 366.907 C 1055.878 368.006, 1066.124 379.046, 1068.100 379.345 C 1068.870 379.461, 1070.063 379.908, 1070.750 380.337 C 1071.438 380.767, 1072.007 380.754, 1072.015 380.309 C 1072.024 379.864, 1072.458 380.175, 1072.980 381 C 1073.715 382.163, 1076.017 382.491, 1083.214 382.460 C 1090.815 382.428, 1093.266 382.019, 1096.722 380.204 C 1102.718 377.057, 1107.789 372.334, 1110.157 367.693 C 1113.019 362.082, 1120.982 339.780, 1120.438 338.900 C 1120.190 338.499, 1120.460 338.013, 1121.037 337.821 C 1121.614 337.629, 1122.233 336.353, 1122.413 334.986 C 1122.593 333.619, 1123.196 331.375, 1123.753 330 C 1124.310 328.625, 1124.523 327.093, 1124.228 326.595 C 1123.933 326.098, 1124.144 325.971, 1124.697 326.313 C 1125.639 326.895, 1129.785 315.433, 1129.242 313.750 C 1129.109 313.338, 1129.430 313, 1129.955 313 C 1130.848 313, 1132.647 306.398, 1132.202 304.750 C 1132.091 304.338, 1132.498 304, 1133.107 304 C 1133.716 304, 1133.968 303.358, 1133.666 302.573 C 1133.365 301.788, 1133.798 300.582, 1134.629 299.893 C 1135.460 299.204, 1135.929 297.837, 1135.673 296.857 C 1135.416 295.876, 1135.761 294.613, 1136.438 294.051 C 1137.116 293.489, 1138.278 291.110, 1139.020 288.764 C 1141.071 282.282, 1146.909 267.815, 1148.008 266.490 C 1148.544 265.844, 1148.649 264.982, 1148.241 264.575 C 1147.834 264.167, 1147.950 263.983, 1148.500 264.167 C 1149.838 264.613, 1154.014 260.368, 1153.167 259.423 C 1152.800 259.014, 1152.987 258.957, 1153.583 259.295 C 1154.179 259.634, 1156.204 258.867, 1158.083 257.590 C 1159.962 256.313, 1161.838 255.207, 1162.250 255.134 C 1162.662 255.060, 1163.112 254.966, 1163.250 254.923 C 1163.388 254.881, 1164.355 254.686, 1165.400 254.490 C 1166.445 254.294, 1167.570 253.766, 1167.900 253.316 C 1168.230 252.867, 1168.950 252.486, 1169.500 252.469 C 1172.103 252.389, 1177 250.745, 1177 249.952 C 1177 249.463, 1177.675 249.322, 1178.500 249.638 C 1179.325 249.955, 1180 249.814, 1180 249.325 C 1180 248.836, 1181.212 248.336, 1182.694 248.213 C 1184.176 248.091, 1185.688 247.504, 1186.056 246.910 C 1186.423 246.315, 1187.024 245.917, 1187.390 246.024 C 1187.757 246.131, 1189.057 245.898, 1190.279 245.506 C 1191.500 245.115, 1193.098 244.650, 1193.828 244.474 C 1194.559 244.298, 1195.909 243.827, 1196.828 243.427 C 1197.748 243.027, 1199.390 242.529, 1200.479 242.321 C 1201.567 242.113, 1202.894 241.506, 1203.429 240.971 C 1203.963 240.437, 1205.462 240, 1206.759 240 C 1208.288 240, 1208.867 239.594, 1208.405 238.845 C 1208.005 238.199, 1208.126 237.960, 1208.679 238.302 C 1209.912 239.063, 1241.375 228.305, 1241.835 226.965 C 1242.020 226.427, 1242.530 226.209, 1242.968 226.480 C 1243.897 227.054, 1253.137 224.001, 1258.087 221.485 C 1262.105 219.441, 1270.209 211.147, 1269.425 209.878 C 1269.126 209.395, 1269.286 209, 1269.780 209 C 1272.959 209, 1274.235 189.892, 1271.495 183.334 C 1269.335 178.165, 1265.089 172.827, 1263.780 173.636 C 1263.169 174.013, 1262.975 173.850, 1263.337 173.264 C 1263.975 172.231, 1260.380 169.304, 1257.822 168.774 C 1257.095 168.623, 1256.230 168.133, 1255.900 167.684 C 1255.570 167.234, 1254.670 166.772, 1253.900 166.655 C 1253.130 166.539, 1252.050 166.179, 1251.500 165.856 C 1250.030 164.991, 1236.669 160.531, 1235.500 160.514 C 1234.950 160.506, 1234.250 160.165, 1233.944 159.755 C 1233.638 159.345, 1232.176 158.909, 1230.694 158.787 C 1229.212 158.664, 1228 158.310, 1228 158 C 1228 157.690, 1225.862 156.823, 1223.250 156.073 C 1220.638 155.323, 1218.050 154.384, 1217.500 153.987 C 1215.327 152.417, 1205.976 149.897, 1204.868 150.582 C 1204.131 151.037, 1203.958 150.878, 1204.405 150.155 C 1205.013 149.171, 1202.780 148.437, 1201.654 149.250 C 1201.463 149.387, 1200.601 148.914, 1199.739 148.198 C 1198.435 147.116, 1184.291 141.891, 1179 140.537 C 1178.175 140.326, 1177.388 140.062, 1177.250 139.952 C 1177.112 139.841, 1176.662 139.687, 1176.250 139.610 C 1175.838 139.533, 1175.050 139.199, 1174.500 138.869 C 1172.957 137.941, 1159.650 133.526, 1158.317 133.499 C 1156.773 133.467, 1147 123.587, 1147 122.058 C 1147 121.411, 1146.480 121.203, 1145.845 121.595 C 1145.195 121.998, 1144.960 121.873, 1145.308 121.311 C 1146.071 120.077, 1142.639 110.759, 1141.687 111.479 C 1141.309 111.766, 1141.221 111.704, 1141.491 111.342 C 1141.762 110.980, 1141.424 109.994, 1140.741 109.150 C 1139.724 107.893, 1139.754 107.769, 1140.905 108.463 C 1141.951 109.093, 1142.086 108.951, 1141.433 107.905 C 1140.951 107.132, 1140.461 105.870, 1140.345 105.100 C 1140.228 104.330, 1139.766 103.430, 1139.316 103.100 C 1138.867 102.770, 1138.376 101.395, 1138.225 100.044 C 1138.074 98.693, 1137.624 97.343, 1137.225 97.044 C 1136.826 96.745, 1136.376 95.395, 1136.225 94.044 C 1136.074 92.693, 1135.473 91.292, 1134.890 90.932 C 1134.306 90.571, 1133.905 89.877, 1133.997 89.388 C 1134.342 87.567, 1130.671 77.085, 1129.863 77.585 C 1129.401 77.870, 1129.291 77.406, 1129.618 76.552 C 1129.946 75.698, 1129.812 75, 1129.320 75 C 1128.828 75, 1128.359 74.113, 1128.277 73.029 C 1128.081 70.421, 1123.954 58.879, 1122.581 57.096 C 1121.987 56.324, 1121.649 54.813, 1121.831 53.737 C 1122.059 52.393, 1121.776 52.020, 1120.927 52.545 C 1120.166 53.016, 1119.946 52.897, 1120.354 52.237 C 1121.217 50.839, 1114.666 32.668, 1113.661 33.673 C 1113.239 34.094, 1113.179 33.698, 1113.526 32.792 C 1114.230 30.959, 1111.238 23.547, 1107.905 18.867 C 1105.316 15.230, 1098.109 9.814, 1096.875 10.577 C 1096.394 10.875, 1096 10.593, 1096 9.952 C 1096 9.311, 1095.354 9.034, 1094.565 9.337 C 1093.775 9.640, 1092.954 9.363, 1092.741 8.722 C 1092.275 7.325, 1078.697 6.684, 1074.994 7.885 M 489.750 160.253 C 486.038 160.792, 483 161.589, 483 162.023 C 483 162.458, 482.107 162.579, 481.015 162.294 C 479.923 162.008, 478.236 162.104, 477.265 162.507 C 476.294 162.909, 474.150 163.422, 472.500 163.646 C 470.850 163.869, 468.825 164.180, 468 164.336 C 467.175 164.492, 464.357 164.982, 461.738 165.425 C 459.118 165.868, 456.725 166.636, 456.419 167.132 C 456.112 167.627, 455.513 167.817, 455.087 167.554 C 454.661 167.290, 452.556 167.560, 450.409 168.153 C 448.263 168.745, 445.605 169.380, 444.503 169.562 C 438.654 170.531, 428.112 173.374, 428.432 173.897 C 428.635 174.228, 427.233 174.535, 425.316 174.579 C 423.399 174.622, 421.531 175.087, 421.165 175.612 C 420.799 176.137, 419.712 176.608, 418.750 176.658 C 414.550 176.878, 413.910 177.045, 414.376 177.800 C 414.648 178.240, 413.887 178.607, 412.685 178.616 C 407.929 178.650, 370.118 191.740, 367.016 194.426 C 366.182 195.148, 365.014 195.561, 364.419 195.343 C 362.893 194.783, 354.857 198.523, 355.724 199.391 C 356.117 199.784, 355.665 199.809, 354.720 199.446 C 353.774 199.083, 353 199.209, 353 199.726 C 353 200.244, 352.321 200.667, 351.491 200.667 C 349.554 200.667, 339.731 205.162, 338.765 206.489 C 338.361 207.045, 338.024 207.107, 338.015 206.628 C 338.007 206.148, 337.280 206.353, 336.399 207.084 C 335.519 207.814, 334.064 208.520, 333.167 208.652 C 332.270 208.783, 331.377 209.368, 331.183 209.952 C 330.988 210.535, 330.454 210.781, 329.995 210.497 C 329.537 210.214, 328.450 210.693, 327.581 211.562 C 326.711 212.432, 326 212.874, 326 212.546 C 326 212.217, 324.538 212.729, 322.750 213.682 C 320.962 214.636, 319.177 215.435, 318.782 215.458 C 318.388 215.481, 317.263 216.187, 316.282 217.026 C 315.302 217.866, 314.143 218.606, 313.707 218.673 C 311.497 219.008, 307 221.360, 307 222.180 C 307 222.696, 306.586 222.862, 306.081 222.550 C 305.575 222.237, 304.552 222.548, 303.807 223.241 C 303.062 223.933, 301.788 224.637, 300.976 224.805 C 300.164 224.973, 299.048 225.648, 298.496 226.305 C 297.944 226.962, 296.824 227.649, 296.006 227.830 C 295.188 228.012, 294.184 228.687, 293.775 229.330 C 293.365 229.974, 293.024 230.126, 293.015 229.668 C 293.002 228.935, 286.296 232.514, 285 233.947 C 284.725 234.251, 282.475 235.591, 280 236.925 C 277.525 238.259, 275.275 239.614, 275 239.935 C 274.725 240.256, 272.769 241.415, 270.653 242.510 C 268.537 243.604, 265.725 245.491, 264.403 246.702 C 263.081 247.913, 262 248.669, 262 248.381 C 262 247.467, 239.582 263.062, 237.637 265.329 C 236.613 266.523, 235.488 267.440, 235.137 267.367 C 233.753 267.079, 226.102 273.356, 226.686 274.301 C 227.029 274.856, 226.819 275.006, 226.219 274.635 C 225.620 274.265, 223.996 275.095, 222.610 276.481 C 221.225 277.866, 219.731 279, 219.290 279 C 218.850 279, 216.616 280.764, 214.326 282.921 C 212.037 285.078, 209.214 287.350, 208.054 287.971 C 206.893 288.592, 206.251 289.597, 206.627 290.205 C 207.005 290.818, 206.857 291.029, 206.292 290.681 C 205.733 290.335, 203.301 291.892, 200.888 294.139 C 198.475 296.387, 195.491 298.899, 194.259 299.722 C 193.026 300.545, 192.310 301.732, 192.669 302.359 C 193.027 302.987, 192.952 303.166, 192.502 302.759 C 191.383 301.744, 188.865 303.972, 189.666 305.268 C 190.025 305.850, 189.829 306.012, 189.221 305.637 C 188.161 304.981, 149 343.472, 149 345.169 C 149 345.628, 146.074 349.040, 142.497 352.752 C 138.920 356.463, 135.740 360.287, 135.429 361.250 C 135.119 362.212, 134.500 363, 134.054 363 C 133.608 363, 131.276 365.577, 128.872 368.727 C 126.467 371.877, 123.729 375.365, 122.787 376.477 C 121.845 377.590, 121.047 378.827, 121.014 379.227 C 120.981 379.627, 119.816 381.094, 118.423 382.486 C 117.031 383.878, 116.175 385.474, 116.520 386.033 C 116.866 386.592, 116.778 386.926, 116.324 386.775 C 115.871 386.624, 115.377 386.827, 115.227 387.227 C 115.077 387.627, 113.816 389.094, 112.423 390.486 C 111.026 391.883, 110.210 393.530, 110.601 394.163 C 110.990 394.793, 110.899 395.056, 110.399 394.746 C 109.898 394.437, 108.167 396.023, 106.551 398.270 C 104.936 400.518, 104.263 402.012, 105.057 401.592 C 105.851 401.171, 105.547 401.653, 104.382 402.663 C 101.452 405.205, 91.958 419.624, 92.716 420.382 C 93.055 420.722, 92.820 421, 92.192 421 C 91.026 421, 87.545 426.624, 87.495 428.587 C 87.480 429.186, 86.684 430.459, 85.725 431.418 C 84.766 432.377, 84.280 433.644, 84.645 434.235 C 85.010 434.826, 84.855 435.029, 84.301 434.686 C 83.487 434.183, 80.479 438.752, 80.943 439.786 C 81.014 439.943, 80.376 440.767, 79.527 441.616 C 78.677 442.466, 78.280 443.644, 78.645 444.235 C 79.015 444.833, 78.844 445.022, 78.259 444.660 C 76.979 443.869, 75.735 446.728, 76.657 448.340 C 77.022 448.978, 76.946 449.160, 76.487 448.744 C 75.327 447.691, 68.713 459.706, 69.602 461.251 C 69.997 461.938, 69.941 462.155, 69.477 461.734 C 68.464 460.813, 64.922 468.064, 65.738 469.386 C 66.052 469.894, 65.844 470.022, 65.276 469.671 C 64.231 469.025, 56.667 484.707, 56.667 487.519 C 56.667 488.334, 56.434 488.768, 56.150 488.484 C 55.443 487.776, 52.050 495.271, 52.643 496.231 C 52.904 496.654, 52.593 497, 51.952 497 C 51.311 497, 51.045 497.675, 51.362 498.500 C 51.678 499.325, 51.556 500, 51.090 500 C 50.624 500, 49.687 501.462, 49.008 503.250 C 48.329 505.038, 47.181 507.832, 46.457 509.460 C 45.733 511.087, 45.361 512.775, 45.629 513.210 C 45.898 513.644, 45.690 514, 45.167 514 C 44.135 514, 42.608 518.448, 42.687 521.227 C 42.714 522.177, 42.345 522.713, 41.868 522.418 C 41.391 522.123, 40.944 522.584, 40.875 523.441 C 40.714 525.448, 40.581 525.900, 39.090 529.500 C 38.407 531.150, 37.786 533.288, 37.711 534.250 C 37.636 535.212, 37.256 536, 36.867 536 C 36.215 536, 34.603 541.176, 34.531 543.500 C 34.514 544.050, 34.241 544.725, 33.923 545 C 32.599 546.149, 27.903 563.041, 28.582 564.218 C 28.988 564.923, 28.940 565.154, 28.475 564.731 C 27.444 563.794, 23.686 577.740, 24.440 579.705 C 24.736 580.474, 24.580 580.859, 24.095 580.559 C 22.973 579.865, 21.916 583.966, 22.472 586.854 C 22.708 588.080, 22.476 588.794, 21.948 588.468 C 21.100 587.944, 20.716 590.079, 20.731 595.227 C 20.733 596.177, 20.405 596.750, 20.001 596.500 C 19.044 595.909, 17.810 604.884, 18.659 606.258 C 19.067 606.917, 18.820 607.007, 17.997 606.498 C 17.020 605.894, 16.829 606.237, 17.249 607.843 C 17.559 609.028, 17.449 610.222, 17.006 610.497 C 16.562 610.771, 16.292 612.346, 16.407 613.998 C 16.521 615.649, 16.202 617, 15.698 617 C 15.194 617, 14.961 618.543, 15.182 620.430 C 15.402 622.316, 15.272 623.668, 14.894 623.434 C 13.984 622.872, 11.629 639.591, 12.352 641.475 C 12.660 642.279, 12.489 643.198, 11.972 643.518 C 11.454 643.837, 11.051 645.089, 11.076 646.300 C 11.101 647.510, 10.820 650.300, 10.452 652.500 C 10.083 654.700, 9.630 660.550, 9.444 665.500 C 9.259 670.450, 9.029 674.500, 8.933 674.500 C 7.907 674.500, 6.601 736.564, 7.576 738.982 C 7.913 739.817, 8.371 745.875, 8.594 752.445 C 8.985 763.982, 12.612 796.564, 13.702 798.326 C 13.995 798.801, 14.398 801.060, 14.596 803.345 C 15.072 808.822, 17.113 820.237, 17.840 821.490 C 18.156 822.035, 18.536 823.953, 18.684 825.754 C 18.831 827.554, 19.687 831.834, 20.586 835.264 C 21.484 838.694, 22.439 842.850, 22.708 844.500 C 22.977 846.150, 23.641 847.775, 24.184 848.112 C 24.727 848.448, 25.132 849.011, 25.085 849.362 C 24.718 852.104, 25.156 855.022, 25.868 854.582 C 26.345 854.287, 26.733 854.823, 26.731 855.773 C 26.715 861.406, 27.073 863.073, 28.155 862.405 C 28.862 861.967, 29.038 862.130, 28.608 862.825 C 27.942 863.904, 30.388 873.055, 33.065 879.500 C 33.751 881.150, 34.356 882.950, 34.409 883.500 C 34.673 886.215, 37.541 894, 38.277 894 C 38.740 894, 38.890 894.370, 38.610 894.822 C 38.331 895.274, 38.669 896.736, 39.362 898.072 C 40.833 900.906, 41 901.467, 41 903.559 C 41 904.416, 41.445 904.843, 41.989 904.507 C 42.541 904.166, 42.731 904.537, 42.419 905.350 C 42.112 906.150, 42.792 908.849, 43.931 911.347 C 45.069 913.846, 46 916.103, 46 916.362 C 46 916.622, 46.970 919.009, 48.156 921.667 C 49.341 924.325, 50.436 927.130, 50.589 927.900 C 50.742 928.670, 51.234 929.570, 51.684 929.900 C 52.133 930.230, 52.628 931.175, 52.784 932 C 53.458 935.556, 55.312 938.925, 56.271 938.333 C 56.861 937.968, 57.010 938.174, 56.616 938.812 C 55.981 939.840, 64.193 958.759, 65.801 959.973 C 66.186 960.263, 66.614 961.067, 66.753 961.760 C 67.271 964.336, 70.744 969.922, 71.413 969.254 C 71.794 968.873, 71.809 969.335, 71.446 970.280 C 71.054 971.301, 71.260 972, 71.952 972 C 72.593 972, 72.871 972.399, 72.570 972.887 C 72.269 973.374, 72.692 974.329, 73.511 975.009 C 74.330 975.689, 75 976.891, 75 977.681 C 75 978.513, 75.486 978.817, 76.155 978.405 C 76.869 977.963, 77.038 978.130, 76.597 978.843 C 75.850 980.051, 78.859 986, 80.216 986 C 80.647 986, 80.888 986.404, 80.750 986.898 C 80.317 988.454, 89.331 1002.914, 90.344 1002.288 C 90.875 1001.959, 90.998 1002.195, 90.617 1002.810 C 89.879 1004.006, 94.677 1012, 96.133 1012 C 96.610 1012, 96.888 1012.345, 96.750 1012.767 C 96.393 1013.863, 103.030 1024, 104.104 1024 C 104.597 1024, 104.915 1024.338, 104.812 1024.750 C 104.429 1026.272, 109.232 1032.975, 110.252 1032.344 C 110.850 1031.975, 111.016 1032.165, 110.635 1032.781 C 110.265 1033.380, 111.106 1035.015, 112.504 1036.413 C 113.902 1037.811, 115.052 1039.302, 115.060 1039.727 C 115.068 1040.152, 115.957 1041.516, 117.037 1042.758 C 118.117 1043.999, 119.002 1045.349, 119.005 1045.758 C 119.007 1046.166, 120.470 1048.094, 122.255 1050.043 C 124.040 1051.991, 126.308 1054.691, 127.296 1056.043 C 128.284 1057.394, 128.777 1057.868, 128.392 1057.095 C 127.930 1056.170, 128.091 1055.938, 128.862 1056.415 C 129.506 1056.813, 129.789 1057.532, 129.491 1058.014 C 128.977 1058.846, 138.343 1070.402, 144.243 1076.216 C 145.759 1077.710, 147 1079.336, 147 1079.829 C 147 1081.512, 186.961 1121.142, 188.007 1120.496 C 188.580 1120.141, 188.926 1120.447, 188.775 1121.176 C 188.624 1121.904, 189.063 1122.387, 189.750 1122.250 C 190.438 1122.112, 190.888 1122.562, 190.750 1123.250 C 190.613 1123.937, 191.063 1124.387, 191.750 1124.250 C 192.438 1124.112, 192.888 1124.405, 192.750 1124.900 C 192.613 1125.395, 192.796 1125.888, 193.158 1125.995 C 193.520 1126.103, 195.995 1128.286, 198.658 1130.848 C 203.986 1135.973, 230.735 1157.562, 235.500 1160.582 C 237.150 1161.628, 239.372 1163.275, 240.439 1164.242 C 241.505 1165.209, 242.719 1166, 243.137 1166 C 243.555 1166, 245.102 1167.117, 246.574 1168.481 C 248.047 1169.846, 249.645 1170.719, 250.126 1170.422 C 250.607 1170.125, 251 1170.282, 251 1170.772 C 251 1171.929, 269.892 1184.333, 271.654 1184.333 C 272.394 1184.333, 272.777 1184.557, 272.504 1184.830 C 272.060 1185.273, 273.333 1186.203, 280.500 1190.674 C 281.600 1191.360, 283.175 1192.237, 284 1192.624 C 284.825 1193.010, 286.734 1194.181, 288.243 1195.226 C 289.752 1196.271, 291.552 1196.801, 292.243 1196.403 C 292.934 1196.005, 293.165 1196.049, 292.756 1196.500 C 291.974 1197.363, 292.635 1197.835, 300.739 1202.205 C 303.499 1203.693, 306.036 1204.630, 306.378 1204.288 C 306.720 1203.946, 307 1204.095, 307 1204.618 C 307 1206.128, 312.874 1209.190, 314.252 1208.397 C 314.938 1208.002, 315.178 1208.036, 314.784 1208.473 C 314.003 1209.337, 324.220 1215, 326.560 1215 C 327.352 1215, 328.002 1215.338, 328.004 1215.750 C 328.008 1216.602, 337.101 1220.574, 338.250 1220.227 C 338.663 1220.102, 339 1220.408, 339 1220.906 C 339 1222.092, 347.621 1225.022, 348.581 1224.162 C 348.988 1223.798, 349.047 1223.981, 348.714 1224.568 C 348.175 1225.516, 353.908 1228.342, 355.617 1227.972 C 355.980 1227.893, 356.605 1228.362, 357.008 1229.012 C 357.410 1229.663, 358.922 1230.264, 360.369 1230.348 C 361.815 1230.431, 362.999 1230.777, 362.999 1231.116 C 363 1231.984, 375.136 1236.445, 377.227 1236.346 C 378.177 1236.301, 378.713 1236.655, 378.418 1237.132 C 378.123 1237.609, 378.584 1238.056, 379.441 1238.125 C 381.529 1238.292, 381.907 1238.416, 386.243 1240.351 C 388.302 1241.270, 391.002 1242.129, 392.243 1242.261 C 393.484 1242.392, 394.733 1242.808, 395.019 1243.185 C 395.304 1243.561, 396.654 1244.056, 398.019 1244.283 C 399.383 1244.511, 401.625 1245.163, 403 1245.731 C 404.375 1246.300, 405.837 1246.566, 406.250 1246.324 C 406.662 1246.081, 407 1246.308, 407 1246.830 C 407 1247.727, 412.601 1249.366, 416.135 1249.502 C 417.035 1249.536, 418.385 1250.075, 419.137 1250.698 C 419.888 1251.322, 421.852 1252.024, 423.501 1252.258 C 425.151 1252.492, 427.355 1253.053, 428.400 1253.506 C 429.445 1253.959, 431.766 1254.366, 433.557 1254.412 C 435.347 1254.457, 436.626 1254.796, 436.398 1255.165 C 436.021 1255.774, 444.105 1257.905, 453 1259.540 C 456.756 1260.231, 457.180 1260.328, 461 1261.368 C 462.375 1261.743, 465.079 1262.170, 467.010 1262.317 C 468.940 1262.465, 470.965 1262.855, 471.510 1263.185 C 472.054 1263.515, 474.525 1264.068, 477 1264.414 C 479.475 1264.759, 483.163 1265.430, 485.195 1265.903 C 487.227 1266.377, 490.265 1266.648, 491.945 1266.505 C 493.625 1266.362, 495 1266.640, 495 1267.122 C 495 1267.605, 495.477 1268, 496.059 1268 C 496.641 1268, 496.780 1267.438, 496.367 1266.750 C 495.850 1265.889, 496.138 1265.923, 497.295 1266.862 C 498.219 1267.611, 499.641 1267.968, 500.455 1267.656 C 501.270 1267.343, 502.169 1267.465, 502.454 1267.926 C 502.953 1268.734, 509.901 1269.704, 522.500 1270.726 C 525.800 1270.994, 530.750 1271.476, 533.500 1271.797 C 540.872 1272.658, 624.335 1272.624, 632.500 1271.756 C 636.350 1271.347, 642.650 1270.754, 646.500 1270.437 C 650.350 1270.121, 654.175 1269.599, 655 1269.277 C 655.825 1268.956, 657.272 1268.787, 658.216 1268.903 C 659.159 1269.019, 662.534 1268.598, 665.716 1267.966 C 668.897 1267.335, 672.175 1266.796, 673 1266.768 C 674.480 1266.718, 694.089 1263.253, 697 1262.527 C 697.825 1262.321, 699.539 1262.119, 700.809 1262.077 C 702.079 1262.034, 702.888 1261.627, 702.606 1261.172 C 702.325 1260.717, 703.311 1260.328, 704.797 1260.309 C 711.195 1260.225, 713.087 1259.950, 712.609 1259.176 C 712.329 1258.723, 712.865 1258.353, 713.800 1258.354 C 718.681 1258.361, 721.057 1257.901, 720.532 1257.052 C 720.208 1256.527, 720.906 1256.289, 722.101 1256.519 C 723.285 1256.748, 725.201 1256.427, 726.358 1255.808 C 727.515 1255.189, 730.042 1254.541, 731.972 1254.367 C 733.903 1254.194, 735.637 1253.588, 735.827 1253.020 C 736.016 1252.452, 736.594 1252.249, 737.112 1252.569 C 737.629 1252.889, 741.303 1252.123, 745.276 1250.868 C 749.249 1249.612, 752.837 1248.510, 753.250 1248.418 C 753.663 1248.325, 754.112 1248.159, 754.250 1248.048 C 754.388 1247.938, 755.323 1247.691, 756.328 1247.501 C 757.334 1247.310, 758.909 1246.821, 759.828 1246.413 C 760.748 1246.006, 761.837 1245.578, 762.250 1245.461 C 762.663 1245.345, 763.112 1245.159, 763.250 1245.048 C 763.388 1244.938, 764.323 1244.691, 765.328 1244.501 C 766.334 1244.310, 767.909 1243.826, 768.828 1243.426 C 769.748 1243.026, 771.098 1242.576, 771.828 1242.426 C 772.559 1242.276, 773.909 1241.826, 774.828 1241.426 C 775.748 1241.026, 777.098 1240.576, 777.828 1240.426 C 778.559 1240.276, 779.909 1239.826, 780.828 1239.426 C 781.748 1239.026, 782.950 1238.570, 783.500 1238.414 C 788.108 1237.107, 793.894 1234.213, 793.271 1233.527 C 792.847 1233.061, 793.102 1233.027, 793.837 1233.452 C 794.572 1233.878, 796.822 1233.523, 798.837 1232.664 C 800.852 1231.805, 806.438 1229.451, 811.250 1227.433 C 816.063 1225.414, 820 1223.366, 820 1222.881 C 820 1222.397, 820.337 1222.053, 820.750 1222.118 C 823.206 1222.506, 825.037 1221.869, 824.405 1220.845 C 823.986 1220.168, 824.128 1219.961, 824.748 1220.344 C 826.059 1221.155, 836.227 1216.560, 835.261 1215.594 C 834.876 1215.209, 835.335 1215.191, 836.280 1215.554 C 837.352 1215.965, 838 1215.734, 838 1214.940 C 838 1214.240, 838.275 1213.942, 838.611 1214.278 C 838.947 1214.614, 844.010 1212.369, 849.861 1209.288 C 855.712 1206.208, 861.850 1203, 863.500 1202.160 C 865.150 1201.320, 867.096 1199.928, 867.824 1199.066 C 868.552 1198.205, 868.843 1198.096, 868.470 1198.824 C 867.907 1199.920, 868.152 1199.922, 869.895 1198.833 C 871.053 1198.110, 872 1197.151, 872 1196.700 C 872 1196.250, 872.419 1196.141, 872.931 1196.457 C 873.443 1196.774, 874.108 1196.634, 874.410 1196.146 C 874.711 1195.659, 877.442 1194.003, 880.479 1192.467 C 883.515 1190.930, 886 1189.297, 886 1188.836 C 886 1188.376, 886.497 1188, 887.105 1188 C 887.713 1188, 890.075 1186.762, 892.355 1185.250 C 894.635 1183.737, 897.738 1181.861, 899.250 1181.081 C 900.763 1180.301, 902 1179.288, 902 1178.831 C 902 1178.374, 902.609 1178, 903.354 1178 C 904.099 1178, 905.899 1176.896, 907.354 1175.548 C 908.809 1174.199, 910 1173.377, 910 1173.722 C 910 1174.067, 911.013 1173.460, 912.250 1172.374 C 913.488 1171.288, 916.413 1169.123, 918.750 1167.564 C 921.087 1166.004, 923 1164.313, 923 1163.805 C 923 1163.297, 923.393 1163.125, 923.872 1163.421 C 924.352 1163.718, 926.265 1162.508, 928.122 1160.733 C 929.980 1158.957, 931.725 1157.571, 932 1157.652 C 932.275 1157.734, 932.387 1157.395, 932.250 1156.900 C 932.112 1156.405, 932.337 1156.099, 932.750 1156.219 C 933.539 1156.450, 942 1151.043, 942 1150.308 C 942 1150.074, 941.480 1150.203, 940.845 1150.595 C 940.124 1151.041, 939.963 1150.869, 940.415 1150.138 C 940.813 1149.494, 941.500 1149.191, 941.942 1149.464 C 942.383 1149.737, 944.265 1148.508, 946.122 1146.733 C 947.980 1144.957, 949.725 1143.571, 950 1143.652 C 950.275 1143.734, 950.387 1143.395, 950.250 1142.900 C 950.112 1142.405, 950.380 1142.112, 950.845 1142.250 C 952.077 1142.615, 962.814 1133.998, 970.951 1126.116 C 974.828 1122.360, 978 1119.535, 978 1119.839 C 978 1120.144, 979.557 1118.883, 981.461 1117.038 C 983.365 1115.193, 984.681 1113.293, 984.387 1112.817 C 984.092 1112.340, 984.447 1112.074, 985.176 1112.225 C 985.904 1112.376, 986.376 1111.904, 986.225 1111.176 C 986.074 1110.447, 986.333 1110.088, 986.801 1110.377 C 987.984 1111.108, 1001.239 1097.572, 1000.279 1096.612 C 999.851 1096.184, 1000.175 1095.983, 1001 1096.167 C 1001.825 1096.350, 1002.387 1095.937, 1002.250 1095.250 C 1002.112 1094.562, 1002.562 1094.112, 1003.250 1094.250 C 1003.937 1094.387, 1004.387 1093.937, 1004.250 1093.250 C 1004.112 1092.562, 1004.562 1092.112, 1005.250 1092.250 C 1005.937 1092.387, 1006.387 1091.937, 1006.250 1091.250 C 1006.112 1090.562, 1006.337 1090.112, 1006.750 1090.250 C 1007.162 1090.387, 1007.725 1090.064, 1008 1089.531 C 1008.275 1088.999, 1010.982 1086.074, 1014.017 1083.031 C 1021.343 1075.685, 1034 1060.545, 1034 1059.128 C 1034 1058.508, 1034.390 1058, 1034.868 1058 C 1035.345 1058, 1038.607 1054.138, 1042.118 1049.419 C 1045.628 1044.699, 1049.553 1039.524, 1050.839 1037.919 C 1052.125 1036.313, 1052.859 1035, 1052.470 1035 C 1052.081 1035, 1053.166 1033.565, 1054.881 1031.810 C 1056.597 1030.056, 1058 1028.259, 1058 1027.818 C 1058 1027.376, 1058.946 1025.927, 1060.103 1024.597 C 1061.259 1023.267, 1062.161 1021.915, 1062.106 1021.593 C 1062.052 1021.270, 1062.952 1019.920, 1064.106 1018.593 C 1065.261 1017.265, 1066.246 1015.801, 1066.297 1015.339 C 1066.347 1014.878, 1067.201 1013.628, 1068.194 1012.561 C 1069.187 1011.495, 1070 1010.033, 1070 1009.311 C 1070 1008.590, 1070.374 1008, 1070.831 1008 C 1071.288 1008, 1072.300 1006.763, 1073.079 1005.250 C 1073.859 1003.738, 1074.761 1002.275, 1075.084 1002 C 1076.328 1000.941, 1084.333 986.516, 1084.333 985.334 C 1084.333 984.649, 1084.661 984.291, 1085.062 984.538 C 1086.084 985.170, 1087.147 982.046, 1086.349 980.755 C 1085.987 980.170, 1086.128 979.961, 1086.662 980.291 C 1087.196 980.621, 1088.416 979.566, 1089.373 977.946 C 1090.330 976.326, 1090.750 974.993, 1090.307 974.985 C 1089.863 974.976, 1090.006 974.639, 1090.625 974.235 C 1092.245 973.176, 1101.021 955.354, 1100.284 954.618 C 1099.945 954.278, 1100.137 954, 1100.712 954 C 1101.788 954, 1104.662 948.089, 1104.238 946.750 C 1104.107 946.337, 1104.420 946, 1104.933 946 C 1105.446 946, 1106.184 944.995, 1106.574 943.767 C 1106.964 942.539, 1108.848 938.152, 1110.761 934.017 C 1112.674 929.883, 1114.344 926.050, 1114.471 925.500 C 1114.599 924.950, 1115.167 923.375, 1115.734 922 C 1116.301 920.625, 1116.523 919.093, 1116.228 918.595 C 1115.933 918.098, 1116.211 918.012, 1116.845 918.405 C 1117.530 918.827, 1118 918.483, 1118 917.559 C 1118 914.997, 1118.123 914.556, 1119.207 913.250 C 1119.778 912.563, 1119.910 912, 1119.500 912 C 1119.090 912, 1119.200 911.438, 1119.744 910.750 C 1120.288 910.063, 1120.667 908.297, 1120.587 906.827 C 1120.506 905.357, 1120.792 904.371, 1121.220 904.636 C 1122.576 905.474, 1122.063 890.662, 1120.533 884.787 C 1119.726 881.689, 1117.588 876.315, 1115.783 872.845 C 1112.487 866.510, 1101.982 855, 1099.496 855 C 1098.765 855, 1098.017 854.584, 1097.833 854.075 C 1097.650 853.566, 1096.836 853.004, 1096.024 852.825 C 1095.212 852.646, 1093.938 851.933, 1093.193 851.241 C 1092.448 850.548, 1091.463 850.214, 1091.005 850.497 C 1090.546 850.781, 1090.020 850.603, 1089.835 850.102 C 1089.651 849.601, 1088.375 849.035, 1087 848.845 C 1085.625 848.655, 1084.179 848.050, 1083.787 847.500 C 1082.713 845.995, 1059.660 846.209, 1057.813 847.741 C 1056.989 848.424, 1056.058 848.725, 1055.744 848.410 C 1055.429 848.096, 1054.120 848.415, 1052.836 849.121 C 1051.551 849.826, 1049.870 850.508, 1049.100 850.635 C 1048.330 850.763, 1047.430 851.234, 1047.100 851.684 C 1046.770 852.133, 1045.655 852.645, 1044.623 852.823 C 1043.591 853.001, 1040.441 854.176, 1037.623 855.434 C 1028.619 859.456, 1026.527 860.326, 1025.275 860.574 C 1023.255 860.973, 1014.538 864.355, 1014 864.949 C 1013.725 865.252, 1012.375 865.626, 1011 865.779 C 1009.625 865.933, 1008.349 866.498, 1008.165 867.036 C 1007.980 867.573, 1007.470 867.791, 1007.032 867.520 C 1006.593 867.249, 1003.594 867.957, 1000.367 869.094 C 997.140 870.231, 993.825 871.316, 993 871.504 C 992.175 871.693, 991.500 871.918, 991.500 872.006 C 991.500 872.093, 990.158 872.382, 988.519 872.647 C 986.879 872.913, 985.304 873.454, 985.019 873.849 C 984.733 874.244, 983.825 874.534, 983 874.494 C 982.175 874.454, 977.675 875.461, 973 876.731 C 968.325 878.001, 963.150 879.231, 961.500 879.463 C 959.850 879.695, 957.600 880.088, 956.500 880.336 C 955.400 880.585, 950.900 881.332, 946.500 881.996 C 942.100 882.660, 938.131 883.428, 937.681 883.703 C 937.231 883.978, 934.756 884.384, 932.181 884.605 C 929.606 884.827, 926.150 885.180, 924.500 885.390 C 904.520 887.935, 864.849 888.981, 844 887.514 C 827.609 886.360, 825.530 886.170, 822.982 885.589 C 820.124 884.938, 809.799 883.746, 805.750 883.599 C 804.237 883.545, 803 883.220, 803 882.879 C 803 882.335, 800.469 881.846, 790 880.369 C 783.484 879.449, 779.425 878.635, 777 877.762 C 775.609 877.261, 760.392 873.220, 757 872.450 C 756.175 872.263, 754.038 871.666, 752.250 871.125 C 750.462 870.583, 749 870.388, 749 870.692 C 749 870.996, 748.438 870.798, 747.750 870.253 C 746.515 869.273, 740.469 867.112, 737.190 866.479 C 736.261 866.300, 735.388 866.062, 735.250 865.952 C 735.112 865.841, 734.550 865.638, 734 865.500 C 733.450 865.362, 732.775 865.138, 732.500 865 C 732.225 864.862, 731.550 864.638, 731 864.500 C 730.450 864.362, 729.775 864.138, 729.500 864 C 729.225 863.862, 728.663 863.678, 728.250 863.590 C 727.837 863.501, 726.449 862.846, 725.164 862.134 C 723.880 861.421, 722.571 861.096, 722.256 861.410 C 721.942 861.725, 721.065 861.469, 720.307 860.840 C 718.294 859.169, 702.744 853.040, 701.877 853.576 C 701.471 853.827, 700.863 853.587, 700.527 853.043 C 699.984 852.165, 683.259 843.551, 682 843.500 C 681.725 843.490, 678.034 841.572, 673.797 839.240 C 669.561 836.908, 665.661 835, 665.130 835 C 664.600 835, 664.008 834.525, 663.815 833.946 C 663.622 833.366, 662.706 832.780, 661.780 832.644 C 660.854 832.508, 659.287 831.717, 658.298 830.886 C 655.261 828.334, 651.001 825.911, 650.985 826.727 C 650.976 827.152, 650.639 827.020, 650.235 826.434 C 649.167 824.885, 640.329 819, 639.070 819 C 638.481 819, 638 818.633, 638 818.184 C 638 817.735, 636.148 816.273, 633.884 814.934 C 627.762 811.314, 625.946 810.028, 618.442 804 C 614.677 800.975, 611.349 798.497, 611.048 798.494 C 610.747 798.491, 608.477 796.579, 606.005 794.244 C 603.533 791.910, 601.243 790, 600.915 790 C 600.587 790, 598.539 788.313, 596.363 786.250 C 594.188 784.188, 589.229 779.475, 585.344 775.777 C 581.459 772.079, 577.954 769.379, 577.556 769.777 C 577.159 770.175, 576.983 769.990, 577.167 769.367 C 577.350 768.745, 572.100 762.665, 565.500 755.858 C 558.900 749.050, 552.767 742.360, 551.872 740.990 C 550.977 739.621, 548.727 736.925, 546.873 735 C 545.019 733.075, 543.501 731.241, 543.501 730.925 C 543.500 730.357, 540.122 725.958, 534.750 719.528 C 533.237 717.717, 532 715.959, 532 715.620 C 532 714.653, 524.825 704.640, 523.136 703.250 C 522.301 702.563, 521.915 702, 522.279 702 C 522.939 702, 519.129 695.787, 516.794 693.057 C 516.116 692.263, 515.460 690.926, 515.336 690.084 C 515.213 689.243, 514.479 688.092, 513.707 687.527 C 512.934 686.962, 512.240 686.159, 512.164 685.743 C 511.946 684.543, 506.804 674.553, 506.119 674 C 505.778 673.725, 503.479 669.225, 501.009 664 C 498.539 658.775, 495.855 653.420, 495.045 652.100 C 494.236 650.780, 493.486 649.205, 493.380 648.600 C 493.273 647.995, 491.944 644.800, 490.425 641.500 C 488.906 638.200, 487.557 634.956, 487.426 634.291 C 487.296 633.626, 485.761 629.576, 484.015 625.291 C 482.269 621.006, 480.685 616.825, 480.496 616 C 480.307 615.175, 479.405 612.475, 478.493 610 C 477.581 607.525, 476.180 603.051, 475.380 600.057 C 474.580 597.064, 473.437 594.026, 472.840 593.307 C 472.243 592.588, 471.971 592, 472.235 592 C 472.499 592, 471.633 587.612, 470.310 582.250 C 467.624 571.361, 467.660 571.535, 466.546 564.250 C 466.104 561.362, 465.364 559, 464.903 559 C 464.441 559, 464.293 558.400, 464.574 557.668 C 464.855 556.935, 464.594 554.347, 463.993 551.918 C 463.392 549.488, 462.714 545.475, 462.488 543 C 462.261 540.525, 461.833 536.925, 461.538 535 C 461.242 533.075, 460.750 526.550, 460.443 520.500 C 460.137 514.450, 459.634 508.825, 459.326 508 C 458.493 505.768, 458.337 470.899, 459.148 468 C 459.532 466.625, 460.139 460.325, 460.497 454 C 460.855 447.675, 461.316 441.150, 461.521 439.500 C 462.331 432.983, 464.936 417.241, 465.958 412.685 C 466.552 410.037, 466.801 407.488, 466.513 407.020 C 466.224 406.553, 466.399 406.020, 466.902 405.835 C 467.404 405.651, 467.946 403.925, 468.106 402 C 468.265 400.075, 468.704 398.050, 469.081 397.500 C 469.458 396.950, 470.287 394.025, 470.923 391 C 472.449 383.740, 480.579 357.283, 483.060 351.500 C 485.445 345.942, 488.821 337, 488.534 337 C 488.354 337, 490.912 331.488, 494.217 324.750 C 497.523 318.012, 500.308 311.983, 500.407 311.351 C 500.507 310.719, 501.186 309.481, 501.916 308.601 C 502.647 307.720, 502.933 307, 502.551 307 C 502.169 307, 502.568 306.289, 503.438 305.419 C 504.307 304.550, 504.763 303.425, 504.450 302.919 C 504.138 302.414, 504.307 302, 504.827 302 C 505.618 302, 509.328 295.605, 509.468 294 C 509.492 293.725, 510.325 292.375, 511.319 291 C 514.035 287.245, 529.941 262.700, 530.661 261.154 C 531.005 260.414, 532.561 258.415, 534.117 256.711 C 535.673 255.007, 536.768 253.435, 536.550 253.217 C 536.332 252.999, 537.522 251.399, 539.194 249.660 C 544.936 243.692, 552.563 231.440, 553.424 226.803 C 553.659 225.536, 553.919 224.500, 554.002 224.500 C 554.290 224.500, 555.071 220.480, 555.522 216.675 C 555.771 214.571, 556.183 212.513, 556.437 212.102 C 558.053 209.487, 552.098 186, 549.819 186 C 549.304 186, 549.118 185.618, 549.406 185.151 C 549.695 184.685, 549.046 183.354, 547.965 182.193 C 546.884 181.033, 546 179.655, 546 179.130 C 546 177.208, 532.659 165.917, 531.096 166.517 C 530.252 166.841, 529.893 166.774, 530.298 166.369 C 531.379 165.288, 521.046 160.719, 517.253 160.601 C 515.467 160.545, 514.005 160.162, 514.003 159.750 C 513.999 158.721, 498.007 159.053, 489.750 160.253 M 773.071 308.329 C 772.482 308.918, 772 309.073, 772 308.674 C 772 307.280, 766.217 310.953, 763.697 313.948 C 761.617 316.420, 757.627 325.099, 756.547 329.500 C 756.412 330.050, 756.017 331.175, 755.668 332 C 754.191 335.493, 752.120 342, 752.485 342 C 752.703 342, 752.256 343.205, 751.492 344.678 C 750.728 346.151, 750.331 347.726, 750.610 348.178 C 750.890 348.630, 750.641 349, 750.059 349 C 749.477 349, 749 349.697, 749 350.550 C 749 351.402, 748.326 353.403, 747.502 354.996 C 746.678 356.590, 745.811 358.930, 745.576 360.197 C 745.341 361.464, 745.059 362.613, 744.949 362.750 C 744.840 362.887, 744.661 363.337, 744.552 363.750 C 744.443 364.163, 743.557 366.396, 742.583 368.713 C 741.609 371.029, 740.872 373.184, 740.945 373.501 C 741.347 375.253, 731.226 383, 728.535 383 C 727.691 383, 727 383.337, 726.999 383.750 C 726.999 384.163, 725.986 384.572, 724.749 384.660 C 723.512 384.748, 720.700 385.615, 718.500 386.586 C 716.300 387.557, 713.774 388.486, 712.886 388.649 C 711.999 388.812, 709.974 389.440, 708.386 390.043 C 706.799 390.647, 705.275 391.163, 705 391.190 C 703.946 391.293, 682.718 399.057, 681.637 399.734 C 681.012 400.126, 680.050 400.503, 679.500 400.571 C 678.950 400.640, 677.911 400.764, 677.191 400.848 C 676.470 400.932, 676.203 401.519, 676.595 402.155 C 677.035 402.866, 676.870 403.038, 676.166 402.603 C 675.509 402.197, 673.350 403.602, 671.091 405.907 C 666.100 410.999, 664.181 418.476, 666.143 425.189 C 666.836 427.560, 667.650 429.725, 667.951 430 C 668.253 430.275, 668.994 431.400, 669.597 432.500 C 671.725 436.378, 682.980 442.255, 690.472 443.399 C 691.037 443.486, 692.036 443.891, 692.691 444.300 C 693.345 444.710, 697.395 446.173, 701.691 447.553 C 705.986 448.933, 710.175 450.341, 711 450.681 C 711.825 451.022, 713.365 451.467, 714.422 451.670 C 715.478 451.873, 716.864 452.472, 717.500 453 C 718.136 453.528, 719.522 454.095, 720.578 454.259 C 721.635 454.423, 722.950 454.823, 723.500 455.148 C 724.050 455.472, 726.246 456.301, 728.381 456.989 C 733.128 458.521, 739.562 464.166, 741.363 468.379 C 742.096 470.096, 743.506 473.975, 744.496 477 C 745.485 480.025, 746.775 483.400, 747.362 484.500 C 747.949 485.600, 748.456 486.725, 748.489 487 C 748.771 489.371, 751.457 497.165, 752.137 497.585 C 752.612 497.878, 753 498.781, 753 499.591 C 753 500.401, 753.744 502.737, 754.654 504.782 C 755.564 506.827, 756.233 508.856, 756.141 509.291 C 756.049 509.725, 756.520 511.075, 757.188 512.291 C 757.856 513.506, 758.538 515.311, 758.703 516.303 C 759.415 520.572, 766.896 530.196, 769.609 530.333 C 770.099 530.358, 771.544 530.919, 772.819 531.581 C 775.494 532.969, 786.796 532.873, 787.815 531.454 C 788.192 530.929, 789.061 530.388, 789.746 530.251 C 791.540 529.893, 797.793 523.773, 798.176 522 C 798.354 521.175, 798.791 520.275, 799.147 520 C 799.503 519.725, 799.953 518.375, 800.147 517 C 800.341 515.625, 800.780 514.275, 801.123 514 C 802.018 513.282, 807.063 499, 806.422 499 C 806.127 499, 806.587 498, 807.443 496.777 C 808.299 495.555, 809.003 493.868, 809.006 493.027 C 809.010 492.187, 809.630 490.316, 810.385 488.869 C 811.947 485.876, 816.465 473.014, 816.486 471.500 C 816.494 470.950, 816.801 470.271, 817.170 469.991 C 817.538 469.710, 817.988 468.815, 818.170 468.002 C 819 464.282, 825.653 458.933, 832.500 456.481 C 836.350 455.102, 840.175 453.686, 841 453.336 C 841.825 452.985, 842.950 452.596, 843.500 452.471 C 844.617 452.217, 860.055 446.951, 866.992 444.458 C 869.463 443.570, 871.979 442.432, 872.584 441.930 C 873.189 441.428, 873.924 441.258, 874.218 441.551 C 875.253 442.586, 885.538 437.218, 888.437 434.129 C 890.052 432.408, 891.033 431, 890.616 431 C 890.198 431, 890.568 430.289, 891.438 429.419 C 892.307 428.550, 892.763 427.425, 892.450 426.919 C 892.138 426.414, 892.359 426, 892.941 426 C 893.558 426, 894 423.704, 894 420.500 C 894 417.475, 893.564 415, 893.031 415 C 892.499 415, 892.322 414.325, 892.638 413.500 C 892.955 412.675, 892.689 412, 892.048 412 C 891.407 412, 891.173 411.530, 891.528 410.955 C 892.371 409.591, 883.409 400.629, 882.045 401.472 C 881.470 401.827, 881 401.735, 881 401.266 C 881 400.612, 871.855 396.915, 869 396.415 C 868.725 396.367, 867.748 395.994, 866.828 395.587 C 865.909 395.179, 864.559 394.702, 863.828 394.526 C 863.098 394.350, 861.500 393.885, 860.279 393.494 C 859.057 393.102, 857.757 392.869, 857.390 392.976 C 857.024 393.083, 856.395 392.638, 855.992 391.988 C 855.590 391.337, 854.078 390.736, 852.631 390.652 C 851.185 390.569, 850.001 390.245, 850.001 389.933 C 850 389.287, 835.384 384.667, 833.341 384.667 C 832.604 384.667, 832 384.346, 832 383.955 C 832 383.293, 827.078 380.906, 825.293 380.702 C 822.394 380.372, 818.999 374.446, 814.598 362.035 C 812.557 356.279, 810.501 351.104, 810.029 350.535 C 809.556 349.966, 809.132 349.163, 809.085 348.750 C 809.038 348.337, 808.966 347.887, 808.923 347.750 C 808.881 347.613, 808.683 346.825, 808.483 346 C 807.794 343.166, 799.114 319.082, 798.096 317.179 C 797.535 316.131, 795.469 313.863, 793.503 312.137 C 790.222 309.256, 788.780 308.561, 786.750 308.882 C 786.337 308.947, 786 308.548, 786 307.995 C 786 306.652, 774.449 306.951, 773.071 308.329 M 965.250 532.753 C 964.013 532.965, 963 533.584, 963 534.129 C 963 534.673, 962.615 534.880, 962.145 534.590 C 960.903 533.822, 957.434 537.911, 955.647 542.250 C 954.797 544.313, 954.359 546, 954.673 546 C 954.988 546, 954.749 546.598, 954.142 547.328 C 953.536 548.059, 952.872 549.522, 952.668 550.578 C 952.463 551.635, 951.832 553.625, 951.265 555 C 950.699 556.375, 950.434 557.837, 950.676 558.250 C 950.919 558.663, 950.641 559, 950.059 559 C 949.477 559, 949 559.639, 949 560.421 C 949 561.202, 947.467 565.477, 945.593 569.921 C 943.719 574.364, 942.481 578.004, 942.843 578.009 C 944.883 578.039, 934.410 583.113, 928.250 585.079 C 924.263 586.352, 921 587.782, 921 588.256 C 921 588.730, 920.630 588.890, 920.178 588.610 C 919.726 588.331, 918.151 588.728, 916.678 589.492 C 915.205 590.256, 914 590.687, 914 590.449 C 914 590.006, 908.401 591.965, 901.795 594.719 C 896.518 596.918, 893.137 602.305, 893.457 608 C 893.797 614.057, 893.646 613.651, 896.750 616.874 C 899.084 619.297, 901.722 620.757, 905.250 621.576 C 905.663 621.672, 906.225 621.862, 906.500 622 C 906.775 622.138, 907.337 622.345, 907.750 622.461 C 908.163 622.578, 909.175 622.968, 910 623.329 C 910.825 623.690, 917.287 625.994, 924.359 628.449 C 931.431 630.904, 938.238 633.581, 939.484 634.398 C 941.627 635.802, 949 651.455, 949 654.600 C 949 655.370, 949.337 656, 949.750 656.001 C 950.163 656.001, 950.569 657.185, 950.652 658.631 C 950.736 660.078, 951.411 661.646, 952.152 662.115 C 952.894 662.585, 953.187 662.976, 952.804 662.985 C 951.894 663.005, 955.592 673.728, 957.528 676.683 C 958.353 677.942, 960.213 679.748, 961.661 680.697 C 964.686 682.679, 972.544 683.294, 975.496 681.779 C 978.625 680.173, 981.994 676.799, 981.410 675.855 C 981.120 675.385, 981.322 675, 981.861 675 C 982.759 675, 986.451 665.818, 986.485 663.500 C 986.493 662.950, 986.826 662.255, 987.225 661.956 C 987.624 661.657, 988.074 660.307, 988.225 658.956 C 988.376 657.605, 988.881 656.221, 989.348 655.881 C 989.814 655.540, 990.264 654.121, 990.348 652.727 C 990.431 651.333, 990.781 650.366, 991.125 650.578 C 991.786 650.985, 994.609 642.033, 994.225 640.750 C 994.101 640.337, 994.378 640, 994.839 640 C 995.301 640, 996.203 638.849, 996.844 637.443 C 997.970 634.973, 1007.112 630, 1010.529 630 C 1011.338 630, 1012 629.648, 1012 629.218 C 1012 628.788, 1013.041 628.350, 1014.314 628.245 C 1015.587 628.139, 1018.400 627.287, 1020.564 626.350 C 1022.729 625.413, 1025.098 624.536, 1025.828 624.400 C 1026.559 624.265, 1027.909 623.827, 1028.828 623.427 C 1029.748 623.027, 1031.390 622.529, 1032.479 622.321 C 1033.567 622.113, 1034.894 621.506, 1035.429 620.971 C 1035.963 620.437, 1037.125 620, 1038.012 620 C 1039.640 620, 1044.671 614.139, 1044.235 612.750 C 1044.106 612.337, 1044.450 612, 1045 612 C 1045.550 612, 1046 610.112, 1046 607.804 C 1046 601.911, 1041.426 595.301, 1037.750 595.882 C 1037.338 595.947, 1037 595.602, 1037 595.115 C 1037 594.390, 1029.385 591.375, 1025.500 590.563 C 1024.950 590.448, 1022.700 589.559, 1020.500 588.587 C 1018.300 587.615, 1015.488 586.748, 1014.251 586.660 C 1013.014 586.572, 1012.001 586.163, 1012.001 585.750 C 1012 585.337, 1011.188 585, 1010.196 585 C 1009.204 585, 1006.039 583.827, 1003.162 582.394 C 997.650 579.647, 995.448 576.600, 992.963 568.283 C 992.270 565.963, 991.325 564.299, 990.863 564.585 C 990.401 564.870, 990.291 564.406, 990.618 563.552 C 990.947 562.696, 990.691 562, 990.048 562 C 989.407 562, 989.137 561.588, 989.448 561.085 C 989.759 560.581, 988.245 555.360, 986.085 549.482 C 982.406 539.476, 978.714 533.441, 976.940 534.537 C 976.517 534.799, 976.001 534.503, 975.794 533.881 C 975.407 532.720, 969.266 532.063, 965.250 532.753" stroke="none" fill="#fffcfc" fill-rule="evenodd"/><path d="" stroke="none" fill="#fcfcfc" fill-rule="evenodd"/></svg>