<svg xmlns="http://www.w3.org/2000/svg" width="1280" height="1280" viewBox="0 0 1280 1280" version="1.1"><path d="" stroke="none" fill="#504c4c" fill-rule="evenodd"/><path d="M 166.378 10.984 C 165.211 11.455, 161.787 12.036, 158.770 12.274 C 155.753 12.512, 152.706 13.064, 151.998 13.501 C 151.291 13.938, 148.865 14.504, 146.606 14.760 C 144.348 15.015, 141.742 15.623, 140.816 16.112 C 139.889 16.600, 138.253 17, 137.180 17 C 136.107 17, 133.940 17.672, 132.364 18.494 C 130.789 19.315, 128.739 19.990, 127.809 19.994 C 126.879 19.997, 125.840 20.450, 125.500 21 C 125.160 21.550, 124.009 22, 122.941 22 C 121.873 22, 121 22.477, 121 23.059 C 121 23.641, 120.581 23.859, 120.069 23.543 C 119.557 23.226, 118.856 23.425, 118.510 23.984 C 118.165 24.543, 117.009 25, 115.941 25 C 114.873 25, 114 25.450, 114 26 C 114 26.550, 113.319 27, 112.486 27 C 110.744 27, 106.845 29.030, 105.765 30.500 C 105.361 31.050, 105.024 31.093, 105.015 30.595 C 105.007 30.097, 104.053 30.547, 102.895 31.595 C 101.737 32.643, 100.572 33.341, 100.306 33.147 C 100.039 32.953, 98.818 33.628, 97.591 34.647 C 96.364 35.666, 94.717 36.646, 93.930 36.825 C 93.144 37.004, 92.350 37.566, 92.167 38.075 C 91.983 38.584, 91.372 39, 90.808 39 C 89.427 39, 77 48.173, 77 49.193 C 77 49.637, 76.416 50, 75.703 50 C 74.262 50, 52.794 71.101, 52.115 73.184 C 51.880 73.908, 50.698 75.400, 49.489 76.500 C 46.174 79.516, 39.019 89.686, 39.719 90.386 C 40.057 90.724, 39.797 91, 39.142 91 C 38.487 91, 37.507 92.013, 36.965 93.250 C 36.422 94.487, 34.903 97.300, 33.587 99.500 C 32.272 101.700, 31.403 103.838, 31.657 104.250 C 31.911 104.663, 31.744 105, 31.286 105 C 30.048 105, 22.533 120.521, 21.846 124.500 C 21.656 125.600, 21.192 126.733, 20.815 127.019 C 20.439 127.304, 19.946 128.654, 19.722 130.019 C 19.497 131.383, 18.792 133.767, 18.156 135.315 C 17.520 136.863, 17 138.911, 17 139.865 C 17 140.819, 16.631 142.028, 16.179 142.550 C 15.384 143.470, 13.247 154.841, 11.063 169.769 C 9.698 179.105, 9.604 1103.563, 10.968 1109.500 C 11.474 1111.700, 11.990 1116.109, 12.117 1119.298 C 12.243 1122.487, 12.718 1125.326, 13.173 1125.607 C 13.628 1125.888, 13.994 1127.104, 13.986 1128.309 C 13.971 1130.834, 18.101 1147.251, 18.940 1148 C 19.248 1148.275, 19.610 1149.529, 19.745 1150.788 C 19.880 1152.046, 20.892 1154.943, 21.995 1157.226 C 23.098 1159.508, 24 1161.860, 24 1162.453 C 24 1163.045, 24.901 1165.210, 26.002 1167.265 C 27.103 1169.319, 27.666 1171.007, 27.252 1171.015 C 26.838 1171.024, 26.950 1171.361, 27.500 1171.765 C 28.050 1172.169, 29.812 1175.088, 31.416 1178.250 C 33.020 1181.412, 34.734 1184, 35.225 1184 C 35.716 1184, 35.882 1184.382, 35.594 1184.849 C 35.305 1185.315, 35.954 1186.646, 37.035 1187.807 C 38.116 1188.967, 39 1190.340, 39 1190.858 C 39 1191.697, 42.440 1196.616, 49.223 1205.474 C 54.204 1211.979, 73.489 1230.330, 82.320 1236.968 C 87.466 1240.836, 91.951 1244, 92.288 1244 C 92.624 1244, 94.877 1245.334, 97.293 1246.965 C 99.710 1248.596, 102.770 1250.395, 104.094 1250.963 C 105.417 1251.531, 107.175 1252.397, 108 1252.888 C 108.825 1253.378, 111.075 1254.460, 113 1255.292 C 114.925 1256.123, 118.525 1257.715, 121 1258.830 C 125.415 1260.818, 132.203 1263.169, 134.828 1263.618 C 135.559 1263.744, 136.909 1264.183, 137.828 1264.596 C 140.431 1265.763, 149.976 1268.036, 155.500 1268.805 C 161.646 1269.659, 1115.916 1269.742, 1121.500 1268.888 C 1125.461 1268.283, 1131.510 1266.789, 1137.707 1264.886 C 1139.470 1264.345, 1141.720 1263.745, 1142.707 1263.553 C 1143.693 1263.361, 1147.088 1262.058, 1150.250 1260.657 C 1153.413 1259.256, 1156 1258.277, 1156 1258.480 C 1156 1258.683, 1159.614 1257.084, 1164.032 1254.925 C 1168.449 1252.766, 1172.239 1251, 1172.453 1251 C 1173.119 1251, 1189.316 1240.829, 1193 1238.097 C 1194.925 1236.669, 1197.088 1234.713, 1197.807 1233.751 C 1198.525 1232.788, 1199.789 1232, 1200.616 1232 C 1201.442 1232, 1201.840 1231.550, 1201.500 1231 C 1201.160 1230.450, 1201.532 1230, 1202.326 1230 C 1205.896 1230, 1237 1195.099, 1237 1191.093 C 1237 1190.492, 1237.379 1190, 1237.843 1190 C 1238.306 1190, 1239.543 1188.312, 1240.593 1186.250 C 1241.642 1184.188, 1242.763 1182.275, 1243.084 1182 C 1243.761 1181.420, 1251 1166.428, 1251 1165.605 C 1251 1165.303, 1252.071 1162.680, 1253.380 1159.777 C 1256.623 1152.585, 1259 1145.788, 1259 1143.703 C 1259 1142.751, 1259.418 1141.191, 1259.928 1140.236 C 1261.003 1138.226, 1262.985 1128.536, 1263.658 1122 C 1263.912 1119.525, 1264.544 1116.195, 1265.060 1114.601 C 1265.633 1112.835, 1266 1040.047, 1266 928.473 C 1266 770.076, 1265.802 744.771, 1264.540 741.749 C 1263.736 739.827, 1263.307 738.027, 1263.584 737.749 C 1264.206 737.127, 1259.499 726.965, 1256.019 721.415 C 1250.639 712.835, 1236.996 701, 1232.485 701 C 1231.668 701, 1231 700.550, 1231 700 C 1231 699.450, 1230.361 699, 1229.581 699 C 1228.801 699, 1226.888 698.368, 1225.331 697.596 C 1223.774 696.823, 1220.569 695.756, 1218.209 695.224 C 1212.107 693.848, 1194.336 693.647, 1193.534 694.945 C 1193.175 695.525, 1191.532 696, 1189.882 696 C 1186.709 696, 1170 703.685, 1170 705.144 C 1170 705.615, 1169.463 706, 1168.808 706 C 1166.061 706, 1153.435 721.242, 1150.169 728.500 C 1149.426 730.150, 1148.392 732.310, 1147.870 733.300 C 1144.699 739.313, 1144.588 744.903, 1144.044 925 C 1143.597 1073.460, 1143.260 1106.079, 1142.148 1108.763 C 1141.404 1110.557, 1141.052 1112.694, 1141.366 1113.513 C 1141.680 1114.331, 1141.490 1115, 1140.944 1115 C 1140.398 1115, 1139.562 1116.013, 1139.087 1117.250 C 1138.611 1118.487, 1136.598 1121.908, 1134.611 1124.850 C 1132.625 1127.793, 1131 1130.413, 1131 1130.672 C 1131 1131.993, 1120.610 1140.126, 1115 1143.197 C 1112.525 1144.551, 1108.250 1146.524, 1105.500 1147.580 C 1100.605 1149.460, 1092.424 1149.505, 714.500 1149.750 C 502.200 1149.888, 296.255 1150.113, 256.845 1150.250 C 217.435 1150.388, 185.399 1150.162, 185.654 1149.750 C 185.909 1149.338, 183.671 1149, 180.681 1149 C 177.691 1149, 173.502 1148.272, 171.372 1147.382 C 169.242 1146.492, 167.275 1145.756, 167 1145.747 C 164.385 1145.655, 152.920 1138.151, 149 1133.965 C 141.149 1125.582, 137.939 1120.439, 135.605 1112.500 C 134.634 1109.200, 133.422 1105.375, 132.911 1104 C 131.933 1101.370, 132.207 180.158, 133.187 176.500 C 133.481 175.400, 134.050 173.734, 134.450 172.798 C 134.850 171.862, 134.917 170.675, 134.600 170.161 C 134.282 169.647, 134.692 168.671, 135.511 167.991 C 136.330 167.311, 137 166.102, 137 165.303 C 137 164.504, 138.977 160.846, 141.393 157.175 C 147.410 148.031, 151.283 144.207, 158.257 140.523 C 160.316 139.435, 162 138.198, 162 137.773 C 162 137.348, 162.900 137, 164 137 C 165.100 137, 166 136.608, 166 136.128 C 166 135.648, 167.890 134.953, 170.200 134.584 C 172.511 134.215, 174.913 133.487, 175.540 132.967 C 176.243 132.383, 245.170 131.896, 355.590 131.693 C 470.514 131.482, 536.109 131.006, 539 130.360 C 541.475 129.808, 544.958 128.592, 546.740 127.658 C 548.521 126.724, 550.237 126.015, 550.553 126.083 C 551.997 126.393, 563.855 118.166, 568.066 113.934 C 575.426 106.535, 578.661 101.343, 583.293 89.500 C 585.933 82.749, 587.645 67.074, 586.065 64.122 C 585.587 63.229, 585.064 60.698, 584.903 58.499 C 584.742 56.300, 584.023 53.612, 583.305 52.527 C 582.587 51.443, 582 49.952, 582 49.215 C 582 47.261, 576.823 37, 575.838 37 C 575.377 37, 574.992 36.438, 574.983 35.750 C 574.958 33.879, 566.893 25.642, 561.098 21.569 C 558.294 19.598, 556 18.231, 556 18.532 C 556 18.832, 555.015 18.160, 553.811 17.039 C 552.608 15.918, 551.213 15, 550.713 15 C 550.212 15, 548.384 14.392, 546.651 13.648 C 538.169 10.011, 537.516 9.999, 351.236 10.063 C 250.731 10.098, 167.545 10.512, 166.378 10.984 M 803.500 11.256 C 799.690 12.211, 795.496 13.770, 790 16.274 C 785.402 18.369, 774.029 27.151, 771.779 30.344 C 770.555 32.080, 768.864 34.254, 768.021 35.177 C 765.705 37.710, 760 48.893, 760 50.902 C 760 51.872, 759.687 52.980, 759.304 53.362 C 758.922 53.745, 758.488 54.832, 758.340 55.779 C 757.375 61.959, 756.605 68.866, 756.643 71 C 756.745 76.659, 758.289 87.565, 759.114 88.450 C 759.601 88.973, 760 90.174, 760 91.119 C 760 93.019, 763.067 99.308, 764.250 99.833 C 764.663 100.017, 765 100.818, 765 101.615 C 765 102.411, 765.675 103.322, 766.500 103.638 C 767.325 103.955, 768 104.830, 768 105.583 C 768 108.042, 782.484 121.393, 788.103 124.112 C 797.958 128.883, 801.038 130, 804.334 130 C 806.130 130, 808.047 130.447, 808.593 130.993 C 809.241 131.641, 851.749 131.901, 931.240 131.743 L 1052.895 131.500 1050.198 134.337 C 1048.714 135.897, 1042.100 142.625, 1035.500 149.288 C 1028.900 155.951, 1023.613 161.762, 1023.750 162.201 C 1023.888 162.640, 1023.552 163, 1023.005 163 C 1022.457 163, 1017.702 167.388, 1012.438 172.750 C 996.344 189.142, 910.903 275.794, 904.250 282.469 C 900.813 285.919, 898 289.249, 898 289.870 C 898 290.492, 897.638 290.888, 897.195 290.750 C 896.110 290.413, 871.059 315.726, 871.772 316.439 C 872.081 316.747, 871.754 317, 871.047 317 C 869.497 317, 861 325.667, 861.783 326.450 C 862.086 326.752, 861.614 327, 860.734 327 C 859.854 327, 858.838 327.934, 858.476 329.075 C 858.114 330.217, 857.580 330.913, 857.290 330.623 C 856.600 329.933, 854 332.545, 854 333.929 C 854 334.518, 853.298 335, 852.441 335 C 851.584 335, 851.160 335.450, 851.500 336 C 851.840 336.550, 851.341 337, 850.392 337 C 849.443 337, 848.876 337.209, 849.132 337.466 C 849.388 337.722, 831.495 356.266, 809.370 378.675 C 787.244 401.085, 769.407 419.888, 769.731 420.460 C 770.055 421.032, 769.938 421.152, 769.469 420.726 C 768.436 419.786, 758.870 428.981, 759.619 430.193 C 759.910 430.664, 759.553 430.926, 758.824 430.775 C 758.096 430.624, 757.624 431.096, 757.775 431.824 C 757.926 432.553, 757.676 432.918, 757.219 432.635 C 756.077 431.929, 746.826 441.493, 747.754 442.421 C 748.164 442.831, 748.005 443.017, 747.401 442.833 C 746.796 442.650, 736.195 452.737, 723.843 465.250 C 711.490 477.762, 701.583 488, 701.827 488 C 702.070 488, 700.976 489.013, 699.395 490.250 C 697.813 491.488, 695.165 494.043, 693.510 495.929 C 691.854 497.814, 671.938 518.020, 649.250 540.831 C 626.563 563.641, 608 582.374, 608 582.459 C 608 582.544, 598.774 591.799, 587.497 603.027 C 576.221 614.255, 566.741 624.242, 566.430 625.220 C 566.119 626.199, 565.394 627, 564.817 627 C 563.667 627, 556 635.043, 556 636.250 C 556 636.662, 555.325 637, 554.500 637 C 553.675 637, 553 637.378, 553 637.840 C 553 638.302, 535.449 656.375, 513.997 678.003 C 492.545 699.631, 475.161 717.494, 475.365 717.698 C 475.570 717.903, 474.446 719.452, 472.868 721.141 C 471.291 722.830, 470 725.026, 470 726.022 C 470 727.018, 469.563 727.983, 469.029 728.167 C 468.495 728.350, 467.904 729.519, 467.715 730.764 C 467.527 732.009, 466.839 733.561, 466.186 734.214 C 465.534 734.866, 465 737.335, 465 739.700 C 465 742.065, 464.595 744, 464.100 744 C 462.893 744, 462.847 764.787, 464.053 765.533 C 464.574 765.855, 465 767.462, 465 769.105 C 465 772.559, 471.520 787.114, 473.599 788.300 C 474.369 788.740, 475 789.672, 475 790.373 C 475 791.728, 485.764 802.847, 486.256 802 C 486.416 801.725, 487.607 802.488, 488.904 803.696 C 490.883 805.539, 495.363 808.009, 504.040 812.039 C 505.796 812.855, 515.620 814.440, 518.250 814.332 C 519.212 814.293, 520 814.699, 520 815.235 C 520 816.130, 523.401 815.955, 530 814.719 C 531.375 814.462, 534.525 813.936, 537 813.552 C 539.475 813.167, 541.928 812.436, 542.450 811.926 C 542.973 811.417, 544.234 811, 545.253 811 C 546.272 811, 548.762 809.875, 550.785 808.500 C 552.809 807.125, 554.874 806, 555.374 806 C 557.902 806, 595.766 768.795, 595.225 766.843 C 595.074 766.298, 595.335 766.089, 595.804 766.379 C 596.767 766.974, 629 734.571, 629 733.007 C 629 732.453, 629.341 732.112, 629.757 732.250 C 630.751 732.578, 639 724.067, 639 722.713 C 639 722.137, 639.243 721.910, 639.540 722.207 C 640.154 722.821, 651 712.334, 651 711.126 C 651 710.693, 652.125 709.736, 653.500 709 C 654.875 708.264, 656 707.331, 656 706.926 C 656 706.521, 677.038 685.019, 702.750 659.145 C 728.462 633.270, 756.587 604.950, 765.250 596.211 C 773.913 587.472, 781 579.725, 781 578.994 C 781 578.264, 781.308 577.975, 781.684 578.351 C 782.580 579.247, 789 573.012, 789 571.245 C 789 570.495, 789.392 570.124, 789.872 570.421 C 790.772 570.977, 796 565.286, 796 563.748 C 796 563.272, 796.399 563.129, 796.887 563.430 C 797.374 563.731, 798.329 563.308, 799.009 562.489 C 799.689 561.670, 800.055 561, 799.822 561 C 799.590 561, 822.742 537.487, 851.271 508.750 C 915.477 444.076, 1065.779 291.964, 1091 266.136 C 1092.375 264.728, 1093.388 263.221, 1093.250 262.788 C 1093.113 262.355, 1093.370 262.113, 1093.822 262.250 C 1095.013 262.612, 1110.981 246.746, 1110.991 245.191 C 1110.996 244.471, 1111.338 244.075, 1111.750 244.310 C 1112.748 244.881, 1128.064 229.397, 1127.278 228.612 C 1126.942 228.275, 1127.172 228, 1127.789 228 C 1129.185 228, 1140 217.371, 1140 216 C 1140 215.450, 1140.482 215, 1141.071 215 C 1142.191 215, 1145 212.554, 1145 211.579 C 1145 210.824, 1160.144 196, 1160.915 196 C 1161.847 196, 1161.189 212.875, 1160.039 218.500 C 1159.024 223.466, 1157.247 241.087, 1156.410 254.500 C 1155.966 261.616, 1155.481 266.112, 1154.579 271.500 C 1154.303 273.150, 1153.819 278.550, 1153.505 283.500 C 1153.190 288.450, 1152.686 294.075, 1152.384 296 C 1152.082 297.925, 1151.645 303.775, 1151.412 309 C 1151.179 314.225, 1150.577 320.300, 1150.073 322.500 C 1149.570 324.700, 1149.107 331.630, 1149.045 337.900 C 1148.983 344.170, 1148.730 349.628, 1148.482 350.030 C 1147.607 351.446, 1146.734 366.733, 1146.399 386.500 C 1146.213 397.500, 1145.816 411, 1145.515 416.500 C 1144.217 440.293, 1143.802 472.057, 1144.774 473.257 C 1145.328 473.941, 1146.034 476.349, 1146.341 478.608 C 1147.484 486.988, 1157.147 503.433, 1163.992 508.649 C 1164.821 509.281, 1166.850 510.971, 1168.500 512.405 C 1170.150 513.839, 1172.400 515.295, 1173.500 515.641 C 1174.600 515.987, 1175.725 516.546, 1176 516.885 C 1179.935 521.726, 1204.822 526.591, 1212.937 524.105 C 1214.897 523.505, 1217.850 522.858, 1219.500 522.668 C 1224.479 522.094, 1234.806 517.480, 1241 513.062 C 1246.218 509.340, 1250.977 504.665, 1250.989 503.250 C 1250.995 502.563, 1251.413 502, 1251.918 502 C 1252.424 502, 1253.862 500.313, 1255.116 498.250 C 1256.369 496.188, 1257.667 494.275, 1257.999 494 C 1258.634 493.475, 1260.822 488.745, 1262.968 483.257 C 1263.666 481.473, 1264.027 479.210, 1263.770 478.227 C 1263.513 477.245, 1263.901 475.882, 1264.632 475.199 C 1265.659 474.239, 1265.975 468.787, 1266.021 451.228 C 1266.054 438.728, 1266.285 424, 1266.535 418.500 C 1269.230 359.304, 1269.590 333.615, 1269.348 218 C 1269.212 152.952, 1268.858 133.276, 1267.618 122 C 1267.037 116.718, 1265.969 105.127, 1265.544 99.500 C 1264.942 91.530, 1262.996 76.802, 1262.422 75.873 C 1262.133 75.406, 1261.638 72.880, 1261.322 70.261 C 1261.006 67.643, 1260.242 65.169, 1259.624 64.765 C 1259.006 64.361, 1258.790 64.024, 1259.144 64.015 C 1259.927 63.997, 1258.496 57.338, 1256.857 53.377 C 1256.203 51.795, 1255.592 50.275, 1255.500 50 C 1254.286 46.379, 1252.416 43.753, 1248.359 39.974 C 1241.331 33.427, 1232.878 27.623, 1224.466 23.566 C 1219.791 21.312, 1217.578 20.444, 1206.307 16.447 C 1204.001 15.629, 1200.626 14.808, 1198.807 14.623 C 1196.988 14.439, 1194.375 13.840, 1193 13.292 C 1191.625 12.745, 1188.700 12.235, 1186.500 12.158 C 1184.300 12.082, 1180.928 11.565, 1179.007 11.010 C 1174.217 9.625, 809.047 9.865, 803.500 11.256" stroke="none" fill="#4c4c4c" fill-rule="evenodd"/></svg>