<svg xmlns="http://www.w3.org/2000/svg" width="1280" height="1280" viewBox="0 0 1280 1280" version="1.1"><path d="M 639 42.059 C 639 42.641, 638.570 42.852, 638.044 42.527 C 636.251 41.419, 630.140 44.829, 628.606 47.794 C 627.767 49.418, 627.386 51.052, 627.759 51.426 C 628.133 51.800, 627.729 51.833, 626.861 51.500 C 625.644 51.033, 624.768 52.334, 623.028 57.197 C 620.732 63.611, 618.508 69.004, 616.767 72.371 C 616.014 73.829, 616.098 74.067, 617.150 73.449 C 618.016 72.940, 617.927 73.345, 616.902 74.578 C 615.006 76.858, 613.626 80.349, 614.942 79.536 C 615.448 79.223, 616.151 79.436, 616.505 80.008 C 616.859 80.581, 616.778 80.985, 616.324 80.906 C 614.089 80.518, 613 81.177, 613 82.917 C 613 83.971, 612.593 84.983, 612.095 85.167 C 611.598 85.350, 611.035 86.625, 610.845 88 C 610.655 89.375, 610.133 90.770, 609.684 91.100 C 609.234 91.430, 608.738 92.330, 608.580 93.100 C 608.423 93.870, 607.518 96.256, 606.570 98.402 C 605.622 100.548, 605.064 103.135, 605.329 104.151 C 605.595 105.167, 605.335 106.293, 604.752 106.654 C 604.128 107.039, 603.985 106.833, 604.405 106.155 C 604.797 105.520, 604.641 105, 604.059 105 C 603.089 105, 602.895 105.565, 602.600 109.250 C 602.545 109.938, 602.207 110.725, 601.848 111 C 601.489 111.275, 599.551 115.473, 597.541 120.330 C 594.626 127.375, 594.129 129.451, 595.085 130.602 C 596.060 131.778, 595.978 131.929, 594.641 131.416 C 593.729 131.066, 593 131.277, 593 131.893 C 593 133.862, 592.786 134.467, 591.382 136.473 C 589.800 138.730, 589.556 140.392, 590.931 139.543 C 591.443 139.226, 592.151 139.436, 592.505 140.008 C 592.859 140.581, 592.778 140.985, 592.324 140.906 C 590.102 140.520, 589.143 141.266, 588.020 144.250 C 586.863 147.328, 585.184 151.294, 584.105 153.500 C 583.836 154.050, 584.490 153.839, 585.558 153.030 C 587.107 151.858, 587.055 152.063, 585.298 154.044 C 582.700 156.973, 579.810 163.476, 580.706 164.373 C 581.051 164.718, 580.808 165, 580.167 165 C 579.525 165, 579 165.927, 579 167.059 C 579 168.361, 579.425 168.856, 580.155 168.405 C 580.876 167.959, 581.037 168.131, 580.585 168.862 C 580.187 169.506, 579.442 169.773, 578.929 169.456 C 578.130 168.962, 577.362 170.355, 575.598 175.500 C 575.409 176.050, 575.206 176.842, 575.148 177.260 C 575.089 177.679, 574.374 179.309, 573.560 180.884 C 572.746 182.458, 572.362 184.028, 572.707 184.373 C 573.051 184.718, 572.808 185, 572.167 185 C 571.525 185, 571 185.691, 571 186.535 C 571 187.380, 570.286 189.160, 569.414 190.491 C 568.541 191.823, 568.118 193.382, 568.473 193.956 C 568.828 194.530, 568.717 195, 568.227 195 C 567.737 195, 565.613 199.613, 563.506 205.250 C 561.400 210.887, 559.249 216.057, 558.726 216.737 C 558.204 217.418, 558.046 218.679, 558.377 219.539 C 558.722 220.439, 558.557 220.844, 557.989 220.493 C 557.143 219.971, 556.769 221.274, 557.085 223.638 C 557.132 223.989, 556.638 224.605, 555.988 225.008 C 555.337 225.410, 554.736 226.879, 554.652 228.273 C 554.569 229.667, 554.163 230.600, 553.750 230.345 C 553.082 229.933, 552.566 232.252, 552.882 234.250 C 552.947 234.663, 552.580 235, 552.067 235 C 551.554 235, 550.829 236.012, 550.456 237.250 C 550.083 238.488, 549.214 240.850, 548.525 242.500 C 547.835 244.150, 546.489 247.525, 545.533 250 C 544.577 252.475, 543.461 255.175, 543.054 256 C 542.646 256.825, 542.368 258.703, 542.436 260.173 C 542.504 261.643, 542.212 262.631, 541.787 262.369 C 541.363 262.106, 541.187 263.378, 541.396 265.196 C 541.605 267.013, 541.827 269.028, 541.888 269.673 C 542.069 271.567, 547.098 277.057, 548.091 276.444 C 548.591 276.135, 549 276.359, 549 276.941 C 549 277.523, 549.873 278, 550.941 278 C 552.009 278, 553.192 278.502, 553.571 279.115 C 554.379 280.421, 564.252 279.745, 564.716 278.351 C 564.882 277.855, 566.763 277.615, 568.898 277.819 C 571.032 278.022, 573.700 277.696, 574.826 277.093 C 576.995 275.932, 582.882 274.916, 589.500 274.559 C 591.700 274.440, 594.850 274.033, 596.500 273.653 C 602.024 272.383, 616.313 271.704, 639.664 271.602 C 660.096 271.512, 662.691 271.323, 661.664 270 C 660.677 268.728, 660.742 268.689, 662.092 269.741 C 662.968 270.424, 664.052 270.649, 664.502 270.241 C 664.952 269.834, 664.997 270.063, 664.601 270.750 C 663.834 272.083, 664.616 272.211, 675.500 272.530 C 678.800 272.626, 683.300 273.175, 685.500 273.749 C 689.317 274.745, 694.128 275.218, 702.165 275.388 C 704.181 275.430, 705.617 275.810, 705.356 276.232 C 705.095 276.655, 705.021 277.028, 705.191 277.062 C 705.361 277.096, 707.525 277.337, 710 277.597 C 712.475 277.856, 715.805 278.503, 717.399 279.034 C 721.064 280.255, 727.300 280.295, 726.558 279.093 C 726.249 278.595, 726.831 278.404, 727.850 278.671 C 728.868 278.937, 730.412 278.445, 731.279 277.578 C 732.147 276.710, 733.309 276, 733.860 276 C 734.857 276, 739 270.790, 739 269.537 C 739 269.177, 738.438 269.211, 737.750 269.613 C 737.063 270.015, 737.286 269.445, 738.247 268.346 C 739.498 266.916, 739.863 265.234, 739.531 262.424 C 738.782 256.072, 738.297 254.486, 737.179 254.730 C 736.598 254.856, 736.284 254.123, 736.481 253.101 C 736.677 252.079, 736.200 250.012, 735.419 248.507 C 734.639 247.002, 734 245.209, 734 244.521 C 734 243.833, 733.115 242.144, 732.033 240.769 C 730.951 239.393, 730.271 238.062, 730.522 237.811 C 731.310 237.023, 724.069 220.488, 723.045 220.738 C 722.510 220.869, 722.338 220.282, 722.663 219.435 C 723.206 218.020, 720.554 210.599, 715.873 200.434 C 714.843 198.198, 714 195.809, 714 195.125 C 714 194.441, 713.609 194.123, 713.132 194.418 C 712.655 194.713, 712.303 194.177, 712.351 193.227 C 712.490 190.442, 709.725 184.052, 708.664 184.708 C 708.122 185.043, 708.011 184.792, 708.413 184.141 C 708.810 183.499, 707.979 180.450, 706.567 177.366 C 705.155 174.282, 704 171.376, 704 170.908 C 704 170.440, 702.808 167.457, 701.351 164.279 C 699.895 161.100, 698.569 157.833, 698.406 157.018 C 698.243 156.203, 697.660 155.387, 697.111 155.204 C 696.562 155.021, 696.360 154.225, 696.663 153.435 C 696.966 152.646, 696.716 152, 696.107 152 C 695.498 152, 695.053 151.662, 695.118 151.250 C 695.184 150.838, 695.150 150.275, 695.044 150 C 694.938 149.725, 694.675 148.568, 694.459 147.429 C 693.827 144.090, 691.372 139.968, 690.491 140.765 C 690.045 141.169, 690.006 140.933, 690.404 140.241 C 691.300 138.686, 690.224 135, 688.874 135 C 688.328 135, 688.203 135.520, 688.595 136.155 C 689.048 136.886, 688.869 137.037, 688.106 136.565 C 687.187 135.997, 687.178 135.490, 688.070 134.416 C 688.973 133.328, 688.871 132.451, 687.617 130.538 C 686.726 129.179, 685.842 127.264, 685.652 126.283 C 685.461 125.303, 684.787 123.233, 684.153 121.685 C 683.519 120.137, 683 118.716, 683 118.528 C 683 118.340, 681.580 115.107, 679.845 111.343 C 678.110 107.579, 676.534 103.689, 676.343 102.697 C 676.152 101.705, 675.234 99.455, 674.303 97.697 C 673.371 95.939, 672.503 94.050, 672.374 93.500 C 671.762 90.892, 669.410 85.434, 668.665 84.888 C 668.205 84.552, 667.940 83.961, 668.076 83.575 C 668.589 82.120, 665.620 76.117, 664.677 76.700 C 664.110 77.050, 664.009 76.794, 664.439 76.099 C 664.850 75.433, 664.183 72.414, 662.955 69.390 C 661.269 65.234, 660.338 64.040, 659.142 64.499 C 658.273 64.833, 657.881 64.786, 658.272 64.395 C 658.663 64.004, 658.424 62.968, 657.741 62.092 C 656.643 60.683, 656.702 60.658, 658.250 61.872 C 660.416 63.571, 660.423 63.221, 658.323 58.372 C 657.401 56.242, 656.531 53.870, 656.390 53.100 C 656.080 51.410, 653.913 49.936, 652.773 50.640 C 652.321 50.920, 652.015 50.778, 652.094 50.324 C 652.774 46.407, 649.596 43.140, 644.584 42.606 C 643.161 42.454, 641.698 42.031, 641.332 41.665 C 640.317 40.650, 639 40.872, 639 42.059 M 221.122 213.904 C 219.459 214.957, 220.635 217.334, 222.319 216.324 C 222.992 215.921, 222.909 216.344, 222.128 217.308 C 220.674 219.100, 219.485 219.642, 220.457 218.069 C 220.774 217.557, 220.556 216.843, 219.973 216.483 C 218.536 215.595, 215.787 218.003, 216.404 219.609 C 216.709 220.405, 216.359 220.691, 215.491 220.358 C 214.579 220.008, 213.855 220.729, 213.434 222.407 C 212.608 225.697, 213.577 228.366, 215.243 227.391 C 215.934 226.987, 215.713 227.556, 214.750 228.657 C 212.727 230.969, 212.396 233.459, 214.250 232.412 C 215.213 231.869, 215.231 231.998, 214.327 232.976 C 213.003 234.410, 214.641 239.340, 216.135 238.417 C 216.598 238.130, 216.713 238.585, 216.389 239.428 C 216.066 240.270, 216.794 243.009, 218.007 245.514 C 219.640 248.887, 220.530 249.805, 221.439 249.050 C 222.313 248.326, 222.667 248.447, 222.667 249.472 C 222.667 250.264, 222.292 250.680, 221.833 250.397 C 220.863 249.797, 220.730 252.132, 221.605 254.412 C 221.937 255.279, 222.682 255.697, 223.259 255.340 C 223.888 254.951, 224.010 255.174, 223.565 255.895 C 222.938 256.910, 230.386 276.490, 231.974 278 C 232.263 278.275, 232.646 279.175, 232.825 280 C 233.004 280.825, 233.569 281.651, 234.081 281.835 C 234.593 282.020, 234.789 282.533, 234.515 282.976 C 234.058 283.716, 239.752 297.856, 240.969 299 C 241.261 299.275, 241.625 300.175, 241.778 301 C 241.932 301.825, 242.465 303.400, 242.964 304.500 C 245.832 310.824, 248.333 316.565, 248.411 317 C 248.948 320.009, 253.720 329.938, 254.489 329.646 C 255.045 329.434, 255.535 330.815, 255.579 332.715 C 255.622 334.616, 256.223 336.520, 256.914 336.947 C 257.605 337.374, 258.132 338.011, 258.085 338.362 C 258.038 338.713, 258.034 339.113, 258.077 339.250 C 258.119 339.387, 258.292 340.175, 258.462 341 C 258.633 341.825, 259.883 344.975, 261.241 348 C 262.599 351.025, 264.553 355.601, 265.584 358.168 C 266.614 360.735, 267.753 362.653, 268.115 362.429 C 268.478 362.205, 268.754 362.579, 268.730 363.261 C 268.597 366.936, 269.090 368.180, 270.468 367.651 C 271.275 367.341, 272.245 367.587, 272.622 368.198 C 273.067 368.918, 272.848 369.024, 271.998 368.499 C 270.973 367.865, 270.834 368.419, 271.359 371.045 C 271.728 372.890, 272.361 374.648, 272.765 374.950 C 273.169 375.253, 273.650 376.400, 273.834 377.500 C 274.017 378.600, 274.646 379.950, 275.230 380.500 C 275.965 381.191, 276.046 381.066, 275.492 380.095 C 274.967 379.175, 275.074 378.928, 275.802 379.378 C 276.413 379.755, 276.671 380.693, 276.376 381.462 C 275.784 383.004, 278.440 389.412, 280.918 392.422 C 281.789 393.481, 281.928 394.009, 281.228 393.599 C 280.500 393.173, 280.896 394.790, 282.153 397.378 C 283.362 399.866, 284.657 401.712, 285.031 401.481 C 285.405 401.250, 285.499 402.172, 285.239 403.530 C 284.979 404.889, 285.219 406, 285.772 406 C 286.325 406, 287.073 407.575, 287.434 409.500 C 288.142 413.275, 288.810 413.694, 291.023 411.750 C 291.902 410.979, 291.837 411.266, 290.854 412.500 C 289.134 414.659, 289.388 416.498, 291.785 419.250 C 292.624 420.212, 292.945 421, 292.500 421 C 292.055 421, 292.547 421.977, 293.595 423.172 C 294.643 424.366, 294.926 425.008, 294.225 424.598 C 293.517 424.183, 293.844 425.441, 294.962 427.433 C 296.069 429.403, 296.951 431.124, 296.922 431.257 C 296.475 433.362, 300.981 441.190, 304.586 444.571 C 308.120 447.886, 315.278 450.569, 317.271 449.325 C 317.947 448.903, 319.392 448.419, 320.483 448.250 C 323.380 447.799, 328.562 442.449, 333.590 434.719 C 336.015 430.989, 338 427.708, 338 427.427 C 338 427.146, 338.892 425.959, 339.982 424.789 C 341.601 423.051, 341.738 422.372, 340.732 421.081 C 339.674 419.723, 339.723 419.674, 341.077 420.729 C 342.396 421.756, 343.019 421.466, 344.873 418.958 C 346.093 417.307, 346.774 415.404, 346.385 414.729 C 345.997 414.053, 346.056 413.842, 346.515 414.259 C 347.462 415.118, 352 411.232, 352 409.563 C 352 408.964, 353.144 407.616, 354.541 406.566 C 355.939 405.517, 356.855 404.065, 356.577 403.341 C 356.299 402.617, 356.598 402.131, 357.241 402.262 C 357.883 402.393, 358.430 401.975, 358.455 401.333 C 358.480 400.692, 358.910 399.792, 359.410 399.333 C 359.951 398.838, 359.983 399.108, 359.488 400 C 358.958 400.957, 359.443 400.810, 360.828 399.595 C 363.213 397.504, 363.717 396.441, 361.750 397.651 C 361.063 398.074, 362.436 396.521, 364.802 394.199 C 367.285 391.762, 368.805 389.494, 368.397 388.834 C 367.995 388.183, 368.131 387.963, 368.712 388.322 C 370.009 389.123, 373.261 385.620, 372.252 384.509 C 371.838 384.052, 372.002 383.966, 372.616 384.316 C 373.968 385.087, 377.317 381.650, 376.252 380.586 C 375.838 380.172, 376.175 379.983, 377 380.167 C 377.825 380.350, 378.387 379.937, 378.250 379.250 C 378.112 378.562, 378.562 378.112, 379.250 378.250 C 379.937 378.387, 380.376 377.904, 380.225 377.176 C 380.074 376.447, 380.351 376.099, 380.842 376.402 C 381.807 376.999, 384.813 374.129, 384.929 372.500 C 384.968 371.950, 385.337 371.493, 385.750 371.485 C 387.399 371.451, 388.993 369.798, 388.362 368.776 C 387.976 368.152, 388.153 367.977, 388.781 368.365 C 389.380 368.735, 390.914 368.017, 392.189 366.769 C 393.464 365.521, 396.868 362.545, 399.754 360.156 C 402.641 357.767, 404.781 355.455, 404.512 355.019 C 404.242 354.583, 404.804 354.288, 405.761 354.363 C 406.817 354.446, 407.451 353.843, 407.374 352.829 C 407.296 351.788, 407.772 351.359, 408.637 351.691 C 410.303 352.330, 413.212 350.152, 412.415 348.862 C 412.105 348.361, 412.447 348.074, 413.176 348.225 C 413.904 348.376, 414.376 347.904, 414.225 347.176 C 414.074 346.447, 414.431 346.148, 415.018 346.511 C 415.980 347.106, 425.024 340.631, 425.833 338.767 C 426.017 338.345, 426.565 338, 427.052 338 C 428.767 338, 441.537 329.139, 444.577 325.840 C 448.645 321.425, 450.161 316.135, 448.712 311.414 C 446.944 305.651, 440.502 299.765, 433.500 297.514 C 432.400 297.160, 431.500 296.932, 431.500 297.006 C 431.500 297.080, 430.182 296.457, 428.572 295.622 C 426.961 294.786, 425.204 294.374, 424.667 294.706 C 424.126 295.040, 424.009 294.795, 424.405 294.155 C 425.019 293.161, 422.852 292.461, 421.605 293.250 C 421.388 293.387, 420.375 292.771, 419.355 291.880 C 416.499 289.387, 414.683 289.115, 412.500 290.854 C 411.266 291.837, 410.979 291.902, 411.750 291.023 C 413.694 288.810, 413.275 288.142, 409.500 287.434 C 407.575 287.073, 406 286.325, 406 285.772 C 406 285.219, 404.889 284.979, 403.530 285.239 C 402.172 285.499, 401.258 285.392, 401.499 285.002 C 401.740 284.612, 400.882 283.811, 399.591 283.224 C 397.878 282.443, 396.926 282.471, 396.063 283.327 C 395.157 284.227, 395.025 284.122, 395.498 282.879 C 395.876 281.886, 395.492 281.019, 394.506 280.640 C 393.405 280.218, 393.125 280.415, 393.620 281.261 C 394.018 281.943, 393.366 281.643, 392.172 280.595 C 390.977 279.547, 390 279.055, 390 279.500 C 390 279.945, 389.121 279.515, 388.047 278.542 C 386.973 277.570, 384.713 276.666, 383.026 276.534 C 381.339 276.401, 379.631 275.929, 379.229 275.486 C 378.828 275.042, 379.175 275.043, 380 275.486 C 380.997 276.023, 381.165 275.960, 380.500 275.297 C 378.413 273.218, 370.823 270.902, 369.552 271.957 C 368.037 273.214, 366.944 272.308, 367.676 270.402 C 368.177 269.097, 366.864 268.600, 363.261 268.730 C 362.579 268.754, 362.205 268.478, 362.429 268.115 C 362.653 267.753, 360.735 266.614, 358.168 265.584 C 355.601 264.553, 351.025 262.599, 348 261.241 C 344.975 259.883, 342.050 258.698, 341.500 258.608 C 340.950 258.518, 339.938 258.092, 339.250 257.663 C 338.563 257.233, 337.993 257.246, 337.985 257.691 C 337.976 258.136, 337.565 257.860, 337.070 257.079 C 336.575 256.297, 334.616 255.622, 332.715 255.579 C 330.815 255.535, 329.434 255.045, 329.646 254.489 C 329.938 253.720, 320.009 248.948, 317 248.411 C 316.725 248.362, 314.250 247.313, 311.500 246.079 C 296.641 239.413, 293.003 237.983, 292.985 238.801 C 292.976 239.185, 292.639 239.050, 292.235 238.500 C 291.132 236.999, 283.987 233.890, 283.017 234.490 C 282.551 234.777, 282.020 234.593, 281.835 234.081 C 281.651 233.569, 280.825 233.004, 280 232.825 C 279.175 232.646, 278.221 232.119, 277.881 231.652 C 277.540 231.186, 276.121 230.736, 274.727 230.652 C 273.333 230.569, 272.350 230.244, 272.543 229.932 C 272.824 229.477, 267.068 226.860, 265 226.503 C 264.725 226.455, 262.988 225.610, 261.140 224.625 C 259.292 223.641, 258.062 223.291, 258.406 223.848 C 258.751 224.406, 258.564 225.151, 257.992 225.505 C 257.419 225.859, 257.074 225.553, 257.225 224.824 C 257.376 224.096, 256.904 223.624, 256.176 223.775 C 255.447 223.926, 255.107 223.636, 255.420 223.130 C 255.733 222.624, 255.279 221.937, 254.412 221.605 C 252.132 220.730, 249.797 220.863, 250.397 221.833 C 250.680 222.292, 250.264 222.667, 249.472 222.667 C 248.447 222.667, 248.326 222.313, 249.050 221.439 C 250.068 220.213, 249.375 219.797, 237.874 214.744 C 235.085 213.518, 233.956 213.422, 232.978 214.326 C 231.997 215.231, 231.868 215.214, 232.412 214.250 C 233.276 212.721, 230.412 212.525, 229.470 214.049 C 229.026 214.766, 228.432 214.774, 227.587 214.072 C 226.732 213.363, 225.945 213.425, 225.030 214.274 C 223.983 215.244, 223.854 215.239, 224.412 214.250 C 225.227 212.808, 223.191 212.593, 221.122 213.904 M 1042 215.129 C 1039.525 216.186, 1036.713 217.317, 1035.750 217.642 C 1034.787 217.967, 1034 218.631, 1034 219.117 C 1034 219.602, 1033.662 219.947, 1033.250 219.882 C 1030.879 219.507, 1029.844 220.150, 1030.416 221.641 C 1030.932 222.985, 1030.781 223.063, 1029.587 222.072 C 1028.442 221.122, 1027.630 221.137, 1025.814 222.145 C 1023.472 223.444, 1022.889 223.650, 1020.893 223.875 C 1020.284 223.944, 1020.069 224.739, 1020.416 225.641 C 1020.919 226.952, 1020.765 227.050, 1019.656 226.129 C 1018.593 225.247, 1018 225.295, 1017.141 226.330 C 1016.523 227.075, 1016.351 228.052, 1016.759 228.502 C 1017.166 228.952, 1016.930 228.992, 1016.234 228.591 C 1015.537 228.190, 1015.223 227.448, 1015.536 226.942 C 1015.848 226.437, 1015.406 226.291, 1014.552 226.618 C 1013.698 226.946, 1013 227.520, 1013 227.894 C 1013 228.268, 1012.212 228.638, 1011.250 228.715 C 1009.140 228.885, 994.891 234.830, 993.550 236.100 C 993.028 236.595, 991.790 237, 990.800 237 C 989.810 237, 989 237.477, 989 238.059 C 989 238.641, 988.581 238.859, 988.069 238.543 C 987.557 238.226, 986.891 238.367, 986.590 238.855 C 986.288 239.342, 984.652 240.020, 982.955 240.359 C 981.257 240.699, 980.146 241.427, 980.486 241.977 C 980.826 242.528, 980.490 242.741, 979.736 242.452 C 978.984 242.164, 977.048 242.616, 975.434 243.458 C 973.820 244.299, 971.911 244.990, 971.191 244.994 C 970.457 244.997, 970.195 245.507, 970.595 246.155 C 971.022 246.844, 970.871 247.039, 970.222 246.637 C 968.481 245.561, 957.723 250.724, 958.574 252.227 C 959.129 253.210, 959.004 253.233, 958.024 252.327 C 956.481 250.902, 952.485 252.420, 949.674 255.500 C 948.669 256.600, 948.176 256.868, 948.578 256.095 C 949.113 255.068, 948.932 254.926, 947.905 255.567 C 947.132 256.048, 945.610 256.581, 944.521 256.750 C 943.433 256.919, 942.083 257.560, 941.521 258.175 C 940.789 258.977, 940.924 259.056, 942 258.455 C 943.293 257.732, 943.310 257.850, 942.128 259.308 C 940.658 261.119, 939.927 261.462, 940.118 260.250 C 940.441 258.210, 939.734 258.091, 936.750 259.682 C 934.962 260.636, 933.275 261.473, 933 261.542 C 932.725 261.611, 931.150 262.262, 929.500 262.987 C 927.850 263.713, 926.050 264.422, 925.500 264.562 C 924.950 264.702, 922.775 265.554, 920.667 266.456 C 917.292 267.900, 916.990 268.299, 918.134 269.798 C 918.849 270.734, 919.040 271.166, 918.559 270.759 C 918.078 270.351, 916.968 270.576, 916.092 271.259 C 914.683 272.357, 914.658 272.298, 915.872 270.750 C 917.059 269.237, 917.023 269, 915.609 269 C 913.853 269, 909.891 270.966, 908.888 272.335 C 908.552 272.795, 907.989 273.132, 907.638 273.085 C 905.274 272.769, 903.971 273.143, 904.493 273.989 C 904.839 274.549, 904.452 274.727, 903.600 274.400 C 901.325 273.527, 899.653 274.877, 901 276.500 C 901.803 277.467, 901.774 278.021, 900.894 278.565 C 900.129 279.038, 899.952 278.886, 900.409 278.147 C 901.764 275.954, 898.193 275.862, 893.564 277.971 C 890.515 279.360, 889.180 280.494, 889.658 281.290 C 890.211 282.212, 890.041 282.229, 888.942 281.360 C 887.830 280.481, 886.388 280.734, 882.647 282.463 C 879.978 283.698, 876.265 285.307, 874.397 286.040 C 872.529 286.773, 871 287.766, 871 288.246 C 871 288.725, 870.580 288.859, 870.067 288.542 C 869.555 288.225, 866.517 289.132, 863.317 290.557 C 853.034 295.139, 851.541 295.765, 849.250 296.456 C 848.013 296.829, 847 297.581, 847 298.126 C 847 298.672, 846.567 298.850, 846.037 298.523 C 844.937 297.843, 838.350 301.789, 835.776 304.670 C 832.567 308.262, 831.016 314.418, 832.248 318.675 C 833.518 323.068, 836.816 327.231, 838.300 326.315 C 838.862 325.967, 839.002 326.187, 838.616 326.812 C 837.955 327.882, 845.253 334, 847.192 334 C 847.682 334, 849.041 334.892, 850.211 335.982 C 851.834 337.494, 852.659 337.698, 853.692 336.841 C 854.733 335.977, 854.922 336.040, 854.510 337.112 C 854.178 337.977, 856.040 340.119, 859.412 342.753 C 864.819 346.976, 867.252 348.214, 865.138 345.667 C 864.308 344.666, 864.374 344.333, 865.403 344.333 C 866.157 344.333, 866.655 345.046, 866.509 345.917 C 866.363 346.788, 867.162 348.507, 868.284 349.738 C 869.960 351.575, 870.599 351.754, 871.855 350.738 C 873.041 349.778, 873.219 349.775, 872.648 350.725 C 871.708 352.292, 878.741 359.258, 880.340 358.343 C 880.978 357.978, 881.162 358.052, 880.748 358.509 C 879.973 359.363, 882.690 363, 884.103 363 C 884.540 363, 886.102 364.117, 887.574 365.481 C 889.047 366.846, 890.715 367.676, 891.280 367.327 C 891.846 366.977, 892.019 367.160, 891.666 367.732 C 890.881 369.002, 893.386 371.280, 894.425 370.241 C 894.833 369.834, 895.017 370.175, 894.833 371 C 894.649 371.830, 895.091 372.377, 895.824 372.225 C 896.553 372.074, 896.909 372.338, 896.616 372.813 C 895.867 374.024, 903.439 381.211, 904.473 380.270 C 904.939 379.847, 905.034 380.002, 904.684 380.616 C 903.913 381.968, 907.350 385.317, 908.414 384.252 C 908.828 383.838, 909.017 384.175, 908.833 385 C 908.649 385.830, 909.091 386.377, 909.824 386.225 C 910.553 386.074, 910.923 386.315, 910.648 386.760 C 910.373 387.206, 911.938 389.580, 914.127 392.035 C 916.316 394.491, 919.257 397.958, 920.664 399.740 C 922.071 401.522, 923.634 402.726, 924.136 402.416 C 924.638 402.105, 924.926 402.447, 924.775 403.176 C 924.624 403.904, 925.096 404.376, 925.824 404.225 C 926.553 404.074, 926.880 404.384, 926.553 404.915 C 926.225 405.445, 927.204 407.088, 928.728 408.566 C 930.253 410.044, 930.825 410.885, 930 410.435 C 928.711 409.731, 928.692 409.852, 929.863 411.297 C 930.613 412.222, 931.695 412.688, 932.268 412.334 C 932.840 411.981, 933.019 412.160, 932.666 412.732 C 932.312 413.305, 932.778 414.387, 933.703 415.137 C 934.627 415.887, 935.092 416.012, 934.736 415.417 C 934.380 414.821, 934.736 414.333, 935.528 414.333 C 936.595 414.333, 936.689 414.670, 935.891 415.631 C 934.566 417.228, 938.548 423.398, 940.231 422.357 C 940.843 421.979, 941.022 422.155, 940.645 422.765 C 940.280 423.356, 940.580 424.438, 941.312 425.169 C 942.044 425.901, 942.836 426.950, 943.071 427.500 C 943.307 428.050, 943.785 428.405, 944.132 428.289 C 944.480 428.173, 944.705 428.848, 944.632 429.789 C 944.555 430.785, 945.215 431.505, 946.212 431.512 C 947.153 431.518, 948.503 432.171, 949.212 432.963 C 950.320 434.203, 950.256 434.219, 948.750 433.079 C 945.761 430.818, 946.581 434.513, 949.750 437.586 C 951.263 439.053, 951.825 439.894, 951 439.455 C 950.024 438.935, 950.165 439.415, 951.405 440.828 C 953.452 443.162, 954.569 443.730, 953.405 441.845 C 952.959 441.124, 953.131 440.963, 953.862 441.415 C 954.506 441.813, 954.814 442.492, 954.547 442.924 C 953.893 443.982, 957.955 447.605, 960.741 448.450 C 965.662 449.942, 967.795 449.978, 968.332 448.578 C 968.666 447.706, 969.677 447.364, 970.942 447.695 C 973.721 448.422, 981.414 440.690, 980.685 437.903 C 980.411 436.855, 980.595 436.250, 981.095 436.559 C 981.595 436.868, 982.404 436.067, 982.894 434.779 C 983.384 433.491, 984.768 430.344, 985.971 427.785 C 987.173 425.227, 988.247 422.541, 988.357 421.817 C 988.466 421.093, 988.990 419.825, 989.520 419 C 990.693 417.175, 992.967 411.323, 993.698 408.250 C 993.992 407.012, 994.631 406, 995.117 406 C 995.602 406, 996 405.200, 996 404.223 C 996 403.245, 996.721 401.416, 997.602 400.158 C 998.483 398.900, 998.955 397.621, 998.650 397.316 C 998.345 397.011, 998.753 396.104, 999.557 395.300 C 1000.361 394.496, 1000.782 393.456, 1000.493 392.988 C 1000.204 392.521, 1000.432 391.851, 1001 391.500 C 1001.568 391.149, 1001.805 390.494, 1001.527 390.044 C 1001.249 389.595, 1001.692 388.671, 1002.511 387.991 C 1003.330 387.311, 1004.003 386.248, 1004.006 385.628 C 1004.010 385.007, 1004.700 383.182, 1005.540 381.571 C 1006.380 379.960, 1007.178 377.935, 1007.313 377.071 C 1007.447 376.207, 1007.909 374.938, 1008.338 374.250 C 1008.767 373.563, 1008.754 372.993, 1008.309 372.985 C 1007.864 372.976, 1007.973 372.639, 1008.552 372.235 C 1009.131 371.831, 1010.336 369.924, 1011.231 367.998 C 1013.788 362.496, 1016.951 354.998, 1016.826 354.737 C 1016.764 354.607, 1017.954 351.800, 1019.470 348.500 C 1020.987 345.200, 1022.333 342.050, 1022.460 341.500 C 1022.588 340.950, 1023.230 339.185, 1023.887 337.578 C 1024.544 335.970, 1024.843 334.034, 1024.552 333.276 C 1024.261 332.517, 1024.420 332.141, 1024.905 332.441 C 1025.876 333.042, 1030.064 324.805, 1030.286 321.856 C 1030.363 320.835, 1030.712 320, 1031.061 320 C 1032.119 320, 1034.994 311.799, 1034.319 310.708 C 1033.974 310.148, 1034.163 309.982, 1034.739 310.339 C 1035.923 311.071, 1037.392 306.444, 1036.456 304.929 C 1036.124 304.391, 1036.360 304.074, 1036.982 304.225 C 1037.603 304.376, 1039.199 301.868, 1040.527 298.652 C 1041.859 295.424, 1042.357 293.289, 1041.638 293.886 C 1040.668 294.691, 1040.333 294.599, 1040.333 293.528 C 1040.333 292.736, 1040.617 292.263, 1040.964 292.478 C 1042.068 293.160, 1043.448 291.613, 1045.293 287.626 C 1047.006 283.924, 1047.008 283.666, 1045.321 281.802 C 1043.950 280.287, 1043.885 279.924, 1045.028 280.176 C 1045.838 280.354, 1046.376 279.904, 1046.225 279.176 C 1046.074 278.447, 1046.433 278.150, 1047.024 278.515 C 1047.765 278.973, 1047.695 279.692, 1046.799 280.839 C 1045.626 282.339, 1045.676 282.361, 1047.320 281.070 C 1048.401 280.220, 1048.935 278.861, 1048.637 277.721 C 1048.361 276.666, 1048.412 276.079, 1048.751 276.418 C 1049.864 277.531, 1052.926 269.616, 1051.873 268.347 C 1051.232 267.574, 1051.311 266.926, 1052.106 266.435 C 1052.869 265.963, 1053.048 266.114, 1052.595 266.845 C 1052.203 267.480, 1052.359 268, 1052.941 268 C 1053.523 268, 1054.056 267.550, 1054.125 267 C 1054.333 265.339, 1054.570 264.732, 1057.449 258.500 C 1058.974 255.200, 1060.284 251.531, 1060.361 250.346 C 1060.437 249.161, 1060.759 248.352, 1061.076 248.548 C 1062.545 249.454, 1067.659 234.194, 1067.896 228.192 C 1068.144 221.938, 1068.108 221.845, 1063.705 217.442 C 1059.341 213.078, 1059.151 213.002, 1052.882 213.104 C 1049.027 213.166, 1044.718 213.968, 1042 215.129 M 627.700 333.634 C 627.361 333.973, 622.452 334.471, 616.792 334.740 C 611.131 335.009, 605.851 335.741, 605.058 336.365 C 603.914 337.266, 603.793 337.207, 604.472 336.080 C 605.139 334.975, 604.904 334.827, 603.414 335.412 C 602.361 335.826, 599.138 336.416, 596.250 336.722 C 591.472 337.230, 590.484 337.896, 590.906 340.324 C 590.985 340.778, 590.581 340.859, 590.008 340.505 C 589.436 340.151, 589.169 339.536, 589.415 339.138 C 589.660 338.740, 588.493 338.311, 586.819 338.183 C 583.366 337.920, 576.868 339.978, 577.570 341.113 C 577.824 341.525, 577.564 342.151, 576.992 342.505 C 576.419 342.859, 576.074 342.573, 576.225 341.870 C 576.376 341.166, 575.712 340.627, 574.750 340.670 C 570.657 340.857, 569.906 341.040, 570.339 341.750 C 570.590 342.163, 568.983 342.607, 566.766 342.737 C 564.550 342.867, 562.233 343.387, 561.618 343.891 C 561.003 344.396, 559.375 344.975, 558 345.178 C 556.498 345.400, 555.622 346.105, 555.806 346.943 C 556.053 348.066, 555.823 348.098, 554.632 347.109 C 553.442 346.122, 552.350 346.267, 549.071 347.851 C 546.827 348.936, 545.227 349.442, 545.514 348.978 C 545.801 348.513, 544.269 348.888, 542.109 349.810 C 539.950 350.732, 538.453 351.940, 538.783 352.493 C 539.114 353.047, 538.720 352.963, 537.908 352.307 C 536.292 351.001, 533.362 352.158, 534.328 353.722 C 534.649 354.241, 534.277 354.667, 533.500 354.667 C 532.723 354.667, 532.320 354.292, 532.603 353.833 C 533.593 352.232, 531.246 353.018, 528.433 355.232 C 526.872 356.459, 525.998 356.796, 526.490 355.982 C 527.259 354.706, 527.148 354.691, 525.692 355.872 C 524.761 356.627, 524 356.886, 524 356.448 C 524 356.010, 522.802 356.742, 521.339 358.076 C 519.875 359.409, 519.049 359.861, 519.503 359.080 C 520.126 358.008, 519.901 357.824, 518.582 358.330 C 517.622 358.699, 516.593 359, 516.296 359 C 515.998 359, 516.373 359.788, 517.128 360.750 C 518.351 362.310, 518.322 362.361, 516.862 361.220 C 515.078 359.827, 511.239 360.934, 507.750 363.848 C 506.788 364.652, 506 364.960, 506 364.533 C 506 364.105, 505.280 364.353, 504.399 365.084 C 503.519 365.814, 502.281 366.489, 501.649 366.583 C 501.017 366.676, 498.250 368.051, 495.500 369.637 C 492.750 371.223, 489.262 373.155, 487.750 373.929 C 486.238 374.704, 485 375.738, 485 376.228 C 485 376.718, 484.566 376.850, 484.036 376.523 C 483.507 376.195, 482.157 376.843, 481.036 377.964 C 479.916 379.084, 478.819 379.887, 478.597 379.750 C 477.939 379.342, 463 389.370, 463 390.220 C 463 390.649, 462.438 391.001, 461.750 391.002 C 461.063 391.004, 458.957 392.323, 457.072 393.935 C 454.002 396.558, 453.789 397.055, 455.039 398.683 C 455.806 399.682, 456.040 400.166, 455.559 399.759 C 455.078 399.351, 454.055 399.540, 453.286 400.178 C 452.516 400.816, 452.025 400.925, 452.194 400.419 C 452.362 399.914, 452.050 399.500, 451.500 399.500 C 450.950 399.500, 450.650 399.950, 450.833 400.500 C 451.017 401.050, 450.845 401.178, 450.452 400.785 C 449.255 399.589, 445.795 402.024, 446.411 403.629 C 446.770 404.565, 446.561 404.846, 445.837 404.399 C 445.210 404.012, 444.090 404.524, 443.348 405.538 C 442.607 406.553, 442 407.002, 442 406.536 C 442 406.071, 441.111 406.495, 440.024 407.479 C 438.937 408.462, 438.331 409.727, 438.678 410.288 C 439.025 410.850, 438.829 411.012, 438.242 410.649 C 436.846 409.787, 409.787 436.846, 410.649 438.242 C 411.012 438.829, 410.850 439.025, 410.288 438.678 C 409.727 438.331, 408.462 438.937, 407.479 440.024 C 406.495 441.111, 405.947 442, 406.262 442 C 406.576 442, 405.283 443.597, 403.387 445.548 C 401.492 447.500, 400.213 449.536, 400.545 450.073 C 400.877 450.610, 400.573 450.926, 399.870 450.775 C 398.278 450.433, 398.017 452.991, 399.439 455 C 400.370 456.316, 400.277 456.325, 398.683 455.072 C 397.044 453.784, 396.576 453.981, 393.935 457.072 C 392.323 458.957, 391.004 460.834, 391.002 461.242 C 391.001 461.651, 390.043 463.086, 388.873 464.432 C 387.702 465.777, 386.240 467.721, 385.623 468.751 C 385.005 469.780, 383.509 472.170, 382.299 474.062 C 381.088 475.953, 380.076 477.837, 380.049 478.250 C 380.022 478.663, 379.084 479.916, 377.964 481.036 C 375.893 483.107, 376.164 485.617, 378.319 484.324 C 378.992 483.921, 378.909 484.344, 378.128 485.308 C 376.642 487.140, 375.494 487.628, 376.500 486 C 376.840 485.450, 376.718 485, 376.228 485 C 375.738 485, 374.704 486.238, 373.929 487.750 C 373.155 489.262, 371.223 492.750, 369.637 495.500 C 368.051 498.250, 366.676 501.017, 366.583 501.649 C 366.489 502.281, 365.757 503.605, 364.956 504.591 C 364.155 505.577, 364.031 506.065, 364.681 505.676 C 365.330 505.286, 366.190 505.537, 366.591 506.234 C 366.992 506.930, 366.952 507.166, 366.502 506.759 C 365.294 505.664, 363.081 507.870, 361.435 511.809 C 360.264 514.613, 360.227 515.587, 361.243 516.889 C 362.352 518.310, 362.299 518.342, 360.791 517.162 C 359.282 515.980, 359.003 516.155, 358.403 518.662 C 358.030 520.223, 357.281 522.063, 356.740 522.750 C 356.198 523.438, 356.090 524, 356.500 524 C 356.910 524, 356.627 524.761, 355.872 525.692 C 354.691 527.148, 354.706 527.259, 355.982 526.490 C 356.796 525.998, 356.459 526.872, 355.232 528.433 C 353.018 531.246, 352.232 533.593, 353.833 532.603 C 354.292 532.320, 354.667 532.700, 354.667 533.449 C 354.667 534.250, 354.047 534.572, 353.160 534.231 C 352.053 533.806, 351.829 534.111, 352.315 535.378 C 352.709 536.405, 352.577 536.856, 351.989 536.493 C 351.445 536.157, 351 536.831, 351 537.991 C 351 539.150, 350.288 541.477, 349.417 543.160 C 348.249 545.418, 348.184 546.010, 349.167 545.418 C 350.228 544.780, 350.220 544.961, 349.128 546.308 C 348.373 547.239, 348.046 548, 348.401 548 C 348.756 548, 348.308 549.127, 347.405 550.505 C 346.052 552.569, 345.990 553.283, 347.051 554.561 C 348.108 555.836, 348.096 556.058, 346.979 555.806 C 346.231 555.638, 345.453 556.400, 345.251 557.500 C 345.048 558.600, 344.608 560.175, 344.272 561 C 342.506 565.339, 341.399 570.874, 342.416 570.285 C 343.012 569.939, 342.796 570.521, 341.937 571.578 C 340.090 573.848, 340.050 576.616, 341.870 576.225 C 342.574 576.074, 342.846 576.441, 342.474 577.042 C 342.103 577.642, 341.537 577.871, 341.217 577.550 C 340.379 576.712, 338 582.768, 338 585.737 C 338 587.975, 338.188 588.099, 339.750 586.890 C 341.175 585.786, 341.146 585.950, 339.595 587.767 C 338.547 588.995, 338.097 590.007, 338.595 590.015 C 339.093 590.024, 339.006 590.361, 338.403 590.765 C 337.799 591.169, 337.028 593.904, 336.689 596.842 C 336.207 601.019, 336.348 602.001, 337.333 601.342 C 338.027 600.879, 337.832 601.209, 336.900 602.077 C 335.561 603.323, 335.145 605.834, 334.912 614.077 C 334.749 619.809, 334.286 625.455, 333.881 626.623 C 333.449 627.872, 333.630 629.270, 334.323 630.020 C 335.232 631.003, 335.215 631.133, 334.250 630.588 C 333.329 630.067, 333 631.096, 333 634.500 C 333 637.040, 333.360 638.896, 333.800 638.624 C 334.240 638.352, 334.600 639.196, 334.600 640.500 C 334.600 641.804, 334.173 642.607, 333.651 642.284 C 333.062 641.920, 332.968 644.316, 333.402 648.599 C 333.787 652.394, 334.080 656.567, 334.052 657.871 C 334.008 659.969, 334.204 660.090, 335.751 658.920 C 337.239 657.794, 337.313 657.806, 336.250 658.998 C 335.499 659.840, 335 663.234, 335 667.500 C 335 671.795, 335.494 675.132, 336.250 675.947 C 337.262 677.037, 337.230 677.139, 336.080 676.483 C 334.982 675.855, 334.831 676.105, 335.416 677.586 C 336.438 680.173, 336.661 681.441, 337.420 689 C 338.334 698.100, 339.999 704.114, 341.375 703.290 C 342.187 702.803, 342.205 703.017, 341.439 704.058 C 340.485 705.354, 340.310 707.121, 341 708.500 C 341.434 709.368, 341.675 710.388, 342.473 714.732 C 342.900 717.059, 343.593 718.752, 344.012 718.493 C 344.431 718.234, 344.754 718.579, 344.730 719.261 C 344.598 722.908, 345.112 725.049, 345.989 724.507 C 346.532 724.171, 346.739 724.517, 346.448 725.276 C 346.157 726.034, 346.459 727.970, 347.120 729.578 C 347.780 731.185, 348.215 733.124, 348.085 733.886 C 347.927 734.816, 348.414 735.055, 349.566 734.613 C 351.042 734.047, 351.096 734.179, 349.956 735.553 C 349.172 736.497, 349.012 737.428, 349.564 737.826 C 350.079 738.197, 350.593 739.005, 350.707 739.621 C 351.564 744.261, 352.032 746.028, 353.434 749.914 C 354.310 752.341, 355.526 754.929, 356.136 755.664 C 356.746 756.399, 356.953 757, 356.597 757 C 356.240 757, 356.729 758.462, 357.682 760.250 C 358.636 762.038, 359.473 763.725, 359.542 764 C 359.611 764.275, 360.192 765.767, 360.834 767.315 C 361.475 768.863, 362 770.496, 362 770.943 C 362 772.805, 364.633 773.965, 366.047 772.726 C 366.817 772.052, 366.660 772.448, 365.698 773.607 C 364.145 775.478, 364.119 775.854, 365.464 776.970 C 366.297 777.661, 366.788 778.535, 366.555 778.911 C 366.322 779.287, 366.518 780.220, 366.990 780.983 C 367.719 782.163, 368.122 782.156, 369.674 780.936 C 371.352 779.616, 371.387 779.644, 370.103 781.280 C 368.870 782.850, 369.156 783.936, 372.524 790.483 C 374.624 794.566, 376.785 797.633, 377.326 797.299 C 377.887 796.952, 377.991 797.206, 377.569 797.889 C 377.152 798.564, 377.880 800.486, 379.238 802.293 C 380.563 804.057, 381.948 806.316, 382.317 807.313 C 382.722 808.412, 383.481 808.842, 384.243 808.403 C 384.934 808.005, 385.180 808.034, 384.790 808.466 C 383.892 809.462, 386.809 815.236, 387.876 814.577 C 388.311 814.308, 388.667 814.645, 388.667 815.325 C 388.667 816.005, 389.474 817.793, 390.460 819.298 C 391.981 821.620, 392.499 821.843, 393.876 820.767 C 395.289 819.664, 395.337 819.709, 394.243 821.111 C 393.182 822.471, 393.649 823.561, 397.241 828.111 C 402.034 834.180, 405.615 838, 406.514 838 C 406.846 838, 406.794 837.438, 406.399 836.750 C 406.003 836.063, 406.065 835.851, 406.535 836.279 C 407.876 837.499, 407.983 840.099, 406.662 839.355 C 406.023 838.994, 407.034 840.325, 408.908 842.311 C 410.783 844.297, 412.765 845.645, 413.313 845.307 C 413.868 844.964, 413.998 845.194, 413.607 845.828 C 412.703 847.289, 433.523 868.413, 434.979 867.513 C 435.568 867.149, 435.926 867.447, 435.775 868.176 C 435.624 868.904, 436.096 869.376, 436.824 869.225 C 437.553 869.074, 437.886 869.375, 437.565 869.895 C 436.966 870.864, 443.717 877, 445.383 877 C 445.893 877, 445.453 875.988, 444.405 874.750 L 442.500 872.500 444.683 874.344 C 445.883 875.358, 446.636 876.786, 446.355 877.517 C 445.669 879.305, 449.331 881.269, 450.734 879.866 C 451.454 879.146, 451.986 879.168, 452.461 879.938 C 452.839 880.549, 452.778 880.926, 452.324 880.775 C 450.492 880.164, 451.608 882.640, 454.115 884.750 C 457.301 887.431, 458.786 887.699, 456.890 885.250 C 455.786 883.825, 455.950 883.854, 457.767 885.405 C 460.200 887.480, 460.743 888.564, 458.750 887.367 C 457.901 886.857, 457.940 887.158, 458.872 888.308 C 459.627 889.239, 460.795 890, 461.467 890 C 462.140 890, 463.546 890.946, 464.593 892.102 C 467.041 894.808, 471.520 897.125, 472.534 896.210 C 472.966 895.820, 473.033 896.005, 472.681 896.622 C 472.305 897.279, 473.895 898.727, 476.520 900.120 C 478.984 901.427, 481 902.835, 481 903.248 C 481 903.662, 481.459 904, 482.020 904 C 482.581 904, 484.848 905.141, 487.057 906.536 C 489.267 907.931, 491.577 908.761, 492.192 908.382 C 492.871 907.962, 493.029 908.144, 492.595 908.845 C 491.929 909.923, 493.971 910.545, 496.500 910.035 C 497.050 909.924, 497.169 910.164, 496.766 910.568 C 496.362 910.972, 496.812 911.895, 497.766 912.619 C 499.789 914.156, 501.373 914.412, 500.543 913.069 C 500.226 912.557, 500.436 911.849, 501.008 911.495 C 501.581 911.141, 501.985 911.222, 501.906 911.676 C 501.484 914.108, 502.356 915.258, 505.750 916.740 C 507.813 917.641, 509.725 918.425, 510 918.481 C 510.275 918.538, 511.962 919.364, 513.750 920.318 C 515.538 921.271, 517 921.760, 517 921.403 C 517 921.047, 517.675 921.315, 518.500 922 C 519.325 922.685, 520.007 922.852, 520.015 922.372 C 520.024 921.893, 520.406 922.092, 520.865 922.816 C 521.325 923.541, 522.330 924.262, 523.100 924.420 C 523.870 924.577, 526.207 925.462, 528.294 926.385 C 530.381 927.308, 532.480 927.822, 532.959 927.526 C 533.437 927.230, 533.982 927.445, 534.168 928.004 C 534.354 928.563, 535.405 929.221, 536.503 929.467 C 537.601 929.713, 540.687 930.602, 543.360 931.442 C 547.949 932.885, 548.146 932.874, 546.891 931.235 C 546.159 930.281, 546.688 930.501, 548.067 931.724 C 549.445 932.947, 551.456 934.085, 552.536 934.253 C 553.616 934.420, 554.950 934.803, 555.500 935.102 C 556.503 935.647, 559.842 936.661, 569.906 939.474 C 574.240 940.685, 575.618 940.738, 576.848 939.743 C 577.770 938.997, 578.115 938.950, 577.710 939.625 C 577.021 940.776, 583.567 943.029, 587.500 942.996 C 589.631 942.978, 598.500 943.803, 598.500 944.020 C 598.500 944.757, 605.252 945.451, 612.655 945.473 C 617.689 945.488, 621.616 945.812, 621.381 946.193 C 621.145 946.574, 622.426 946.954, 624.226 947.037 C 631.867 947.389, 653.739 947.247, 656.500 946.828 C 658.150 946.578, 663.464 946.289, 668.309 946.186 C 673.275 946.081, 676.874 945.604, 676.558 945.093 C 676.249 944.595, 676.891 944.420, 677.984 944.706 C 679.076 944.992, 680.764 944.904, 681.735 944.511 C 683.659 943.733, 689.942 942.968, 694.161 942.999 C 695.624 943.009, 698.099 942.502, 699.661 941.872 C 701.222 941.241, 704.180 940.594, 706.232 940.433 C 708.285 940.272, 710.535 939.784, 711.232 939.349 C 711.930 938.914, 713.400 938.433, 714.500 938.280 C 718.698 937.697, 724.852 935.569, 724.409 934.853 C 724.155 934.441, 724.916 934.291, 726.101 934.519 C 727.285 934.748, 729.210 934.417, 730.377 933.785 C 731.545 933.153, 733.529 932.522, 734.788 932.382 C 736.046 932.243, 737.846 931.291, 738.788 930.267 C 739.729 929.243, 740.173 928.910, 739.774 929.526 C 739.277 930.294, 739.988 930.509, 742.036 930.208 C 743.680 929.967, 745.314 929.302, 745.667 928.730 C 746.066 928.084, 745.814 927.997, 745 928.500 C 744.175 929.010, 743.933 928.917, 744.346 928.248 C 744.707 927.665, 745.790 927.394, 746.754 927.646 C 747.718 927.898, 750.230 927.384, 752.336 926.504 C 755.720 925.090, 756.012 924.706, 754.850 923.202 C 753.752 921.782, 753.888 921.801, 755.668 923.315 C 757.742 925.080, 757.863 925.066, 760.048 922.815 C 761.283 921.542, 761.933 921.132, 761.493 921.905 C 760.900 922.943, 761.057 923.081, 762.095 922.433 C 762.868 921.951, 764.130 921.461, 764.900 921.345 C 765.670 921.228, 766.620 920.615, 767.012 919.981 C 767.403 919.348, 767.898 918.950, 768.112 919.097 C 769.146 919.809, 773.119 918.002, 772.549 917.079 C 772.163 916.454, 772.485 916.249, 773.337 916.576 C 775.202 917.292, 785.097 911.965, 784.299 910.674 C 783.964 910.133, 784.146 909.972, 784.702 910.316 C 785.845 911.022, 796 906.083, 796 904.820 C 796 904.369, 796.914 904, 798.031 904 C 799.149 904, 800.322 903.325, 800.638 902.500 C 800.955 901.675, 801.867 901, 802.666 901 C 803.509 901, 803.819 900.516, 803.405 899.845 C 802.963 899.131, 803.130 898.962, 803.844 899.403 C 805.265 900.282, 809.274 897.637, 808.244 896.500 C 807.835 896.049, 808.026 895.981, 808.669 896.349 C 809.313 896.717, 810.630 896.227, 811.598 895.259 C 812.566 894.292, 813.539 893.654, 813.761 893.842 C 813.983 894.030, 815.476 893.016, 817.078 891.588 C 818.681 890.160, 820.258 889.039, 820.582 889.098 C 820.906 889.157, 822.595 888.036, 824.336 886.607 C 826.076 885.178, 829.008 882.913, 830.850 881.574 C 832.693 880.234, 834.943 878.457, 835.850 877.624 C 836.758 876.792, 839.642 874.224, 842.259 871.919 C 846.327 868.337, 846.836 867.493, 845.759 866.114 C 844.663 864.708, 844.710 864.664, 846.125 865.768 C 847.527 866.863, 848.990 865.803, 856.817 858.020 C 863.468 851.407, 865.782 848.462, 865.495 846.975 C 865.278 845.845, 865.532 845.211, 866.069 845.542 C 866.599 845.870, 866.723 846.670, 866.344 847.319 C 865.966 847.969, 866.623 847.652, 867.805 846.616 C 868.986 845.580, 869.669 844.273, 869.322 843.712 C 868.975 843.150, 869.169 842.987, 869.754 843.348 C 870.339 843.710, 871.986 842.542, 873.414 840.753 C 874.842 838.964, 876.714 836.758, 877.575 835.850 C 878.435 834.943, 880.234 832.693, 881.574 830.850 C 882.913 829.008, 885.178 826.076, 886.607 824.336 C 888.036 822.595, 889.256 820.795, 889.318 820.336 C 889.379 819.876, 890.432 818.375, 891.658 817 C 892.883 815.625, 893.895 814.146, 893.907 813.714 C 893.919 813.282, 894.624 812.233, 895.473 811.384 C 896.323 810.534, 896.717 809.313, 896.349 808.669 C 895.981 808.026, 896.049 807.835, 896.500 808.244 C 897.637 809.274, 900.282 805.265, 899.403 803.844 C 898.962 803.130, 899.131 802.963, 899.845 803.405 C 900.516 803.819, 901 803.509, 901 802.666 C 901 801.867, 901.675 800.955, 902.500 800.638 C 903.325 800.322, 904 799.149, 904 798.031 C 904 796.914, 904.369 796, 904.820 796 C 906.083 796, 911.022 785.845, 910.316 784.702 C 909.972 784.146, 910.133 783.964, 910.674 784.299 C 911.965 785.097, 917.292 775.202, 916.576 773.337 C 916.249 772.485, 916.454 772.163, 917.079 772.549 C 918.002 773.119, 919.809 769.146, 919.097 768.112 C 918.950 767.898, 919.348 767.403, 919.981 767.012 C 920.615 766.620, 921.228 765.670, 921.345 764.900 C 921.461 764.130, 921.951 762.868, 922.433 762.095 C 923.081 761.057, 922.943 760.900, 921.905 761.493 C 921.132 761.933, 921.542 761.283, 922.815 760.048 C 925.066 757.863, 925.080 757.742, 923.315 755.668 C 921.801 753.888, 921.782 753.752, 923.202 754.850 C 924.704 756.011, 925.086 755.731, 926.452 752.461 C 927.303 750.423, 928 748.226, 928 747.578 C 928 746.930, 928.563 745.794, 929.250 745.053 C 930.262 743.963, 930.230 743.861, 929.077 744.519 C 928.029 745.118, 928.095 744.702, 929.327 742.943 C 931.332 740.081, 931.522 738.404, 929.703 739.628 C 928.989 740.107, 929.243 739.729, 930.267 738.788 C 931.291 737.846, 932.243 736.046, 932.382 734.788 C 932.522 733.529, 933.153 731.545, 933.785 730.377 C 934.417 729.210, 934.748 727.285, 934.519 726.101 C 934.291 724.916, 934.441 724.155, 934.853 724.409 C 935.569 724.852, 937.697 718.698, 938.280 714.500 C 938.433 713.400, 938.914 711.930, 939.349 711.232 C 939.784 710.535, 940.272 708.285, 940.433 706.232 C 940.594 704.180, 941.241 701.222, 941.872 699.661 C 942.502 698.099, 943.009 695.624, 942.999 694.161 C 942.980 691.531, 943.770 682.500, 944.020 682.500 C 944.757 682.500, 945.451 675.748, 945.473 668.345 C 945.488 663.311, 945.854 659.410, 946.287 659.677 C 947.171 660.224, 947.242 658.801, 947.242 640.500 C 947.242 622.199, 947.171 620.776, 946.287 621.326 C 945.854 621.595, 945.646 617.760, 945.824 612.803 C 946.046 606.624, 945.813 603.997, 945.085 604.447 C 944.461 604.833, 944.244 604.528, 944.558 603.708 C 944.853 602.941, 944.581 599.430, 943.955 595.906 C 943.328 592.383, 942.860 588.391, 942.915 587.035 C 942.969 585.679, 942.529 583.102, 941.937 581.308 C 941.345 579.514, 940.696 576.799, 940.496 575.273 C 939.969 571.260, 937.309 561.452, 935.336 556.250 C 934.971 555.288, 934.578 554.163, 934.461 553.750 C 934.345 553.337, 934.138 552.775, 934 552.500 C 933.862 552.225, 933.638 551.550, 933.500 551 C 933.362 550.450, 933.157 549.888, 933.043 549.750 C 932.929 549.612, 932.627 548.150, 932.372 546.500 C 932.117 544.850, 931.091 541.825, 930.093 539.777 C 929.094 537.729, 928.622 536.266, 929.042 536.526 C 929.779 536.981, 926.501 527.606, 925.195 525.519 C 924.843 524.959, 924.465 523.900, 924.354 523.166 C 924.243 522.432, 923.331 521.161, 922.326 520.342 C 921.322 519.522, 921.132 519.180, 921.905 519.580 C 922.935 520.115, 923.072 519.935, 922.420 518.905 C 921.931 518.132, 921.486 517.275, 921.432 517 C 921.377 516.725, 920.733 515.150, 920 513.500 C 919.267 511.850, 918.603 510.275, 918.523 510 C 916.868 504.275, 914.456 501.423, 911.676 501.906 C 911.222 501.985, 911.141 501.581, 911.495 501.008 C 911.849 500.436, 912.557 500.226, 913.069 500.543 C 914.412 501.373, 914.156 499.789, 912.619 497.766 C 911.895 496.812, 910.972 496.362, 910.568 496.766 C 910.164 497.169, 909.924 497.050, 910.035 496.500 C 910.545 493.971, 909.923 491.929, 908.845 492.595 C 908.144 493.029, 907.962 492.871, 908.382 492.192 C 908.761 491.577, 907.931 489.267, 906.536 487.057 C 905.141 484.848, 904 482.845, 904 482.607 C 904 481.409, 897.221 472.089, 896.656 472.510 C 896.295 472.780, 896.207 472.718, 896.460 472.373 C 897.137 471.451, 894.524 466.784, 892.102 464.593 C 890.946 463.546, 890 462.189, 890 461.577 C 890 460.032, 881.913 450.385, 881.133 451 C 880.785 451.275, 880.624 451.871, 880.775 452.324 C 880.926 452.778, 880.549 452.839, 879.938 452.461 C 879.168 451.986, 879.146 451.454, 879.866 450.734 C 881.269 449.331, 879.305 445.669, 877.517 446.355 C 876.786 446.636, 875.358 445.883, 874.344 444.683 L 872.500 442.500 874.750 444.405 C 875.987 445.453, 877 445.893, 877 445.383 C 877 443.717, 870.864 436.966, 869.895 437.565 C 869.375 437.886, 869.074 437.553, 869.225 436.824 C 869.376 436.096, 868.904 435.624, 868.176 435.775 C 867.447 435.926, 867.128 435.601, 867.467 435.053 C 868.365 433.601, 847.327 412.680, 845.873 413.579 C 845.198 413.996, 844.955 413.882, 845.307 413.313 C 845.645 412.765, 844.297 410.783, 842.311 408.908 C 840.325 407.034, 838.994 406.023, 839.355 406.662 C 840.099 407.983, 837.499 407.876, 836.279 406.535 C 835.851 406.065, 836.063 406.003, 836.750 406.399 C 837.438 406.794, 838 406.846, 838 406.514 C 838 405.711, 834.589 402.464, 828.174 397.159 C 823.583 393.362, 822.710 392.986, 821.212 394.159 C 819.698 395.345, 819.646 395.312, 820.767 393.876 C 821.843 392.499, 821.620 391.981, 819.298 390.460 C 817.793 389.474, 816.005 388.667, 815.325 388.667 C 814.645 388.667, 814.308 388.311, 814.577 387.876 C 815.236 386.809, 809.462 383.892, 808.466 384.790 C 808.034 385.180, 808.005 384.934, 808.403 384.243 C 808.842 383.481, 808.412 382.722, 807.313 382.317 C 806.316 381.948, 804.057 380.563, 802.293 379.238 C 800.486 377.880, 798.564 377.152, 797.889 377.569 C 797.174 378.011, 796.953 377.886, 797.340 377.259 C 798.054 376.104, 795.321 374.684, 793.979 375.513 C 793.516 375.799, 792.813 375.506, 792.415 374.862 C 791.963 374.131, 792.124 373.959, 792.845 374.405 C 793.480 374.797, 794 374.900, 794 374.633 C 794 374.366, 791.523 372.935, 788.496 371.454 C 783.728 369.122, 782.759 368.945, 781.246 370.131 C 779.648 371.384, 779.622 371.345, 780.936 369.674 C 782.156 368.122, 782.163 367.719, 780.983 366.990 C 780.220 366.518, 779.287 366.322, 778.911 366.555 C 778.535 366.788, 777.661 366.297, 776.970 365.464 C 775.854 364.119, 775.478 364.145, 773.607 365.698 C 772.448 366.660, 772.052 366.817, 772.726 366.047 C 773.624 365.023, 773.658 364.293, 772.854 363.324 C 771.496 361.688, 768.596 361.537, 769.595 363.155 C 770.041 363.876, 769.869 364.037, 769.138 363.585 C 768.494 363.187, 768.195 362.494, 768.472 362.045 C 769.022 361.155, 765.540 359.747, 762.773 359.740 C 761.823 359.738, 761.267 359.378, 761.537 358.940 C 761.808 358.502, 761.010 357.821, 759.765 357.425 C 758.519 357.030, 757.457 356.885, 757.404 357.103 C 757.351 357.321, 756.637 356.944, 755.817 356.263 C 754.998 355.583, 752.341 354.310, 749.914 353.434 C 746.028 352.032, 744.261 351.564, 739.621 350.707 C 739.005 350.593, 738.197 350.079, 737.826 349.564 C 737.428 349.012, 736.497 349.172, 735.553 349.956 C 734.179 351.096, 734.047 351.042, 734.613 349.566 C 735.055 348.414, 734.816 347.927, 733.886 348.085 C 733.124 348.215, 731.185 347.780, 729.578 347.120 C 727.970 346.459, 725.959 346.186, 725.108 346.512 C 724.257 346.839, 723.889 346.778, 724.290 346.377 C 725.265 345.401, 718.624 343.164, 710 341.562 C 709.725 341.511, 709.050 341.222, 708.500 340.920 C 707.950 340.618, 706.825 340.427, 706 340.496 C 705.175 340.565, 703.375 340.217, 702 339.722 C 700.625 339.227, 695 338.221, 689.500 337.485 C 684 336.750, 678.639 335.813, 677.586 335.404 C 676.108 334.829, 675.856 334.983, 676.483 336.080 C 677.139 337.230, 677.037 337.262, 675.947 336.250 C 675.132 335.494, 671.795 335, 667.500 335 C 663.234 335, 659.840 335.499, 658.998 336.250 C 657.805 337.314, 657.794 337.239, 658.928 335.742 C 660.153 334.124, 659.929 334.009, 656.129 334.310 C 653.858 334.490, 652 334.268, 652 333.818 C 652 333.368, 649.723 333, 646.941 333 C 644.159 333, 642.114 333.375, 642.397 333.833 C 642.680 334.292, 642.277 334.667, 641.500 334.667 C 640.723 334.667, 640.320 334.292, 640.603 333.833 C 640.886 333.375, 638.590 333, 635.500 333 C 631.272 333, 630.068 333.309, 630.633 334.250 C 631.232 335.247, 631.074 335.249, 629.850 334.259 C 629.006 333.576, 628.039 333.295, 627.700 333.634 M 262.405 541.846 C 262.647 542.238, 261.643 542.504, 260.173 542.436 C 258.703 542.368, 256.825 542.646, 256 543.054 C 255.175 543.461, 252.700 544.479, 250.500 545.316 C 238.765 549.778, 235 551.446, 235 552.184 C 235 552.633, 234.662 552.947, 234.250 552.882 C 232.252 552.566, 229.933 553.082, 230.345 553.750 C 230.600 554.163, 229.667 554.569, 228.273 554.652 C 226.879 554.736, 225.410 555.337, 225.008 555.988 C 224.605 556.638, 223.989 557.132, 223.638 557.085 C 221.274 556.769, 219.971 557.143, 220.493 557.989 C 220.844 558.557, 220.439 558.722, 219.539 558.377 C 218.679 558.046, 217.418 558.204, 216.737 558.726 C 216.057 559.249, 210.887 561.400, 205.250 563.506 C 199.613 565.613, 195 567.737, 195 568.227 C 195 568.717, 194.530 568.828, 193.956 568.473 C 193.382 568.118, 191.823 568.541, 190.491 569.414 C 189.160 570.286, 187.380 571, 186.535 571 C 185.691 571, 185 571.525, 185 572.167 C 185 572.808, 184.718 573.051, 184.373 572.707 C 184.028 572.362, 182.458 572.746, 180.884 573.560 C 179.309 574.374, 177.904 575, 177.760 574.950 C 177.617 574.900, 176.150 575.354, 174.500 575.959 C 172.850 576.564, 170.909 577.268, 170.187 577.523 C 169.464 577.777, 169.134 578.408, 169.453 578.924 C 169.772 579.440, 169.506 580.187, 168.862 580.585 C 168.131 581.037, 167.959 580.876, 168.405 580.155 C 168.856 579.425, 168.361 579, 167.059 579 C 165.927 579, 165 579.525, 165 580.167 C 165 580.808, 164.737 581.070, 164.415 580.748 C 163.579 579.912, 158 582.006, 158 583.157 C 158 583.685, 158.563 583.794, 159.250 583.399 C 159.938 583.003, 160.149 583.065, 159.721 583.535 C 158.653 584.709, 155.854 585.044, 156.552 583.915 C 157.080 583.062, 154.040 583.925, 149.500 585.920 C 148.400 586.403, 146.037 587.348, 144.250 588.020 C 141.266 589.143, 140.520 590.102, 140.906 592.324 C 140.985 592.778, 140.581 592.859, 140.008 592.505 C 139.436 592.151, 139.226 591.443, 139.543 590.931 C 140.392 589.556, 138.730 589.800, 136.473 591.382 C 134.467 592.786, 133.862 593, 131.893 593 C 131.277 593, 131.066 593.729, 131.416 594.641 C 131.929 595.978, 131.778 596.060, 130.602 595.085 C 129.451 594.129, 127.375 594.626, 120.330 597.541 C 115.473 599.551, 111.275 601.489, 111 601.848 C 110.725 602.207, 109.938 602.545, 109.250 602.600 C 105.565 602.895, 105 603.089, 105 604.059 C 105 604.641, 105.520 604.797, 106.155 604.405 C 106.833 603.985, 107.039 604.128, 106.654 604.752 C 106.293 605.335, 105.167 605.595, 104.151 605.329 C 103.135 605.064, 100.548 605.622, 98.402 606.570 C 96.256 607.518, 93.870 608.423, 93.100 608.580 C 92.330 608.738, 91.430 609.234, 91.100 609.684 C 90.770 610.133, 89.375 610.655, 88 610.845 C 86.625 611.035, 85.350 611.598, 85.167 612.095 C 84.983 612.593, 83.971 613, 82.917 613 C 81.177 613, 80.518 614.089, 80.906 616.324 C 80.985 616.778, 80.581 616.859, 80.008 616.505 C 79.436 616.151, 79.286 615.330, 79.676 614.681 C 80.079 614.008, 79.656 614.091, 78.692 614.872 C 77.761 615.627, 77 615.895, 77 615.467 C 77 615.040, 76.023 615.547, 74.828 616.595 C 73.634 617.643, 73.013 617.893, 73.449 617.150 C 74.067 616.098, 73.829 616.014, 72.371 616.767 C 69.004 618.508, 63.611 620.732, 57.197 623.028 C 52.334 624.768, 51.033 625.644, 51.500 626.861 C 51.833 627.729, 51.800 628.133, 51.426 627.759 C 51.052 627.386, 49.418 627.767, 47.794 628.606 C 44.885 630.111, 41.412 636.239, 42.484 637.975 C 42.786 638.463, 42.568 639.149, 42 639.500 C 41.432 639.851, 41.284 640.651, 41.671 641.277 C 42.058 641.903, 42.489 643.485, 42.628 644.793 C 43.141 649.605, 46.470 652.763, 50.324 652.094 C 50.778 652.015, 50.920 652.321, 50.640 652.773 C 49.936 653.913, 51.410 656.080, 53.100 656.390 C 53.870 656.531, 56.242 657.401, 58.372 658.323 C 63.087 660.365, 63.577 660.400, 62.074 658.589 C 61.177 657.509, 61.185 657.004, 62.106 656.435 C 62.768 656.026, 63.054 656.103, 62.743 656.607 C 61.730 658.246, 64.426 660.697, 69.766 662.995 C 74.278 664.936, 75.240 665.057, 76.749 663.873 C 78.306 662.652, 78.360 662.680, 77.234 664.122 C 76.146 665.515, 76.409 665.927, 79.093 667.039 C 80.812 667.751, 82.845 668.333, 83.609 668.333 C 84.374 668.333, 85 668.637, 85 669.008 C 85 669.552, 88.037 670.737, 94 672.520 C 94.275 672.603, 96.485 673.604, 98.911 674.747 C 101.336 675.889, 104.161 676.662, 105.187 676.464 C 106.214 676.266, 106.828 676.469, 106.553 676.914 C 105.828 678.087, 118.671 683.321, 120.103 682.436 C 120.869 681.963, 121.048 682.113, 120.595 682.845 C 120.179 683.519, 120.531 684.052, 121.441 684.125 C 123.846 684.318, 124.282 684.467, 127.592 686.236 C 130.476 687.777, 130.808 687.774, 132.537 686.194 C 134.243 684.635, 134.290 684.634, 133.131 686.180 C 132.070 687.594, 132.201 688.037, 133.956 688.977 C 135.103 689.590, 136.552 689.777, 137.175 689.392 C 137.870 688.962, 138.033 689.138, 137.595 689.845 C 137.203 690.480, 137.403 691, 138.040 691 C 138.677 691, 140.616 691.624, 142.349 692.386 C 153.133 697.131, 158.976 699.133, 160.067 698.458 C 160.836 697.983, 161.055 698.101, 160.643 698.768 C 160.071 699.694, 171.882 705.035, 177.012 706.171 C 177.830 706.352, 178.779 706.881, 179.119 707.348 C 179.460 707.814, 180.885 708.264, 182.285 708.348 C 183.686 708.431, 184.639 708.693, 184.403 708.929 C 183.829 709.504, 195.810 714.580, 199.820 715.460 C 201.569 715.845, 203 716.621, 203 717.186 C 203 717.752, 203.620 717.976, 204.378 717.685 C 205.136 717.394, 206.261 717.661, 206.878 718.278 C 207.495 718.895, 208 719.053, 208 718.629 C 208 718.204, 208.742 718.599, 209.649 719.506 C 210.556 720.413, 212.132 720.937, 213.150 720.671 C 214.169 720.404, 214.780 720.547, 214.507 720.988 C 213.885 721.995, 216.861 723.204, 218.090 722.444 C 218.591 722.135, 219 722.304, 219 722.820 C 219 723.335, 220.463 724.299, 222.250 724.962 C 224.037 725.625, 226.239 726.553, 227.142 727.025 C 229.351 728.178, 230.276 727.061, 228.741 725.092 C 227.645 723.686, 227.703 723.659, 229.239 724.863 C 230.195 725.613, 230.731 726.626, 230.429 727.115 C 230.127 727.604, 231.144 728.485, 232.690 729.072 C 235.624 730.188, 236.689 730.068, 236.225 728.676 C 236.074 728.222, 236.419 728.141, 236.992 728.495 C 237.564 728.849, 237.803 729.510, 237.522 729.964 C 237.241 730.419, 237.721 731.063, 238.588 731.395 C 240.847 732.262, 241.212 732.152, 240.405 730.845 C 239.959 730.124, 240.131 729.963, 240.862 730.415 C 241.506 730.813, 241.809 731.499, 241.536 731.941 C 241.087 732.668, 247.300 735.465, 251 736.201 C 251.825 736.366, 252.793 736.905, 253.151 737.399 C 253.509 737.894, 254.859 738.389, 256.151 738.499 C 257.443 738.609, 259.290 739.041, 260.255 739.458 C 261.825 740.138, 265.410 739.898, 270.149 738.796 C 273.164 738.095, 275.129 735.860, 273.964 734.456 C 273.207 733.545, 273.248 732.965, 274.106 732.435 C 274.869 731.963, 275.048 732.114, 274.595 732.845 C 273.359 734.846, 275.181 734.098, 277.192 731.779 C 278.251 730.558, 278.908 728.757, 278.652 727.778 C 278.396 726.798, 278.595 726.249, 279.093 726.558 C 280.295 727.300, 280.255 721.064, 279.034 717.399 C 278.503 715.805, 277.856 712.475, 277.597 710 C 277.337 707.525, 277.096 705.361, 277.062 705.191 C 277.028 705.021, 276.655 705.095, 276.232 705.356 C 275.810 705.617, 275.417 704.181, 275.358 702.165 C 274.968 688.731, 274.833 687.850, 273.262 688.453 C 272 688.937, 271.941 688.776, 272.941 687.571 C 273.650 686.717, 273.873 685.174, 273.470 683.905 C 272.902 682.116, 272.084 671.005, 271.912 662.750 C 271.892 661.788, 271.566 661, 271.188 661 C 270.249 661, 270.310 620.642, 271.250 619.941 C 271.663 619.633, 272.243 614.500, 272.538 608.534 C 272.834 602.568, 273.318 597.294, 273.614 596.815 C 273.911 596.336, 274.323 593.369, 274.530 590.222 C 274.738 587.075, 275.197 582.700, 275.551 580.500 C 275.904 578.300, 276.225 575.938, 276.264 575.250 C 276.302 574.563, 276.754 574, 277.267 574 C 277.781 574, 278.040 571.976, 277.844 569.502 C 277.647 567.029, 277.767 564.891, 278.111 564.752 C 278.454 564.614, 279.080 563.375, 279.501 562 C 280.243 559.575, 280.207 559.552, 278.300 561.254 C 276.660 562.717, 276.333 562.758, 276.333 561.504 C 276.333 560.677, 276.554 560.221, 276.825 560.491 C 277.836 561.503, 280 558.665, 280 556.328 C 280 551.743, 276.963 547.498, 273.917 547.826 C 273.596 547.861, 273.333 547.246, 273.333 546.460 C 273.333 545.357, 273.694 545.284, 274.917 546.141 C 275.788 546.751, 275.206 546.042, 273.625 544.566 C 272.044 543.089, 270.132 542.119, 269.375 542.409 C 268.619 542.700, 268 542.570, 268 542.121 C 268 541.672, 266.642 541.266, 264.982 541.219 C 263.322 541.171, 262.162 541.454, 262.405 541.846 M 1010.500 542.105 C 1007.139 544.068, 1004.032 547.243, 1004.590 548.145 C 1004.880 548.615, 1004.690 549, 1004.166 549 C 1003.642 549, 1002.946 549.698, 1002.618 550.552 C 1002.291 551.406, 1002.437 551.848, 1002.942 551.536 C 1003.448 551.223, 1004.190 551.537, 1004.591 552.234 C 1004.992 552.930, 1004.952 553.166, 1004.502 552.759 C 1003.192 551.571, 1001 554.026, 1001 556.681 C 1001 558.022, 1001.375 558.886, 1001.833 558.603 C 1002.292 558.320, 1002.667 558.723, 1002.667 559.500 C 1002.667 560.277, 1002.215 560.633, 1001.663 560.292 C 1001.034 559.903, 1000.946 560.385, 1001.428 561.586 C 1001.851 562.639, 1002.571 566.415, 1003.029 569.977 C 1003.488 573.539, 1004.296 576.599, 1004.825 576.775 C 1005.355 576.952, 1005.553 577.995, 1005.265 579.094 C 1004.942 580.329, 1005.460 581.675, 1006.621 582.620 C 1007.655 583.461, 1007.932 583.860, 1007.237 583.507 C 1006.266 583.014, 1006.061 584.357, 1006.350 589.307 C 1006.762 596.367, 1007.517 598.405, 1009.319 597.324 C 1010.213 596.788, 1010.223 596.966, 1009.358 598.058 C 1008.060 599.698, 1008.347 618.917, 1009.685 619.901 C 1010.708 620.653, 1010.772 661, 1009.750 661 C 1009.337 661, 1009 661.845, 1009 662.878 C 1009 665.081, 1011.321 667.311, 1012.502 666.241 C 1012.952 665.834, 1012.983 666.084, 1012.571 666.799 C 1012.030 667.737, 1011.465 667.801, 1010.533 667.027 C 1009.559 666.219, 1009.096 666.512, 1008.636 668.229 C 1007.745 671.554, 1007.869 674.199, 1008.887 673.570 C 1009.374 673.269, 1010.296 673.652, 1010.935 674.422 C 1011.751 675.405, 1011.778 676.019, 1011.024 676.485 C 1010.433 676.850, 1010.074 676.710, 1010.225 676.174 C 1010.376 675.638, 1010.050 675.267, 1009.500 675.350 C 1008.950 675.432, 1008.496 677.075, 1008.492 679 C 1008.488 680.925, 1008.100 683.100, 1007.631 683.834 C 1007.162 684.568, 1006.620 688.071, 1006.427 691.619 C 1006.166 696.429, 1006.385 697.915, 1007.289 697.461 C 1007.955 697.126, 1007.821 697.448, 1006.991 698.176 C 1005.283 699.674, 1003 707.553, 1003 711.949 C 1003 713.556, 1002.540 716.079, 1001.979 717.557 C 1001.228 719.531, 1001.294 720.660, 1002.229 721.814 C 1003.217 723.034, 1003.222 723.217, 1002.250 722.633 C 1000.865 721.801, 1000.418 726.084, 1001.750 727.417 C 1002.163 727.829, 1002.520 728.692, 1002.545 729.333 C 1002.570 729.975, 1003.117 730.393, 1003.759 730.262 C 1004.402 730.131, 1004.700 730.619, 1004.420 731.347 C 1004.141 732.075, 1004.866 733.757, 1006.032 735.085 C 1007.198 736.413, 1007.886 736.969, 1007.560 736.319 C 1007.234 735.670, 1007.436 734.849, 1008.008 734.495 C 1008.581 734.141, 1008.985 734.222, 1008.906 734.676 C 1008.300 738.163, 1012.901 740.490, 1018.691 739.625 C 1024.974 738.686, 1027.322 738.088, 1027.927 737.273 C 1028.242 736.848, 1029.175 736.372, 1030 736.215 C 1032.838 735.674, 1042 731.767, 1042 731.097 C 1042 730.728, 1042.828 730.363, 1043.840 730.287 C 1046.971 730.051, 1062 723.912, 1062 722.868 C 1062 722.326, 1062.402 722.131, 1062.894 722.434 C 1064.088 723.172, 1071.304 720.126, 1072.248 718.485 C 1072.682 717.730, 1073.900 717.422, 1075.154 717.751 C 1076.515 718.106, 1077.074 717.929, 1076.667 717.270 C 1076.312 716.696, 1076.579 716.246, 1077.261 716.270 C 1080.346 716.382, 1082 715.917, 1082 714.941 C 1082 714.359, 1081.438 714.220, 1080.750 714.633 C 1079.901 715.143, 1079.940 714.842, 1080.872 713.692 C 1082.466 711.728, 1083.103 711.535, 1082.750 713.125 C 1082.613 713.744, 1083.134 714.480, 1083.909 714.761 C 1084.838 715.098, 1085.126 714.772, 1084.755 713.803 C 1084.429 712.954, 1084.765 712.333, 1085.551 712.333 C 1086.300 712.333, 1086.637 712.778, 1086.302 713.321 C 1085.918 713.942, 1086.212 713.979, 1087.095 713.420 C 1087.868 712.931, 1088.725 712.502, 1089 712.466 C 1089.275 712.431, 1090.536 712.048, 1091.803 711.617 C 1093.764 710.948, 1093.912 710.598, 1092.803 709.255 C 1091.634 707.840, 1091.728 707.821, 1093.725 709.064 C 1095.481 710.158, 1096.208 710.192, 1097.175 709.225 C 1097.849 708.551, 1099.210 708, 1100.200 708 C 1101.190 708, 1102 707.625, 1102 707.167 C 1102 706.708, 1102.563 706.321, 1103.250 706.306 C 1105.435 706.259, 1120.935 699.914, 1121.636 698.780 C 1122.067 698.083, 1121.838 697.982, 1121 698.500 C 1120.101 699.056, 1119.931 698.920, 1120.458 698.067 C 1120.957 697.261, 1121.568 697.168, 1122.200 697.800 C 1123.073 698.673, 1126.717 697.505, 1137.500 692.896 C 1138.600 692.426, 1140.765 691.583, 1142.310 691.023 C 1144.136 690.361, 1144.868 689.565, 1144.400 688.752 C 1144.004 688.063, 1144.048 687.834, 1144.498 688.241 C 1144.948 688.649, 1146.006 688.424, 1146.850 687.741 C 1148.122 686.712, 1148.237 686.756, 1147.520 688 C 1147.006 688.893, 1147.605 688.690, 1149 687.500 C 1150.440 686.271, 1151.028 686.078, 1150.525 687 C 1149.860 688.219, 1149.959 688.266, 1151.053 687.250 C 1151.794 686.563, 1152.930 686, 1153.578 686 C 1154.226 686, 1156.498 685.240, 1158.628 684.311 C 1160.758 683.382, 1162.725 682.572, 1163 682.512 C 1165.761 681.905, 1167.928 680.693, 1167.498 679.997 C 1167.206 679.525, 1167.494 678.813, 1168.138 678.415 C 1168.869 677.963, 1169.041 678.124, 1168.595 678.845 C 1168.203 679.480, 1168.337 680, 1168.894 680 C 1170.033 680, 1175.232 677.820, 1176 677.020 C 1176.275 676.734, 1177.175 676.372, 1178 676.216 C 1181.185 675.613, 1184.952 673.731, 1184.486 672.977 C 1184.217 672.542, 1184.831 672.404, 1185.850 672.671 C 1186.868 672.937, 1188.331 672.558, 1189.101 671.828 C 1189.870 671.097, 1191.605 670.376, 1192.956 670.225 C 1194.307 670.074, 1195.708 669.473, 1196.068 668.890 C 1196.429 668.306, 1197.011 667.868, 1197.362 667.915 C 1199.726 668.231, 1201.029 667.857, 1200.507 667.011 C 1200.169 666.464, 1200.531 666.266, 1201.319 666.569 C 1202.102 666.869, 1203.008 666.422, 1203.333 665.574 C 1203.658 664.727, 1204.553 664.275, 1205.322 664.570 C 1206.091 664.865, 1209.146 663.996, 1212.110 662.640 C 1215.075 661.283, 1220.159 659.213, 1223.410 658.040 C 1230.165 655.603, 1235.295 652.287, 1234.443 650.907 C 1234.123 650.390, 1233.373 650.269, 1232.776 650.638 C 1232.123 651.042, 1231.979 650.843, 1232.415 650.138 C 1232.813 649.494, 1233.561 649.228, 1234.077 649.547 C 1235.304 650.306, 1237.929 647.647, 1238.249 645.322 C 1238.387 644.320, 1238.050 643.388, 1237.500 643.250 C 1236.950 643.112, 1236.500 643.412, 1236.500 643.917 C 1236.500 644.421, 1236.196 645.137, 1235.825 645.508 C 1235.256 646.077, 1235.408 643.627, 1236.042 642 C 1236.149 641.725, 1236.209 641.237, 1236.174 640.917 C 1236.139 640.596, 1236.741 640.333, 1237.512 640.333 C 1238.282 640.333, 1238.680 640.708, 1238.397 641.167 C 1238.114 641.625, 1238.359 642, 1238.941 642 C 1239.523 642, 1240 641.325, 1240 640.500 C 1240 639.675, 1239.648 639, 1239.218 639 C 1238.788 639, 1238.337 637.763, 1238.216 636.250 C 1238.095 634.737, 1237.321 633, 1236.498 632.390 C 1235.674 631.779, 1235 630.773, 1235 630.154 C 1235 628.574, 1228.438 624.552, 1222.500 622.493 C 1219.750 621.540, 1215.250 619.762, 1212.500 618.542 C 1209.750 617.322, 1205.025 615.467, 1202 614.420 C 1198.975 613.373, 1196.275 612.288, 1196 612.008 C 1195.540 611.541, 1189.845 609.242, 1187.500 608.577 C 1186.345 608.250, 1180.010 605.566, 1175.169 603.352 C 1173.337 602.514, 1171.596 602.071, 1171.300 602.367 C 1171.004 602.663, 1170.073 602.216, 1169.232 601.375 C 1168.390 600.533, 1166.868 600.063, 1165.850 600.329 C 1164.831 600.596, 1164.218 600.456, 1164.488 600.019 C 1164.759 599.582, 1162.397 598.223, 1159.240 596.999 C 1156.083 595.775, 1151.160 593.851, 1148.299 592.723 C 1143.764 590.935, 1142.869 590.854, 1141.299 592.086 C 1139.677 593.361, 1139.628 593.336, 1140.803 591.834 C 1141.923 590.402, 1141.783 590.059, 1139.803 589.386 C 1138.536 588.956, 1137.162 588.693, 1136.750 588.802 C 1136.338 588.911, 1136 588.550, 1136 588 C 1136 587.450, 1135.394 587, 1134.654 587 C 1133.913 587, 1131.900 586.298, 1130.180 585.440 C 1128.460 584.582, 1126.141 583.811, 1125.026 583.727 C 1123.912 583.643, 1123 583.172, 1123 582.680 C 1123 582.188, 1122.302 582.054, 1121.448 582.382 C 1120.558 582.723, 1120.157 582.555, 1120.507 581.989 C 1120.843 581.445, 1120.416 580.944, 1119.559 580.875 C 1117.145 580.681, 1116.722 580.534, 1113.250 578.682 C 1111.463 577.729, 1110 577.240, 1110 577.597 C 1110 577.953, 1109.331 577.689, 1108.513 577.011 C 1107.695 576.332, 1106.359 576.032, 1105.545 576.344 C 1104.730 576.657, 1103.755 576.413, 1103.378 575.802 C 1102.933 575.082, 1103.152 574.976, 1104 575.500 C 1104.892 576.051, 1105.068 575.920, 1104.554 575.088 C 1104.139 574.416, 1103.564 574.103, 1103.276 574.391 C 1102.988 574.679, 1101.026 574.034, 1098.916 572.957 C 1094.744 570.829, 1093.600 570.544, 1094.397 571.833 C 1094.680 572.292, 1094.300 572.667, 1093.551 572.667 C 1092.803 572.667, 1092.399 572.125, 1092.653 571.462 C 1092.907 570.800, 1092.391 569.980, 1091.506 569.640 C 1090.431 569.228, 1090.104 569.435, 1090.522 570.261 C 1090.867 570.943, 1090.551 570.778, 1089.820 569.896 C 1088.595 568.415, 1085.928 567.162, 1083.500 566.927 C 1082.950 566.874, 1081.851 566.306, 1081.058 565.665 C 1079.894 564.725, 1079.783 564.790, 1080.480 566 C 1080.994 566.893, 1080.395 566.690, 1079 565.500 C 1077.495 564.216, 1076.923 564.037, 1077.402 565 C 1078.007 566.216, 1077.898 566.204, 1076.824 564.936 C 1076.096 564.076, 1067.850 560.311, 1058.500 556.571 C 1049.150 552.831, 1040.150 549.207, 1038.500 548.518 C 1021.464 541.405, 1014.450 539.799, 1010.500 542.105 M 313 831.849 C 313 832.248, 312.011 832.649, 310.802 832.740 C 309.593 832.831, 307.455 833.757, 306.052 834.799 C 302.684 837.297, 297.944 844.170, 298.498 845.750 C 298.740 846.438, 298.532 847, 298.036 847 C 297.540 847, 296.826 848.013, 296.448 849.250 C 295.779 851.444, 293.251 857.484, 290.495 863.474 C 289.506 865.624, 289.426 866.808, 290.205 867.747 C 291.043 868.757, 290.879 868.891, 289.468 868.349 C 288.052 867.806, 287.794 868.021, 288.295 869.326 C 288.648 870.247, 288.585 871, 288.155 871 C 287.725 871, 286.773 872.529, 286.040 874.397 C 285.307 876.265, 283.698 879.978, 282.463 882.647 C 280.734 886.388, 280.481 887.830, 281.360 888.942 C 282.229 890.041, 282.212 890.211, 281.290 889.658 C 280.490 889.178, 279.372 890.551, 277.986 893.716 C 276.834 896.347, 275.412 899.470, 274.827 900.655 C 274.243 901.840, 274.112 903.372, 274.537 904.059 C 275.036 904.868, 274.901 905.057, 274.155 904.595 C 273.148 903.973, 272.747 905.112, 273.085 907.638 C 273.132 907.989, 272.795 908.552, 272.335 908.888 C 270.966 909.891, 269 913.853, 269 915.609 C 269 917.023, 269.237 917.059, 270.750 915.872 C 272.298 914.658, 272.357 914.683, 271.259 916.092 C 270.576 916.968, 270.351 918.078, 270.759 918.559 C 271.166 919.040, 270.726 918.843, 269.781 918.120 C 268.251 916.951, 267.870 917.285, 266.322 921.153 C 265.365 923.544, 264.671 925.609, 264.778 925.743 C 264.886 925.876, 264.105 927.533, 263.042 929.425 C 261.127 932.835, 261.127 932.861, 263.082 932.484 C 264.172 932.274, 264.787 932.536, 264.458 933.069 C 264.130 933.599, 263.463 933.786, 262.975 933.484 C 262.071 932.926, 259.057 936.836, 258.570 939.198 C 258.423 939.914, 257.974 941.252, 257.574 942.172 C 257.174 943.091, 256.755 944.441, 256.645 945.172 C 256.534 945.902, 256.049 947.132, 255.567 947.905 C 254.926 948.932, 255.068 949.113, 256.095 948.578 C 256.868 948.176, 256.594 948.669, 255.487 949.674 C 253.008 951.922, 245.766 968.813, 246.661 970.260 C 247.039 970.872, 246.828 971.012, 246.155 970.595 C 245.161 969.981, 244.461 972.148, 245.250 973.395 C 245.387 973.612, 244.658 974.721, 243.629 975.858 C 242.583 977.014, 242.026 978.626, 242.367 979.515 C 242.703 980.389, 242.569 980.851, 242.069 980.543 C 241.203 980.007, 238.367 986.683, 238.795 988.250 C 238.908 988.663, 238.550 989, 238 989 C 237.450 989, 237 989.810, 237 990.800 C 237 991.790, 236.595 993.028, 236.100 993.550 C 234.830 994.891, 228.885 1009.140, 228.715 1011.250 C 228.638 1012.212, 228.268 1013, 227.894 1013 C 227.520 1013, 226.946 1013.698, 226.618 1014.552 C 226.291 1015.406, 226.437 1015.848, 226.942 1015.536 C 227.448 1015.223, 228.190 1015.537, 228.591 1016.234 C 228.992 1016.930, 228.952 1017.166, 228.502 1016.759 C 228.052 1016.351, 227.075 1016.523, 226.330 1017.141 C 225.295 1018, 225.247 1018.593, 226.129 1019.656 C 227.050 1020.765, 226.952 1020.919, 225.641 1020.416 C 224.739 1020.069, 223.944 1020.284, 223.875 1020.893 C 223.650 1022.889, 223.444 1023.472, 222.145 1025.814 C 221.137 1027.630, 221.122 1028.442, 222.072 1029.587 C 223.047 1030.762, 223.001 1030.938, 221.835 1030.490 C 220.421 1029.947, 219.039 1032.399, 214.575 1043.372 C 213.709 1045.502, 213 1049.855, 213 1053.045 C 213 1057.845, 213.452 1059.384, 215.619 1061.959 C 219.186 1066.198, 223.031 1068, 228.509 1068 C 231.906 1068, 232.932 1067.671, 232.412 1066.750 C 231.879 1065.806, 232.008 1065.778, 232.939 1066.636 C 234.459 1068.037, 242.300 1065.294, 241.318 1063.705 C 240.973 1063.147, 241.159 1062.980, 241.731 1063.334 C 242.953 1064.089, 249.185 1062.109, 248.595 1061.153 C 248.373 1060.794, 249.161 1060.437, 250.346 1060.361 C 251.531 1060.284, 255.200 1058.974, 258.500 1057.449 C 264.732 1054.570, 265.339 1054.333, 267 1054.125 C 267.550 1054.056, 268 1053.523, 268 1052.941 C 268 1052.359, 267.480 1052.203, 266.845 1052.595 C 266.114 1053.048, 265.963 1052.869, 266.435 1052.106 C 266.926 1051.311, 267.574 1051.232, 268.347 1051.873 C 269.616 1052.926, 277.531 1049.864, 276.418 1048.751 C 276.079 1048.412, 276.666 1048.361, 277.721 1048.637 C 278.861 1048.935, 280.220 1048.401, 281.070 1047.320 C 282.361 1045.676, 282.339 1045.626, 280.839 1046.799 C 279.692 1047.695, 278.973 1047.765, 278.515 1047.024 C 278.150 1046.433, 278.447 1046.074, 279.176 1046.225 C 279.904 1046.376, 280.354 1045.838, 280.176 1045.028 C 279.924 1043.885, 280.287 1043.950, 281.802 1045.321 C 283.666 1047.008, 283.924 1047.006, 287.626 1045.293 C 289.757 1044.307, 291.831 1043.050, 292.235 1042.500 C 292.639 1041.950, 292.976 1041.806, 292.985 1042.181 C 292.993 1042.555, 295.587 1041.793, 298.750 1040.487 C 301.913 1039.181, 304.376 1037.603, 304.225 1036.982 C 304.074 1036.360, 304.391 1036.124, 304.929 1036.456 C 306.444 1037.392, 311.071 1035.923, 310.339 1034.739 C 309.982 1034.163, 310.148 1033.974, 310.708 1034.319 C 311.799 1034.994, 320 1032.119, 320 1031.061 C 320 1030.712, 320.835 1030.363, 321.856 1030.286 C 324.805 1030.064, 333.042 1025.876, 332.441 1024.905 C 332.141 1024.420, 332.517 1024.261, 333.276 1024.552 C 334.034 1024.843, 335.970 1024.544, 337.578 1023.887 C 339.185 1023.230, 340.950 1022.588, 341.500 1022.460 C 342.050 1022.333, 345.083 1021.041, 348.239 1019.590 C 351.395 1018.139, 354.320 1016.888, 354.739 1016.810 C 355.158 1016.732, 357.975 1015.590, 361 1014.272 C 364.025 1012.954, 367.738 1011.343, 369.250 1010.693 C 370.762 1010.044, 372 1009.172, 372 1008.756 C 372 1008.340, 372.337 1008.053, 372.750 1008.118 C 373.163 1008.184, 373.725 1008.150, 374 1008.044 C 374.275 1007.938, 375.432 1007.675, 376.571 1007.459 C 377.710 1007.244, 379.960 1006.380, 381.571 1005.540 C 383.182 1004.700, 385.007 1004.010, 385.628 1004.006 C 386.248 1004.003, 387.311 1003.330, 387.991 1002.511 C 388.671 1001.692, 389.595 1001.249, 390.044 1001.527 C 390.494 1001.805, 391.149 1001.568, 391.500 1001 C 391.851 1000.432, 392.521 1000.204, 392.988 1000.493 C 393.456 1000.782, 394.496 1000.361, 395.300 999.557 C 396.104 998.753, 397.011 998.345, 397.316 998.650 C 397.621 998.955, 398.900 998.483, 400.158 997.602 C 401.416 996.721, 403.245 996, 404.223 996 C 405.200 996, 406 995.602, 406 995.117 C 406 994.631, 407.012 993.992, 408.250 993.698 C 411.323 992.967, 417.175 990.693, 419 989.520 C 419.825 988.990, 421.093 988.466, 421.817 988.357 C 422.541 988.247, 425.227 987.173, 427.785 985.971 C 430.344 984.768, 433.491 983.384, 434.779 982.894 C 436.067 982.404, 436.868 981.595, 436.559 981.095 C 436.250 980.595, 436.853 980.410, 437.900 980.684 C 440.574 981.383, 446.575 975.455, 448.385 970.326 C 449.621 966.823, 449.642 965.522, 448.524 961.844 C 447.797 959.455, 446.674 957.624, 446.027 957.775 C 445.380 957.926, 445.117 957.619, 445.442 957.094 C 445.994 956.200, 444.324 954.550, 442.833 954.515 C 442.467 954.507, 441.792 954.090, 441.333 953.590 C 440.838 953.049, 441.108 953.017, 442 953.512 C 442.957 954.042, 442.810 953.557, 441.595 952.172 C 439.485 949.766, 438.511 949.323, 439.568 951.250 C 439.945 951.938, 439.053 951.263, 437.586 949.750 C 436.119 948.237, 434.310 947, 433.567 947 C 432.823 947, 431.937 946.278, 431.599 945.396 C 431.250 944.488, 430.342 944.039, 429.504 944.360 C 428.690 944.673, 428.131 944.607, 428.262 944.214 C 428.393 943.821, 428.146 943.404, 427.714 943.286 C 427.282 943.168, 426.231 942.374, 425.378 941.521 C 420.962 937.105, 416.970 934.780, 415.664 935.864 C 414.661 936.696, 414.333 936.614, 414.333 935.528 C 414.333 934.736, 414.821 934.380, 415.417 934.736 C 416.012 935.092, 415.887 934.627, 415.137 933.703 C 414.387 932.778, 413.305 932.312, 412.732 932.666 C 412.160 933.019, 411.981 932.840, 412.334 932.268 C 412.688 931.695, 412.222 930.613, 411.297 929.863 C 409.852 928.692, 409.731 928.711, 410.435 930 C 410.885 930.825, 410.044 930.253, 408.566 928.728 C 407.088 927.204, 405.445 926.225, 404.915 926.553 C 404.384 926.880, 404.074 926.553, 404.225 925.824 C 404.376 925.096, 403.904 924.624, 403.176 924.775 C 402.447 924.926, 402.105 924.638, 402.416 924.136 C 402.726 923.634, 401.522 922.071, 399.740 920.664 C 397.958 919.257, 394.491 916.316, 392.035 914.127 C 389.580 911.938, 387.206 910.373, 386.760 910.648 C 386.315 910.923, 386.074 910.553, 386.225 909.824 C 386.376 909.096, 385.904 908.624, 385.176 908.775 C 384.447 908.926, 384.099 908.649, 384.402 908.158 C 385.148 906.951, 381.552 903.801, 380.509 904.748 C 380.052 905.162, 379.958 905.011, 380.298 904.413 C 381.067 903.061, 373.664 895.669, 372.604 896.730 C 372.180 897.153, 371.983 896.825, 372.167 896 C 372.351 895.170, 371.909 894.623, 371.176 894.775 C 370.447 894.926, 370.105 894.639, 370.415 894.138 C 371.159 892.933, 368.550 890.805, 367.498 891.759 C 367.048 892.166, 367.034 891.887, 367.468 891.138 C 367.901 890.389, 367.849 889.489, 367.352 889.138 C 366.855 888.787, 364.958 886.585, 363.136 884.245 C 361.315 881.905, 359.344 880.287, 358.758 880.650 C 358.160 881.019, 357.980 880.841, 358.349 880.244 C 359.282 878.734, 352.253 871.731, 350.725 872.648 C 349.775 873.219, 349.778 873.041, 350.738 871.855 C 351.754 870.599, 351.575 869.960, 349.738 868.284 C 348.507 867.162, 346.788 866.363, 345.917 866.509 C 345.046 866.655, 344.333 866.157, 344.333 865.403 C 344.333 864.374, 344.666 864.308, 345.667 865.138 C 347.671 866.801, 347.272 865.287, 344.841 861.999 C 343.654 860.393, 342.292 859.319, 341.816 859.614 C 341.340 859.908, 341.057 859.778, 341.188 859.324 C 341.716 857.488, 338.811 853.859, 337.282 854.445 C 336.059 854.915, 335.962 854.750, 336.841 853.692 C 337.698 852.659, 337.494 851.834, 335.982 850.211 C 334.892 849.041, 334 847.682, 334 847.192 C 334 845.253, 327.882 837.955, 326.812 838.616 C 326.187 839.002, 325.967 838.862, 326.315 838.300 C 327.038 837.130, 323.628 833.900, 320 832.319 C 317.116 831.062, 313 830.786, 313 831.849 M 961.500 832.206 C 957.878 833.472, 953.853 836.953, 954.605 838.170 C 954.904 838.654, 954.553 838.926, 953.824 838.775 C 953.096 838.624, 952.612 839.063, 952.750 839.750 C 952.888 840.438, 952.604 840.888, 952.120 840.750 C 950.893 840.402, 943.873 850.985, 944.576 852.123 C 944.891 852.633, 944.778 852.926, 944.324 852.775 C 943.871 852.624, 943.417 852.872, 943.316 853.326 C 943.214 853.780, 942.160 854.994, 940.974 856.023 C 939.787 857.052, 939.116 858.379, 939.483 858.972 C 939.849 859.565, 939.710 859.926, 939.174 859.775 C 938.638 859.624, 938.131 859.815, 938.047 860.201 C 937.963 860.586, 936.570 862.319, 934.951 864.052 C 933.332 865.785, 932.264 867.619, 932.578 868.126 C 932.892 868.634, 932.623 868.926, 931.981 868.775 C 931.339 868.624, 930.293 869.350, 929.657 870.388 C 929.021 871.427, 927.496 873.396, 926.269 874.764 C 925.042 876.132, 924.287 877.656, 924.593 878.151 C 924.899 878.645, 924.696 878.926, 924.142 878.775 C 922.718 878.386, 912.950 890.109, 913.694 891.314 C 914.032 891.861, 913.840 892.019, 913.268 891.666 C 911.998 890.881, 909.720 893.386, 910.759 894.425 C 911.166 894.833, 910.825 895.017, 910 894.833 C 909.091 894.631, 908.631 895.091, 908.833 896 C 909.017 896.825, 908.828 897.162, 908.414 896.748 C 908.001 896.334, 906.840 896.740, 905.835 897.650 C 904.515 898.844, 904.298 899.654, 905.052 900.563 C 905.781 901.441, 905.772 902.023, 905.024 902.485 C 904.433 902.850, 904.015 902.778, 904.094 902.324 C 904.478 900.112, 903.821 899.852, 902.004 901.497 C 900.358 902.986, 900.226 903.584, 901.254 904.902 C 902.331 906.284, 902.284 906.331, 900.902 905.254 C 899.591 904.231, 899.007 904.335, 897.650 905.835 C 896.740 906.840, 896.334 908.001, 896.748 908.414 C 897.162 908.828, 896.825 909.017, 896 908.833 C 895.170 908.649, 894.623 909.091, 894.775 909.824 C 894.926 910.553, 894.639 910.895, 894.138 910.585 C 893.085 909.934, 890.774 912.358, 891.509 913.342 C 891.779 913.704, 891.715 913.790, 891.367 913.533 C 890.390 912.814, 881.991 919.177, 882.606 920.172 C 882.904 920.654, 882.733 920.926, 882.226 920.775 C 881.153 920.455, 873.012 927.107, 873.005 928.309 C 873.002 928.754, 873.450 928.840, 874 928.500 C 875.628 927.494, 875.140 928.642, 873.308 930.128 C 872.344 930.909, 871.921 930.992, 872.324 930.319 C 873.463 928.421, 871.359 927.862, 869.863 929.665 C 869.113 930.568, 868.612 931.463, 868.750 931.654 C 868.888 931.844, 868.888 931.891, 868.750 931.758 C 868.031 931.063, 859.158 938.447, 859.686 939.301 C 860.049 939.889, 859.806 939.998, 859.101 939.563 C 858.395 939.126, 857.118 939.711, 856.023 940.974 C 854.994 942.160, 853.780 943.214, 853.326 943.316 C 852.872 943.417, 852.624 943.871, 852.775 944.324 C 852.926 944.778, 852.624 944.886, 852.104 944.564 C 850.842 943.785, 838.431 952.440, 838.750 953.876 C 838.888 954.494, 838.438 954.888, 837.750 954.750 C 837.063 954.613, 836.624 955.096, 836.775 955.824 C 836.926 956.553, 836.639 956.895, 836.138 956.585 C 834.886 955.812, 833.577 957.767, 832.217 962.440 C 831.335 965.470, 831.351 966.718, 832.285 967.844 C 832.953 968.649, 833.388 969.463, 833.250 969.654 C 830.995 972.778, 842.398 983.233, 847.219 982.461 C 848.164 982.310, 848.839 982.482, 848.719 982.843 C 848.599 983.204, 848.768 983.500, 849.096 983.500 C 849.424 983.500, 850.523 984.175, 851.538 985 C 853.179 986.333, 853.289 986.333, 852.531 985 C 852.061 984.175, 852.846 984.564, 854.275 985.864 C 855.703 987.164, 858.212 988.283, 859.849 988.350 C 861.487 988.417, 862.612 988.819, 862.350 989.243 C 862.088 989.667, 862.689 990.284, 863.687 990.614 C 865.513 991.218, 870.795 993.374, 874.500 995.028 C 875.600 995.519, 877.400 996.051, 878.500 996.210 C 879.600 996.370, 880.950 996.993, 881.500 997.596 C 882.050 998.198, 884.075 999.282, 886 1000.004 C 887.925 1000.725, 891.409 1002.154, 893.741 1003.179 C 896.074 1004.204, 899.121 1004.836, 900.512 1004.584 C 901.967 1004.320, 902.791 1004.530, 902.451 1005.079 C 902.127 1005.603, 901.373 1005.731, 900.776 1005.362 C 900.101 1004.945, 899.981 1005.160, 900.458 1005.933 C 900.880 1006.616, 902.076 1006.952, 903.114 1006.680 C 904.153 1006.409, 904.753 1006.590, 904.449 1007.083 C 904.144 1007.576, 905.943 1008.527, 908.447 1009.197 C 910.951 1009.867, 913 1010.771, 913 1011.207 C 913 1011.643, 913.591 1012, 914.313 1012 C 915.035 1012, 917.965 1013.129, 920.825 1014.508 C 923.684 1015.888, 926.874 1017.146, 927.914 1017.305 C 928.954 1017.463, 930.411 1018.072, 931.152 1018.658 C 931.894 1019.243, 936.325 1021.205, 941 1023.017 C 948.922 1026.088, 957.818 1029.935, 962.500 1032.312 C 964.356 1033.254, 964.392 1033.191, 963 1031.424 C 962.175 1030.377, 963.026 1030.778, 964.890 1032.314 C 966.909 1033.977, 968.919 1034.861, 969.860 1034.500 C 970.728 1034.167, 971.117 1034.216, 970.724 1034.609 C 969.749 1035.584, 978.032 1039.202, 979.739 1038.547 C 980.490 1038.259, 980.851 1038.431, 980.543 1038.931 C 980.024 1039.770, 985.363 1042.093, 987.388 1041.910 C 987.877 1041.865, 988.552 1042.218, 988.888 1042.692 C 989.738 1043.891, 999.023 1047.676, 1001.388 1047.787 C 1001.877 1047.810, 1002.605 1048.362, 1003.008 1049.012 C 1003.410 1049.663, 1004.879 1050.264, 1006.273 1050.348 C 1007.667 1050.431, 1008.600 1050.838, 1008.345 1051.250 C 1007.954 1051.883, 1009.055 1052.130, 1011.536 1051.964 C 1011.830 1051.945, 1012.797 1052.655, 1013.685 1053.542 C 1014.572 1054.429, 1016.132 1054.937, 1017.150 1054.671 C 1018.169 1054.404, 1018.783 1054.542, 1018.514 1054.977 C 1018.048 1055.732, 1022.230 1057.881, 1025.127 1058.375 C 1025.882 1058.504, 1027.963 1059.384, 1029.750 1060.330 C 1031.537 1061.277, 1033.007 1061.702, 1033.015 1061.276 C 1033.024 1060.849, 1033.423 1061.120, 1033.904 1061.878 C 1034.384 1062.636, 1035.284 1062.942, 1035.905 1062.559 C 1036.525 1062.176, 1036.731 1061.373, 1036.362 1060.776 C 1035.971 1060.144, 1036.154 1059.977, 1036.802 1060.378 C 1037.413 1060.755, 1037.686 1061.656, 1037.408 1062.379 C 1036.597 1064.492, 1046.333 1068, 1053.011 1068 C 1058.580 1068, 1061.940 1066.373, 1060.241 1064.498 C 1059.834 1064.048, 1060.106 1064.030, 1060.846 1064.458 C 1061.727 1064.968, 1063.192 1064.140, 1065.096 1062.056 C 1067.603 1059.312, 1068 1058.082, 1068 1053.072 C 1068 1046.335, 1064.504 1036.593, 1062.379 1037.408 C 1061.656 1037.686, 1060.755 1037.413, 1060.378 1036.802 C 1059.977 1036.154, 1060.144 1035.971, 1060.776 1036.362 C 1061.373 1036.731, 1062.176 1036.525, 1062.559 1035.905 C 1062.942 1035.284, 1062.636 1034.384, 1061.878 1033.904 C 1061.120 1033.423, 1060.849 1033.024, 1061.276 1033.015 C 1061.702 1033.007, 1061.277 1031.537, 1060.330 1029.750 C 1059.384 1027.963, 1058.504 1025.882, 1058.375 1025.127 C 1057.881 1022.230, 1055.732 1018.048, 1054.977 1018.514 C 1054.542 1018.783, 1054.404 1018.169, 1054.671 1017.150 C 1054.937 1016.132, 1054.429 1014.572, 1053.542 1013.685 C 1052.655 1012.797, 1051.945 1011.830, 1051.964 1011.536 C 1052.130 1009.055, 1051.883 1007.954, 1051.250 1008.345 C 1050.838 1008.600, 1050.431 1007.667, 1050.348 1006.273 C 1050.264 1004.879, 1049.663 1003.410, 1049.012 1003.008 C 1048.362 1002.605, 1047.810 1001.877, 1047.787 1001.388 C 1047.676 999.023, 1043.891 989.738, 1042.692 988.888 C 1042.218 988.552, 1041.940 988.102, 1042.075 987.888 C 1042.684 986.924, 1039.739 980.043, 1038.931 980.543 C 1038.431 980.851, 1038.259 980.490, 1038.547 979.739 C 1039.202 978.032, 1035.584 969.749, 1034.609 970.724 C 1034.216 971.117, 1034.167 970.728, 1034.500 969.860 C 1034.861 968.919, 1033.977 966.909, 1032.314 964.890 C 1030.778 963.026, 1030.377 962.175, 1031.424 963 C 1033.191 964.392, 1033.254 964.356, 1032.312 962.500 C 1029.935 957.818, 1026.088 948.922, 1023.017 941 C 1021.205 936.325, 1019.243 931.894, 1018.658 931.152 C 1018.072 930.411, 1017.458 928.917, 1017.292 927.831 C 1017.126 926.745, 1015.868 923.483, 1014.495 920.582 C 1013.123 917.681, 1012 914.788, 1012 914.154 C 1012 913.519, 1011.643 913, 1011.207 913 C 1010.771 913, 1009.867 910.951, 1009.197 908.447 C 1008.527 905.943, 1007.576 904.144, 1007.083 904.449 C 1006.590 904.753, 1006.409 904.153, 1006.680 903.114 C 1006.952 902.076, 1006.616 900.880, 1005.933 900.458 C 1005.160 899.981, 1004.945 900.101, 1005.362 900.776 C 1005.731 901.373, 1005.614 902.120, 1005.103 902.437 C 1004.582 902.758, 1004.353 901.798, 1004.583 900.256 C 1005.040 897.184, 1003.059 892.500, 1001.304 892.500 C 1000.678 892.500, 999.792 892.125, 999.333 891.667 C 998.875 891.208, 999.175 890.983, 1000 891.167 C 1000.951 891.378, 1001.396 890.874, 1001.215 889.788 C 1000.741 886.943, 998.026 881, 997.199 881 C 996.774 881, 996.353 880.042, 996.265 878.870 C 996.177 877.699, 995.376 875.111, 994.485 873.120 C 992.149 867.900, 991.258 865.738, 990.598 863.687 C 990.277 862.689, 989.667 862.088, 989.243 862.350 C 988.819 862.612, 988.417 861.487, 988.350 859.849 C 988.283 858.212, 987.164 855.703, 985.864 854.275 C 984.564 852.846, 984.175 852.061, 985 852.531 C 986.333 853.289, 986.333 853.179, 985 851.538 C 984.175 850.523, 983.500 849.424, 983.500 849.096 C 983.500 848.768, 983.190 848.603, 982.811 848.730 C 982.433 848.856, 982.302 848.026, 982.522 846.885 C 982.742 845.744, 982.154 843.615, 981.216 842.155 C 978.905 838.557, 973.034 833.029, 971.360 832.875 C 968.638 832.625, 968.153 832.487, 967.417 831.750 C 966.468 830.801, 965.253 830.895, 961.500 832.206 M 553.561 1001.902 C 553.176 1002.524, 552.479 1002.796, 552.012 1002.507 C 551.544 1002.218, 550.450 1002.693, 549.581 1003.562 C 548.711 1004.432, 548 1004.816, 548 1004.416 C 548 1003.070, 543.808 1007.470, 542.285 1010.416 C 539.959 1014.913, 541.937 1024.270, 547.903 1037 C 548.289 1037.825, 551.957 1046.938, 556.053 1057.252 C 560.265 1067.859, 563.971 1075.827, 564.583 1075.597 C 565.179 1075.374, 565.667 1075.803, 565.667 1076.551 C 565.667 1077.300, 565.179 1077.629, 564.583 1077.284 C 563.987 1076.939, 564.400 1077.711, 565.500 1079 C 566.600 1080.289, 566.868 1080.972, 566.095 1080.517 C 565.050 1079.902, 564.918 1080.050, 565.580 1081.095 C 566.069 1081.868, 566.498 1082.725, 566.534 1083 C 566.811 1085.153, 568.572 1088.725, 569.896 1089.820 C 570.778 1090.551, 570.929 1090.858, 570.231 1090.504 C 569.507 1090.136, 570.084 1092.357, 571.575 1095.680 C 573.011 1098.881, 574.281 1102.049, 574.397 1102.721 C 574.514 1103.393, 574.994 1104.293, 575.465 1104.721 C 575.936 1105.150, 575.954 1104.868, 575.506 1104.095 C 574.970 1103.172, 575.071 1102.926, 575.802 1103.378 C 576.413 1103.755, 576.657 1104.730, 576.344 1105.545 C 576.032 1106.359, 576.332 1107.695, 577.011 1108.513 C 577.689 1109.331, 577.953 1110, 577.597 1110 C 577.240 1110, 577.729 1111.463, 578.682 1113.250 C 580.534 1116.722, 580.681 1117.145, 580.875 1119.559 C 580.944 1120.416, 581.445 1120.843, 581.989 1120.507 C 582.555 1120.157, 582.723 1120.558, 582.382 1121.448 C 582.054 1122.302, 582.188 1123, 582.680 1123 C 583.172 1123, 583.639 1123.856, 583.718 1124.902 C 583.796 1125.949, 584.882 1128.986, 586.130 1131.652 C 587.378 1134.319, 588.427 1136.725, 588.461 1137 C 588.494 1137.275, 590.013 1141.325, 591.837 1146 C 593.660 1150.675, 596.068 1156.858, 597.188 1159.740 C 598.308 1162.622, 599.582 1164.759, 600.019 1164.488 C 600.456 1164.218, 600.596 1164.831, 600.329 1165.850 C 600.063 1166.868, 600.533 1168.390, 601.375 1169.232 C 602.216 1170.073, 602.663 1171.004, 602.367 1171.300 C 602.071 1171.596, 602.514 1173.337, 603.352 1175.169 C 605.345 1179.527, 608.208 1186.235, 608.616 1187.500 C 610.572 1193.564, 611.612 1196, 612.245 1196 C 612.660 1196, 613 1196.620, 613 1197.378 C 613 1198.136, 613.755 1200.498, 614.677 1202.628 C 615.599 1204.758, 616.443 1206.950, 616.553 1207.500 C 616.662 1208.050, 617.652 1210.525, 618.753 1213 C 619.854 1215.475, 621.536 1219.750, 622.491 1222.500 C 624.554 1228.441, 628.575 1235, 630.154 1235 C 630.773 1235, 631.779 1235.674, 632.390 1236.498 C 633 1237.321, 634.737 1238.095, 636.250 1238.216 C 637.763 1238.337, 639 1238.788, 639 1239.218 C 639 1239.648, 639.675 1240, 640.500 1240 C 641.325 1240, 642 1239.523, 642 1238.941 C 642 1238.359, 641.625 1238.114, 641.167 1238.397 C 640.708 1238.680, 640.333 1238.282, 640.333 1237.512 C 640.333 1236.741, 640.596 1236.139, 640.917 1236.174 C 641.237 1236.209, 641.725 1236.149, 642 1236.042 C 643.627 1235.408, 646.077 1235.256, 645.508 1235.825 C 645.137 1236.196, 644.421 1236.500, 643.917 1236.500 C 643.412 1236.500, 643.112 1236.950, 643.250 1237.500 C 643.630 1239.021, 647.138 1238.193, 648.562 1236.246 C 649.255 1235.298, 649.551 1234.067, 649.219 1233.511 C 648.888 1232.955, 649.351 1233.096, 650.249 1233.824 C 651.672 1234.977, 652.181 1234.655, 654.210 1231.324 C 657.463 1225.981, 665.242 1206.201, 664.539 1205.063 C 664.219 1204.546, 664.530 1203.758, 665.229 1203.311 C 666.352 1202.595, 670 1195.786, 670 1194.407 C 670 1194.118, 669.438 1194.211, 668.750 1194.613 C 668.063 1195.015, 668.357 1194.366, 669.405 1193.172 C 670.453 1191.977, 670.983 1191, 670.584 1191 C 670.184 1191, 670.599 1190.258, 671.506 1189.351 C 672.413 1188.444, 672.937 1186.868, 672.671 1185.850 C 672.404 1184.831, 672.537 1184.214, 672.965 1184.478 C 674.108 1185.185, 677.276 1176.270, 676.413 1174.774 C 676.010 1174.073, 676.065 1173.851, 676.536 1174.280 C 677.321 1174.994, 681 1168.802, 681 1166.767 C 681 1166.285, 681.877 1163.966, 682.948 1161.615 C 686.328 1154.195, 688.994 1147, 688.363 1147 C 688.029 1147, 688.323 1146.316, 689.017 1145.480 C 689.710 1144.644, 692.470 1138.456, 695.150 1131.730 C 697.829 1125.003, 700.435 1118.770, 700.939 1117.878 C 701.536 1116.823, 701.445 1115.838, 700.678 1115.057 C 699.771 1114.133, 699.835 1113.931, 700.955 1114.179 C 701.755 1114.355, 702.467 1114.050, 702.538 1113.500 C 702.609 1112.950, 703.211 1111.185, 703.875 1109.578 C 704.538 1107.970, 704.854 1106.063, 704.577 1105.340 C 704.299 1104.616, 704.618 1104.131, 705.286 1104.262 C 705.958 1104.394, 706.467 1103.519, 706.426 1102.300 C 706.385 1101.090, 706.676 1100.299, 707.071 1100.544 C 708.087 1101.172, 709.143 1098.040, 708.349 1096.755 C 707.961 1096.128, 708.165 1095.984, 708.845 1096.405 C 709.952 1097.088, 710.281 1096.015, 710.269 1091.773 C 710.267 1090.823, 710.642 1090.279, 711.103 1090.564 C 712.634 1091.510, 713.288 1086.057, 711.862 1084.237 C 710.626 1082.660, 710.664 1082.629, 712.274 1083.893 C 714.416 1085.574, 715.764 1084.626, 714.094 1082.613 C 713.172 1081.502, 713.174 1081.010, 714.106 1080.435 C 714.919 1079.932, 715.047 1080.115, 714.500 1081 C 713.986 1081.832, 714.083 1082.067, 714.767 1081.644 C 715.358 1081.278, 716.630 1078.846, 717.593 1076.240 C 718.556 1073.633, 719.772 1070.938, 720.295 1070.250 C 720.817 1069.563, 720.972 1069, 720.638 1069 C 720.305 1069, 720.974 1067.193, 722.125 1064.984 C 723.733 1061.900, 723.953 1060.648, 723.074 1059.589 C 722.171 1058.502, 722.307 1058.241, 723.715 1058.355 C 724.697 1058.435, 725.524 1057.825, 725.553 1057 C 725.582 1056.175, 726.324 1054.146, 727.203 1052.492 C 728.082 1050.837, 728.958 1048.587, 729.151 1047.492 C 729.343 1046.396, 729.881 1045.221, 730.348 1044.881 C 730.814 1044.540, 731.264 1043.078, 731.348 1041.631 C 731.431 1040.185, 731.751 1039.001, 732.058 1039.001 C 732.982 1039, 736.250 1030.917, 735.592 1030.259 C 735.256 1029.923, 735.943 1028.625, 737.117 1027.375 C 738.548 1025.853, 739.094 1024.270, 738.771 1022.581 C 738.506 1021.195, 738.674 1020.298, 739.144 1020.589 C 740.705 1021.553, 740.027 1013.560, 738.248 1010.020 C 736.220 1005.982, 730.338 1001.678, 727.767 1002.351 C 726.794 1002.605, 726.249 1002.405, 726.558 1001.907 C 726.866 1001.408, 725.940 1001, 724.500 1001 C 722.672 1001, 722.109 1001.377, 722.633 1002.250 C 723.217 1003.222, 723.034 1003.217, 721.814 1002.229 C 720.660 1001.294, 719.531 1001.228, 717.557 1001.979 C 716.079 1002.540, 713.556 1003, 711.949 1003 C 707.553 1003, 699.674 1005.283, 698.176 1006.991 C 697.448 1007.821, 697.126 1007.955, 697.461 1007.289 C 698.206 1005.807, 685.673 1006.230, 683.729 1007.752 C 683.053 1008.282, 680.250 1008.528, 677.500 1008.299 C 674.750 1008.070, 671.004 1008.161, 669.177 1008.500 C 666.527 1008.993, 666.081 1009.392, 666.975 1010.470 C 667.815 1011.482, 667.770 1012.010, 666.799 1012.571 C 666.084 1012.983, 665.834 1012.952, 666.241 1012.502 C 666.649 1012.052, 666.481 1011.080, 665.869 1010.342 C 664.440 1008.620, 661.605 1008.539, 662.633 1010.250 C 663.232 1011.247, 663.074 1011.249, 661.850 1010.259 C 661.006 1009.576, 660.073 1009.260, 659.777 1009.556 C 659.035 1010.298, 622.198 1010.240, 620.993 1009.496 C 619.025 1008.280, 599.535 1008.144, 598.058 1009.336 C 596.957 1010.225, 596.784 1010.221, 597.324 1009.319 C 598.405 1007.517, 596.367 1006.762, 589.307 1006.350 C 584.357 1006.061, 583.014 1006.266, 583.507 1007.237 C 583.860 1007.932, 583.461 1007.655, 582.620 1006.621 C 581.675 1005.460, 580.329 1004.942, 579.094 1005.265 C 577.995 1005.553, 576.949 1005.348, 576.770 1004.811 C 576.476 1003.927, 572.494 1003.162, 558.880 1001.377 C 555.906 1000.986, 554.011 1001.174, 553.561 1001.902" stroke="none" fill="#fffcfc" fill-rule="evenodd"/><path d="" stroke="none" fill="#fcfcfc" fill-rule="evenodd"/></svg>